SplineFontDB: 3.2
FontName: Cooper-Italic
FullName: Cooper* Italic
FamilyName: Cooper*
Weight: Regular
Copyright: 
Version: 0.1
ItalicAngle: -7
UnderlinePosition: -200
UnderlineWidth: 100
Ascent: 1600
Descent: 400
InvalidEm: 0
LayerCount: 2
Layer: 0 0 "Back" 1
Layer: 1 0 "Fore" 0
XUID: [1021 31 -699969567 16487490]
FSType: 0
OS2Version: 0
OS2_WeightWidthSlopeOnly: 0
OS2_UseTypoMetrics: 1
CreationTime: 1460762150
ModificationTime: 1700927174
PfmFamily: 17
TTFWeight: 400
TTFWidth: 5
LineGap: 0
VLineGap: 0
OS2TypoAscent: 2500
OS2TypoAOffset: 0
OS2TypoDescent: -850
OS2TypoDOffset: 0
OS2TypoLinegap: 0
OS2WinAscent: 2500
OS2WinAOffset: 0
OS2WinDescent: 850
OS2WinDOffset: 0
HheadAscent: 2500
HheadAOffset: 0
HheadDescent: -850
HheadDOffset: 0
OS2CapHeight: 1500
OS2XHeight: 1040
OS2FamilyClass: 256
OS2Vendor: 'it* '
OS2UnicodeRanges: 00000001.00000000.00000000.00000000
Lookup: 3 0 0 "'swsh' Swash in Latin lookup 1" { "'swsh' Swash in Latin lookup 1-1"  } ['swsh' ('DFLT' <'dflt' > 'latn' <'dflt' > ) ]
Lookup: 4 0 1 "'liga' Standard Ligatures lookup" { "'liga' Standard Ligatures lookup"  } ['liga' ('DFLT' <'dflt' > 'grek' <'dflt' > 'latn' <'dflt' > ) ]
Lookup: 258 0 0 "'kern' Horizontal Kerning lookup 0" { "'kern' Horizontal Kerning lookup 0-1" [300,0,4] } ['kern' ('DFLT' <'dflt' > 'grek' <'dflt' > 'latn' <'dflt' > ) ]
MarkAttachClasses: 1
DEI: 91125
KernClass2: 12 13 "'kern' Horizontal Kerning lookup 0-1"
 113 A L Agrave Aacute Acircumflex Atilde Adieresis Aring Amacron Abreve Aogonek Lacute uni013B Lslash uni01CD uni0394
 73 D O Q Eth Ograve Oacute Ocircumflex Otilde Odieresis Oslash Dcaron Dcroat
 17 F P F.swsh P.swsh
 11 K X uni0136
 107 V W Y Yacute Wcircumflex Ycircumflex Ydieresis Wgrave Wacute Wdieresis uni1E86 uni1E88 Ygrave T.swsh Y.swsh
 88 b o ograve oacute ocircumflex otilde odieresis oslash thorn omacron obreve ohungarumlaut
 48 h m n hbar nacute uni0146 ncaron napostrophe eng

StartChar: zero
Encoding: 48 48 0
Width: 1024
VWidth: 1920
Flags: HMW
LayerCount: 2
Fore
SplineSet
147 456 m 260
 147 620.493164062 181.077148438 798.446289062 256.158203125 942 c 4
 347.856445312 1117.32617188 486.25390625 1245 660 1245 c 260
 842 1245 991 1075 991 778 c 260
 991 594.327148438 939.408203125 393.283203125 842.466796875 249 c 4
 735.311523438 89.5146484375 610.837890625 -15 471 -15 c 260
 297 -15 147 172 147 456 c 260
482 64 m 260
 580.00390625 64 645.999023438 143.709960938 705.872070312 267 c 4
 781.578125 422.893554688 830 629.102539062 830 855 c 260
 830 1050 762 1166 654 1166 c 260
 547.110351562 1166 452.427734375 1032.109375 383.01171875 849 c 4
 322.85546875 690.315429688 303 492.912109375 303 333 c 260
 303 170 384 64 482 64 c 260
EndSplineSet
EndChar

StartChar: A
Encoding: 65 65 1
Width: 1542
VWidth: 1920
Flags: HMW
AnchorPoint: "ogonek" 1267 0 basechar 0
AnchorPoint: "bottom" 721 0 basechar 0
AnchorPoint: "top" 931 1400 basechar 0
LayerCount: 2
Fore
SplineSet
542 588 m 6
 368 253 l 6
 335.564453125 190.551757812 316 150 316 109 c 4
 316 73 345 62 369 62 c 4
 411 62 430 72 449 72 c 4
 463 72 479 67 479 44 c 4
 479 0 404 -15 271 -15 c 4
 80 -15 -29 -9 -29 39 c 4
 -29 62 -8 80 15 80 c 4
 38 80 61 66 93 66 c 4
 157 66 204 135 355 402 c 6
 745 1096 l 6
 811.4765625 1214.29394531 823 1247 823 1315 c 4
 823 1396 868 1446 933 1446 c 4
 1002 1446 1030 1377 1069 1236 c 4
 1160 908 1211 568 1279 246 c 4
 1297 159 1306 70 1356 70 c 4
 1411 70 1435 88 1470 88 c 4
 1491 88 1501 75 1501 58 c 4
 1501 41 1491 25 1445 10 c 4
 1391 -8 1280 -15 1187 -15 c 4
 1071 -15 990 -6 937 17 c 4
 919 25 907 38 907 58 c 4
 907 79 921 87 940 87 c 4
 965 87 983 67 1019 67 c 4
 1063 67 1091 96 1091 136 c 4
 1091 168 1087 196 1083 226 c 6
 1033 582 l 6
 1027 625 1010 648 969 655 c 4
 922 663 874 665 795 665 c 4
 726 665 669 660 621 652 c 4
 585.149414062 646.024414062 562 626 542 588 c 6
813 741 m 4
 896 741 915 736 953 736 c 4
 981 736 991 749 991 767 c 4
 991 781 984 812 977 841 c 6
 927 1084 l 6
 912.047851562 1156.66699219 900 1187 884 1187 c 4
 865 1187 841.919921875 1128.94824219 814 1078 c 6
 677 828 l 6
 662.765625 803.287109375 650 774 650 756 c 4
 650 737 662 734 678 734 c 4
 693 734 761 741 813 741 c 4
EndSplineSet
AlternateSubs2: "'swsh' Swash in Latin lookup 1-1" A.swsh
EndChar

StartChar: B
Encoding: 66 66 2
Width: 1388
VWidth: 1920
Flags: HMW
AnchorPoint: "top" 832 1400 basechar 0
AnchorPoint: "bottom" 773 0 basechar 0
LayerCount: 2
Fore
SplineSet
800 75 m 0
 1016 75 1143 232 1143 472 c 0
 1143 592 1048 700 908 700 c 0
 849 700 695 695 648 695 c 0
 591 695 580 692 574 651 c 0
 567 606 554 503 550 456 c 0
 538 312 521 191 521 139 c 0
 521 98 592 75 800 75 c 0
788 776 m 0
 994 776 1108 975 1108 1115 c 0
 1108 1315 929 1332 767 1332 c 0
 672 1332 655 1282 646 1224 c 0
 632 1137 620 1072 608 984 c 0
 602 941 594 864 592 840 c 0
 587 788 630 776 788 776 c 0
453 5 m 0
 367 5 333 -4 238 -4 c 0
 165 -4 122 21 122 59 c 0
 122 79 138 94 158 94 c 0
 184 94 193 80 253 80 c 0
 323 80 340 187 395 590 c 2
 437 900 l 2
 462 1083 468 1188 468 1258 c 0
 468 1311 446 1326 409 1326 c 0
 377 1326 346 1318 321 1318 c 0
 298 1318 283 1326 283 1353 c 0
 283 1387 322 1406 359 1406 c 0
 427 1406 478 1394 580 1394 c 0
 702 1394 789 1408 908 1408 c 0
 1165 1408 1291 1318 1291 1108 c 0
 1291 982 1212 891 1144 833 c 0
 1110 804 1067 782 1067 763 c 0
 1067 750 1118 748 1160 729 c 0
 1287 671 1342 567 1342 428 c 0
 1342 189 1149 -7 818 -7 c 0
 699 -7 567 5 453 5 c 0
EndSplineSet
AlternateSubs2: "'swsh' Swash in Latin lookup 1-1" B.swsh
EndChar

StartChar: C
Encoding: 67 67 3
Width: 1240
VWidth: 1920
Flags: HMW
AnchorPoint: "top" 805 1400 basechar 0
AnchorPoint: "bottom" 667 0 basechar 0
LayerCount: 2
Fore
SplineSet
638 -25 m 0
 341 -25 92 228 92 558 c 0
 92 1035 452 1425 837 1425 c 0
 1027 1425 1081 1316 1111 1316 c 0
 1137 1316 1137 1358 1175 1358 c 0
 1224 1358 1241 1304 1241 1218 c 0
 1241 1036 1196 956 1141 956 c 0
 1114 956 1103 968 1103 991 c 0
 1103 1021 1116 1047 1116 1099 c 0
 1116 1238 1009 1346 812 1346 c 0
 537 1346 290 996 290 498 c 0
 290 248 400 52 647 52 c 0
 972 52 1053 334 1057 378 c 0
 1059 406 1062 427 1085 427 c 0
 1120 427 1141 409 1141 337 c 0
 1141 271 1124 195 1088 150 c 0
 1076 134 1067 120 1047 120 c 0
 1039 120 1033 127 1023 127 c 0
 1000 127 902 -25 638 -25 c 0
EndSplineSet
EndChar

StartChar: D
Encoding: 68 68 4
Width: 1592
VWidth: 1920
Flags: HMW
AnchorPoint: "top" 866 1400 basechar 0
AnchorPoint: "bottom" 717 0 basechar 0
LayerCount: 2
Fore
SplineSet
699 63 m 0
 816 63 951 77 1029 129 c 0
 1215 253 1349 517 1349 847 c 0
 1349 1077 1251 1335 881 1335 c 0
 707 1335 640 1324 618 1306 c 0
 601 1292 589 1240 583 1203 c 0
 568 1106 551 983 538 873 c 0
 515 671 465.456054688 381.599609375 449 175 c 0
 443.916015625 111.170898438 459 104 480 95 c 0
 519.104492188 78.2412109375 585 63 699 63 c 0
751 -13 m 0
 603 -13 458 6 357 6 c 0
 271 6 227 -5 132 -5 c 0
 59 -5 33 15 33 42 c 0
 33 71 59 82 87 82 c 0
 116 82 149 69 173 69 c 0
 193 69 221 79 234 106 c 0
 260 162 281 320 321 590 c 2
 367 885 l 2
 418 1226 404 1332 346 1332 c 0
 293 1332 259 1312 233 1312 c 0
 200 1312 186 1329 186 1355 c 0
 186 1389 225 1404 282 1404 c 0
 350 1404 410 1395 512 1395 c 0
 669 1395 719 1406 922 1406 c 0
 1309 1406 1537 1217 1537 807 c 0
 1537 437 1305 69 960 5 c 0
 882 -9 831 -13 751 -13 c 0
EndSplineSet
AlternateSubs2: "'swsh' Swash in Latin lookup 1-1" D.swsh
EndChar

StartChar: E
Encoding: 69 69 5
Width: 1240
VWidth: 1920
Flags: HMW
AnchorPoint: "ogonek" 1052 0 basechar 0
AnchorPoint: "top" 646 1400 basechar 0
AnchorPoint: "bottom" 637 0 basechar 0
LayerCount: 2
Fore
SplineSet
377 -1 m 0
 291 -1 179 -7 94 -7 c 0
 33 -7 8 10 8 44 c 0
 8 65 27 78 53 78 c 0
 83 78 116 67 145 67 c 0
 185 67 213 76 235 118 c 0
 257 160 264 244 284 378 c 0
 308 540 324 622 346 820 c 0
 373 1061 388 1172 388 1246 c 0
 388 1316 355 1333 317 1333 c 0
 284 1333 242 1322 223 1322 c 0
 199 1322 178 1325 178 1353 c 0
 178 1387 207 1405 274 1405 c 0
 342 1405 412 1401 514 1401 c 0
 636 1401 830 1406 949 1406 c 0
 1112 1406 1131 1436 1178 1436 c 0
 1221 1436 1257 1339 1257 1209 c 0
 1257 1114 1239 1088 1193 1088 c 0
 1164 1088 1155 1103 1155 1120 c 0
 1155 1136 1162 1156 1162 1183 c 0
 1162 1255 1107 1306 1024 1319 c 0
 962 1329 873 1331 811 1331 c 0
 676 1331 586 1323 569 1244 c 0
 555 1181 528 1041 518 868 c 0
 515 821 519 806 547 800 c 0
 574 794 637 795 702 797 c 0
 833 801 875 810 875 882 c 0
 875 930 878 960 911 960 c 0
 941 960 949 936 949 886 c 0
 949 842 942 774 935 716 c 0
 915 561 904 533 860 533 c 0
 840 533 828 547 828 566 c 0
 828 587 841 616 841 649 c 0
 841 711 804 715 705 715 c 0
 510 715 506 706 497 651 c 0
 489 602 478 521 469 446 c 0
 453 316 443 245 443 165 c 0
 443 123 477 99 501 94 c 0
 546 85 656 80 752 80 c 0
 837 80 925 83 978 95 c 0
 1045 110 1081 149 1107 203 c 0
 1139 269 1142 323 1172 323 c 0
 1203 323 1224 306 1224 278 c 0
 1224 205 1150 -30 1101 -30 c 0
 1065 -30 1075 -3 1017 -3 c 0
 900 -3 729 -3 644 -3 c 0
 557 -3 461 -1 377 -1 c 0
EndSplineSet
AlternateSubs2: "'swsh' Swash in Latin lookup 1-1" E.swsh
EndChar

StartChar: F
Encoding: 70 70 6
Width: 1163
VWidth: 1920
Flags: HMW
AnchorPoint: "top" 632 1400 basechar 0
AnchorPoint: "bottom" 722 0 basechar 0
LayerCount: 2
Fore
SplineSet
332 -18 m 0
 191 -18 122 -10 84 -2 c 0
 60 3 36 21 36 52 c 0
 36 75 56 81 79 81 c 0
 101 81 146 65 182 65 c 0
 210 65 231 79 244 122 c 0
 263 188 309 364 336 590 c 2
 374 900 l 2
 415 1242 397 1329 316 1329 c 0
 283 1329 249 1319 220 1319 c 0
 196 1319 180 1322 180 1350 c 0
 180 1394 233 1410 290 1410 c 0
 358 1410 422 1397 524 1397 c 0
 646 1397 829 1397 948 1397 c 0
 1021 1397 1105 1425 1152 1425 c 0
 1203 1425 1248 1305 1248 1175 c 0
 1248 1111 1215 1081 1188 1081 c 0
 1167 1081 1150 1091 1150 1117 c 0
 1150 1128 1155 1153 1155 1168 c 0
 1155 1228 1089 1295 954 1314 c 0
 891 1323 758 1324 696 1324 c 0
 592 1324 591 1293 582 1234 c 0
 570 1160 562 1115 542 967 c 0
 538 937 532 867 532 837 c 0
 532 818 532 801 570 793 c 0
 595 787 617 785 678 785 c 0
 786 785 856 810 866 885 c 0
 872 931 867 959 897 959 c 0
 923 959 948 938 948 863 c 0
 948 802 945.331054688 759.137695312 935 706 c 4
 908.4609375 569.498046875 884 532 850 532 c 0
 828 532 818 549 818 569 c 0
 818 582 832 620 832 635 c 0
 832 668 811 691 784 700 c 0
 760 708 727 710 688 710 c 0
 606 710 583 709 552 709 c 0
 522 709 517 695 514 671 c 0
 508 621 488 511 482 436 c 2
 474 328 l 2
 462 171 474 72 530 72 c 0
 574 72 589 89 624 89 c 0
 644 89 660 80 660 59 c 0
 660 24 635 16 612 6 c 0
 576 -9 502 -18 332 -18 c 0
EndSplineSet
AlternateSubs2: "'swsh' Swash in Latin lookup 1-1" F.swsh
EndChar

StartChar: G
Encoding: 71 71 7
Width: 1333
VWidth: 1920
Flags: HMW
AnchorPoint: "top" 739 1400 basechar 0
AnchorPoint: "bottom" 741 0 basechar 0
LayerCount: 2
Fore
SplineSet
583 -25 m 0
 326 -25 53 154 53 564 c 0
 53 971 318 1425 803 1425 c 0
 1063 1425 1112 1317 1152 1317 c 0
 1178 1317 1178 1356 1224 1356 c 0
 1262 1356 1283 1311 1283 1205 c 0
 1283 1130 1271 1029 1248 983 c 0
 1234 955 1214 937 1185 937 c 0
 1157 937 1148 955 1148 983 c 0
 1148 1002 1160 1030 1160 1052 c 0
 1160 1199 1026 1350 809 1350 c 0
 434 1350 241 866 241 538 c 0
 241 178 469 57 676 57 c 0
 840 57 944 127 960 165 c 4
 992 239 1022 366 1022 429 c 4
 1022 456 1020 478 986 478 c 4
 935 478 894 449 869 449 c 4
 844 449 827 461 827 484 c 4
 827 502 840 523 867 535 c 4
 918 558 992 569 1113 569 c 4
 1143 569 1244 563 1299 555 c 0
 1343 548 1366 527 1366 500 c 0
 1366 472 1351 457 1316 457 c 0
 1286 457 1266 471 1238 471 c 0
 1211 471 1204 427 1195 377 c 0
 1185 321 1166 201 1121 160 c 0
 1008 57 840 -25 583 -25 c 0
EndSplineSet
AlternateSubs2: "'swsh' Swash in Latin lookup 1-1" G.swsh
EndChar

StartChar: H
Encoding: 72 72 8
Width: 1570
VWidth: 1920
Flags: HMW
AnchorPoint: "top" 892 1400 basechar 0
AnchorPoint: "bottom" 752 0 basechar 0
LayerCount: 2
Fore
SplineSet
300 591 m 2
 344 934 l 2
 388 1276 367 1324 292 1324 c 0
 267 1324 249 1317 210 1317 c 0
 190 1317 179 1325 179 1345 c 0
 179 1379 211 1390 248 1398 c 0
 310 1411 377 1415 468 1415 c 0
 554 1415 635 1409 682 1402 c 0
 735 1394 752 1377 752 1352 c 0
 752 1335 736 1319 708 1319 c 0
 685 1319 665 1324 628 1324 c 0
 568 1324 535 1236 503 886 c 0
 496 812 499 791 527 782 c 0
 557 772 618 772 780 772 c 0
 968 772 1083 772 1126 777 c 0
 1172 782 1189.08870282 801.362857357 1198 861 c 0
 1224 1035 1244 1175 1244 1241 c 0
 1244 1306 1231 1325 1189 1325 c 0
 1154 1325 1124 1320 1095 1320 c 0
 1075 1320 1058 1333 1058 1353 c 0
 1058 1374 1070 1386 1102 1393 c 0
 1147 1403 1231 1415 1368 1415 c 0
 1475 1415 1542 1413 1583 1406 c 0
 1632 1398 1645 1386 1645 1362 c 0
 1645 1343 1635 1325 1606 1325 c 0
 1583 1325 1567 1333 1530 1333 c 0
 1444 1333 1418 1312 1359 827 c 2
 1320 504 l 2
 1279 162 1284 66 1359 66 c 0
 1424 66 1432 75 1461 75 c 0
 1481 75 1493 62 1493 42 c 0
 1493 8 1442 -2 1404 -6 c 0
 1342 -13 1285 -15 1194 -15 c 0
 1108 -15 1005 -10 958 -4 c 0
 905 3 886 15 886 40 c 0
 886 57 896 77 924 77 c 0
 957 77 991 66 1028 66 c 0
 1062 66 1089 95 1095 117 c 0
 1106 159 1133 301 1142 404 c 0
 1146 445 1167 583 1170 631 c 0
 1173 674 1164 688 1122 688 c 0
 1078 688 974 696 786 696 c 0
 606 696 552 696 514 691 c 0
 474 686 476 665 470 630 c 0
 460 571 440 450 435 408 c 0
 423 298 410 156 421 110 c 0
 429 75 453 62 481 62 c 0
 526 62 548 71 567 71 c 0
 587 71 601 63 601 43 c 0
 601 9 561 -5 524 -9 c 0
 461 -16 385 -15 294 -15 c 0
 208 -15 135 -11 88 -3 c 0
 35 6 20 15 20 40 c 0
 20 57 29 77 57 77 c 0
 80 77 132 62 161 78 c 0
 229 114 248 186 300 591 c 2
EndSplineSet
EndChar

StartChar: I
Encoding: 73 73 9
Width: 719
VWidth: 1920
Flags: HMW
AnchorPoint: "ogonek" 387 0 basechar 0
AnchorPoint: "top" 496 1400 basechar 0
AnchorPoint: "bottom" 317 0 basechar 0
LayerCount: 2
Fore
SplineSet
312 591 m 2
 347 901 l 2
 386 1243 395 1329 330 1329 c 0
 285 1329 235 1310 215 1310 c 0
 195 1310 182 1319 182 1344 c 0
 182 1369 201 1382 247 1392 c 0
 309 1405 406 1415 497 1415 c 0
 583 1415 646 1410 692 1403 c 0
 745 1395 765 1380 765 1349 c 0
 765 1328 752 1319 726 1319 c 0
 700 1319 680 1333 643 1333 c 0
 593 1333 562 1298 509 894 c 2
 471 604 l 2
 438 352 424 148 442 102 c 0
 452 77 471 75 491 75 c 0
 535 75 549 90 578 90 c 0
 602 90 616 78 616 58 c 0
 616 24 579 7 533 -2 c 0
 476 -13 404 -15 313 -15 c 0
 227 -15 162 -12 115 -3 c 0
 66 6 30 21 30 55 c 0
 30 70.2694057698 38.0120631507 82.926164572 60 84.6053310405 c 0
 88.0370793456 86.7464561417 119.539629322 67 161 67 c 0
 190 67 215 84 226 110 c 0
 250 168 280 310 312 591 c 2
EndSplineSet
EndChar

StartChar: J
Encoding: 74 74 10
Width: 682
VWidth: 1920
Flags: HMW
AnchorPoint: "top" 458 1400 basechar 0
LayerCount: 2
Fore
SplineSet
277 111 m 2
 367 901 l 2
 406 1244 395 1327 330 1327 c 0
 305 1327 271 1304 242 1304 c 0
 222 1304 204 1318 204 1338 c 4
 204 1372 237 1387 274 1395 c 0
 336 1408 403 1415 484 1415 c 0
 590 1415 663 1400 710 1389 c 0
 762 1377 778 1361 778 1336 c 4
 778 1319 760 1301 732 1301 c 0
 709 1301 693 1320 656 1320 c 0
 596 1320 567 1220 527 814 c 2
 477 294 l 2
 436 -124 303 -326 136 -326 c 0
 72 -326 14 -282 14 -217 c 0
 14 -160 54 -128 102 -128 c 4
 165 -128 173 -202 210 -202 c 4
 222 -202 239 -191 246 -163 c 4
 257 -120 260 -34 277 111 c 2
EndSplineSet
EndChar

StartChar: K
Encoding: 75 75 11
Width: 1388
VWidth: 1920
Flags: HMW
AnchorPoint: "top" 808 1400 basechar 0
AnchorPoint: "bottom" 768 0 basechar 0
LayerCount: 2
Fore
SplineSet
319 591 m 6
 361 901 l 6
 408 1242 393 1330 328 1330 c 4
 283 1330 275 1305 246 1305 c 4
 226 1305 210 1319 210 1339 c 4
 210 1363 238 1380 274 1390 c 4
 338 1407 413 1415 504 1415 c 4
 590 1415 635 1412 690 1403 c 4
 749 1393 764 1379 764 1351 c 4
 764 1325 742 1317 715 1317 c 4
 686 1317 661 1326 638 1326 c 4
 612 1326 594.264648438 1302.53710938 582 1271 c 4
 561 1217 548 1169 534 1016 c 4
 522 888 517 862 536 862 c 4
 554 862 574 867 620 911 c 6
 868 1132 l 6
 934.467773438 1191.23144531 1006 1269 1006 1306 c 4
 1006 1318 993 1326 978 1326 c 4
 966 1326 952 1323 942 1323 c 4
 922 1323 904 1333 904 1353 c 4
 904 1385 964 1415 1144 1415 c 4
 1261 1415 1346 1411 1346 1359 c 4
 1346 1330 1328 1320 1303 1320 c 4
 1280 1320 1266 1324 1242 1324 c 4
 1145 1324 1132.57714844 1262.86328125 972 1124 c 6
 654 849 l 6
 644 840 632 832 632 822 c 4
 632 809 649 791 664 769 c 6
 1042 275 l 6
 1105.66210938 191.801757812 1130 141 1170 108 c 4
 1182 98 1208 83 1242 83 c 4
 1267 83 1288 97 1308 97 c 4
 1328 97 1346 89 1346 65 c 4
 1346 20 1298 -5 1164 -5 c 6
 1070 -5 l 6
 1037 -5 1016 3 996 20 c 4
 963 49 942.814453125 111.576171875 866 215 c 6
 560 627 l 6
 536 665 522 694 502 679 c 4
 491 671 486 632 482 597 c 6
 472 516 l 6
 430 174 436 69 516 69 c 4
 559 69 583 85 612 85 c 4
 626 85 642 77 642 56 c 4
 642 -7 495 -15 340 -15 c 4
 254 -15 147 -12 100 -1 c 4
 48 11 32 26 32 49 c 4
 32 72 48 82 76 82 c 4
 99 82 124 71 171 71 c 4
 249 71 263 188 319 591 c 6
EndSplineSet
EndChar

StartChar: L
Encoding: 76 76 12
Width: 1240
VWidth: 1920
Flags: HMW
AnchorPoint: "top" 457 1390 basechar 0
AnchorPoint: "bottom" 666 0 basechar 0
LayerCount: 2
Fore
SplineSet
356 5 m 0
 270 5 205 -5 120 -5 c 0
 47 -5 30 20 30 47 c 0
 30 74 57 94 77 94 c 0
 95 94 124 88 148 88 c 0
 175 88 207 94 221 125 c 0
 248 186 272 322 300 590 c 2
 333 881 l 2
 356 1098 358 1212 358 1274 c 0
 358 1315 339 1327 312 1327 c 0
 287 1327 259 1308 220 1308 c 0
 190 1308 173 1320 173 1340 c 0
 173 1365 186 1384 243 1395 c 0
 295 1405 342 1415 463 1415 c 0
 549 1415 657 1410 704 1400 c 0
 757 1389 781 1368 781 1343 c 0
 781 1318 766 1309 738 1309 c 0
 695 1309 668 1332 631 1332 c 0
 563 1332 543.563476562 1198.49707031 499 794 c 2
 473 558 l 2
 445 282 448 165 468 134 c 0
 496 90 602 74 761 74 c 0
 846 74 892 75 944 94 c 0
 1032 126 1071 207 1094 303 c 0
 1103 339 1114 356 1147 356 c 0
 1192 356 1201 326 1201 278 c 0
 1201 241 1182 161 1163 108 c 0
 1137 33 1105 -29 1061 -29 c 0
 997 -29 1016 -3 948 -3 c 0
 831 -3 698 -2 613 -2 c 0
 526 -2 440 5 356 5 c 0
EndSplineSet
EndChar

StartChar: M
Encoding: 77 77 13
Width: 1858
VWidth: 1920
Flags: HMW
AnchorPoint: "top" 856 1400 basechar 0
AnchorPoint: "bottom" 807 0 basechar 0
LayerCount: 2
Fore
SplineSet
350 591 m 2
 405 889 l 2
 435 1046 454 1154 454 1223 c 0
 454 1296 432 1328 388 1328 c 0
 333 1328 293 1313 264 1313 c 0
 244 1313 228 1322 228 1342 c 0
 228 1376 259 1382 296 1390 c 0
 378 1407 502 1415 562 1415 c 0
 583 1415 604 1415 627 1410 c 0
 664 1402 663 1364 670 1333 c 2
 882 376 l 2
 890 338 899 318 908 318 c 0
 916 318 951 369 986 432 c 0
 1144 719 1293 1026 1445 1339 c 0
 1460 1369 1471 1392 1507 1404 c 0
 1535 1413 1570 1415 1612 1415 c 0
 1698 1415 1780 1412 1816 1408 c 0
 1869 1402 1890 1390 1890 1365 c 0
 1890 1336 1866 1333 1844 1333 c 0
 1825 1333 1782 1336 1749 1336 c 0
 1671 1336 1652 1277 1611 921 c 2
 1563 504 l 2
 1547 368 1540 265 1540 201 c 0
 1540 136 1548 103 1571 87 c 0
 1584 78 1609 74 1626 74 c 0
 1654 74 1676 85 1699 85 c 0
 1719 85 1738 73 1738 53 c 0
 1738 28 1728 14 1700 7 c 0
 1656 -5 1569 -15 1421 -15 c 0
 1273 -15 1209 -14 1173 -6 c 0
 1150 -1 1142 15 1142 32 c 0
 1142 51 1154 71 1180 71 c 0
 1203 71 1222 69 1259 69 c 0
 1359 69 1362 186 1408 591 c 2
 1451 970 l 2
 1462 1063 1459 1097 1432 1097 c 0
 1407 1097 1364 1024 1340 977 c 2
 860 46 l 2
 833 -7 822 -19 806 -19 c 0
 790 -19 774 -11 764 45 c 0
 712 329 673 567 575 958 c 0
 565 996 552 1062 532 1062 c 0
 505 1062 484 972 451 802 c 2
 394 504 l 2
 356 309 345 217 345 159 c 0
 345 95 371 65 428 65 c 0
 463 65 469 76 498 76 c 0
 518 76 531 61 531 41 c 0
 531 -7 424 -15 258 -15 c 0
 218 -15 161 -10 112 -6 c 0
 42 0 20 18 20 42 c 0
 20 59 32 76 60 76 c 0
 83 76 100 65 137 65 c 0
 180 65 212 98 233 142 c 0
 261 202 303 353 350 591 c 2
EndSplineSet
AlternateSubs2: "'swsh' Swash in Latin lookup 1-1" M.swsh
EndChar

StartChar: N
Encoding: 78 78 14
Width: 1595
VWidth: 1920
Flags: HMW
AnchorPoint: "top" 844 1400 basechar 0
AnchorPoint: "bottom" 805 0 basechar 0
LayerCount: 2
Fore
SplineSet
304 551 m 2
 338 823 l 2
 369.492307692 1074.93846154 367 1232 329 1297 c 0
 316.678710938 1318.07617188 302 1332 272 1332 c 0
 217 1332 194 1307 165 1307 c 0
 145 1307 127 1318 127 1338 c 0
 127 1370 170 1382 207 1390 c 0
 269 1403 411 1415 472 1415 c 0
 538 1415 550.666992188 1395.83007812 573 1359 c 2
 1183 366 l 2
 1201.328125 335.7734375 1211 320 1232 320 c 0
 1256 320 1266.34570312 407.20703125 1285 566 c 2
 1326 915 l 2
 1357.04101562 1179.22363281 1340 1335 1275 1335 c 0
 1230 1335 1201 1316 1172 1316 c 0
 1152 1316 1140 1323 1140 1343 c 0
 1140 1384 1201 1415 1397 1415 c 0
 1610 1415 1651 1387 1651 1348 c 0
 1651 1329 1636 1321 1618 1321 c 0
 1585 1321 1558 1338 1511 1338 c 0
 1451 1338 1439.89233784 1261.13187742 1408 993 c 2
 1354 539 l 2
 1336.87535996 395.026174513 1324.66741145 274.690833618 1310.9969192 182.000020421 c 4
 1290.34024366 41.9403929167 1266.34422217 -35 1217 -35 c 0
 1191 -35 1176.18060207 -18.2914145228 1158 12 c 2
 526 1085 l 2
 506.407226562 1117.64453125 496 1141 475 1141 c 0
 453 1141 421.854492188 989.015625 403 816 c 2
 369 504 l 2
 331.518554688 160.052734375 353 62 418 62 c 0
 463 62 478 76 507 76 c 0
 525 76 533 64 533 52 c 0
 533 14 470 -15 304 -15 c 0
 141 -15 31 -1 31 54 c 0
 31 70 45 79 63 79 c 0
 86 79 109 64 146 64 c 0
 206 64 253.292307692 145.338461538 304 551 c 2
EndSplineSet
AlternateSubs2: "'swsh' Swash in Latin lookup 1-1" N.swsh
EndChar

StartChar: O
Encoding: 79 79 15
Width: 1388
VWidth: 1920
Flags: HMW
AnchorPoint: "top" 866 1400 basechar 0
AnchorPoint: "bottom" 670 0 basechar 0
LayerCount: 2
Fore
SplineSet
134 582 m 260
 134 1034 438 1425 864 1425 c 260
 1203 1425 1376 1181 1376 813 c 260
 1376 448 1089 -25 660 -25 c 260
 326 -25 134 215 134 582 c 260
672 53 m 260
 1004 53 1190 502 1190 850 c 260
 1190 1222 1053 1351 866 1351 c 260
 492 1351 322 930 322 494 c 260
 322 217 453 53 672 53 c 260
EndSplineSet
EndChar

StartChar: P
Encoding: 80 80 16
Width: 1267
VWidth: 1920
Flags: HMW
AnchorPoint: "top" 726 1400 basechar 0
AnchorPoint: "bottom" 357 0 basechar 0
LayerCount: 2
Fore
SplineSet
692 677 m 0
 776 677 863.011437708 680.985486193 929 733 c 0
 1014 800 1074 911 1074 1043 c 0
 1074 1243 964 1341 792 1341 c 0
 627 1341 599 1316 589 1284 c 0
 582 1261 570 1185 555 1072 c 2
 536 924 l 2
 524 833 516 755 516 730 c 0
 516 702 574 677 692 677 c 0
492 588 m 2
 481 494 l 2
 445 218 438 80 533 80 c 0
 587 80 601 105 630 105 c 0
 650 105 662 95 662 73 c 0
 662 39 643 23 578 5 c 0
 517 -12 449 -15 358 -15 c 0
 272 -15 180 -3 133 8 c 0
 81 20 65 40 65 65 c 0
 65 88 77 104 95 104 c 0
 126 104 140 79 197 79 c 0
 257 79 279 176 328 581 c 2
 366 898 l 2
 407 1240 397 1333 326 1333 c 0
 278 1333 253 1322 221 1322 c 4
 197 1322 182 1331 182 1355 c 4
 182 1389 236 1410 313 1410 c 0
 381 1410 440 1394 522 1394 c 0
 644 1394 708 1411 827 1411 c 0
 1104 1411 1272 1336 1272 1066 c 0
 1272 881 1183 745 1052 670 c 0
 955 614 834 607 709 607 c 0
 568 607 525 618 508 618 c 0
 498 618 497 612 492 588 c 2
EndSplineSet
AlternateSubs2: "'swsh' Swash in Latin lookup 1-1" P.swsh
EndChar

StartChar: Q
Encoding: 81 81 17
Width: 1388
VWidth: 1920
Flags: HMW
AnchorPoint: "top" 836 1400 basechar 0
LayerCount: 2
Fore
SplineSet
755 -57 m 0
 900 -112 1005 -161 1146 -161 c 0
 1220.9051012 -161 1276.97237585 -133.467791957 1291.99999922 -94.4380270592 c 0
 1302.24710262 -67.8242354583 1290 -43.3775526339 1290 -26 c 4
 1290 -12 1298 0 1316 0 c 0
 1339 0 1358 -30 1358 -80 c 0
 1358 -189 1252 -345 1044 -345 c 0
 746 -345 448 -26 252 -26 c 0
 142 -26 165 -99 123 -99 c 0
 111 -99 104 -89 104 -72 c 0
 104 -2 205 51 300 56 c 0
 328.12109375 57.48046875 328.703125 59.86328125 308 76 c 0
 172 182 104 363 104 582 c 0
 104 1034 408 1425 834 1425 c 0
 1173 1425 1346 1181 1346 813 c 0
 1346 480 1103 64 754.078125 -13.7041015625 c 0
 720.931640625 -21.0849609375 717 -24 717 -29 c 0
 717 -42 717 -42 755 -57 c 0
630.561523438 53 m 0
 981 53 1160 502 1160 850 c 0
 1160 1222 1023 1351 836 1351 c 0
 462 1351 292 930 292 494 c 0
 292 217 423 53 630.561523438 53 c 0
EndSplineSet
EndChar

StartChar: R
Encoding: 82 82 18
Width: 1388
VWidth: 1920
Flags: HMW
AnchorPoint: "top" 766 1400 basechar 0
AnchorPoint: "bottom" 776 0 basechar 0
LayerCount: 2
Fore
SplineSet
508 648 m 2
 488 476 l 2
 465 241 443.630859375 130.606445312 479 99 c 0
 526 57 592 109 630 109 c 0
 650 109 660 97 660 76 c 0
 660 42 635 23 570 5 c 0
 509 -12 435 -15 344 -15 c 0
 258 -15 159 -14 112 -3 c 0
 60 9 42 33 42 58 c 0
 42 77 56 88 72 88 c 0
 105 88 119 69 196 69 c 0
 256 69 273 186 327 591 c 6
 366 869 l 6
 413.802734375 1209.74707031 391 1340 333 1340 c 0
 285 1340 266 1319 244 1319 c 0
 222 1319 209 1329 209 1353 c 0
 209 1397 274 1409 311 1409 c 0
 379 1409 469 1392 551 1392 c 0
 653 1392 696 1407 785 1407 c 0
 1042 1407 1205 1325 1205 1075 c 0
 1205 918 1091 801 970 734 c 0
 953 724 926 717 926 709 c 0
 926 702 944.919921875 695.911132812 960 688 c 0
 1021 656 1073 608 1112 506 c 0
 1187 309 1130 94 1256 94 c 0
 1306 94 1300 125 1330 125 c 0
 1343 125 1350 117 1350 106 c 0
 1350 43 1274 -15 1184 -15 c 0
 1095 -15 1038 13 993 94 c 0
 919 226 973 404 878 572 c 0
 826 664 770 671 698 671 c 0
 627 671 541 677 524 677 c 0
 514 677 508 673 508 648 c 2
723 750 m 0
 889 750 1001 812 1001 1072 c 0
 1001 1242 929 1340 757 1340 c 0
 632 1340 581 1310 579 1291 c 0
 573 1240 568.631835938 1208.140625 561 1134 c 2
 535 898 l 2
 530 846 527 803 527 780 c 0
 527 756 605 750 723 750 c 0
EndSplineSet
AlternateSubs2: "'swsh' Swash in Latin lookup 1-1" R.swsh
EndChar

StartChar: S
Encoding: 83 83 19
Width: 1063
VWidth: 1920
Flags: HMW
AnchorPoint: "top" 686 1400 basechar 0
AnchorPoint: "bottom" 546 0 basechar 0
LayerCount: 2
Fore
SplineSet
247 378 m 0
 247 350 240 326 240 295 c 0
 240 261 244 216 263 186 c 0
 315 103 400 51 532 51 c 256
 750 51 860 171 860 332 c 256
 860 478 767 531 548 643 c 0
 371 734 242 848 242 1033 c 256
 242 1253 414 1435 702 1435 c 256
 886 1435 904 1345 942 1345 c 0
 959 1345 980 1385 1006 1385 c 0
 1041 1385 1056 1352 1056 1285 c 0
 1056 1238 1042 1148 1023 1105 c 0
 1004 1063 989 1043 948 1043 c 0
 916 1043 906 1057 906 1081 c 0
 906 1118 919 1200 897 1239 c 0
 852 1321 773 1362 692 1362 c 256
 485 1362 397 1228 397 1108 c 256
 397 958 556 882 698 804 c 0
 912 687 1022 607 1022 418 c 256
 1022 269 956 141 832 51 c 0
 742 -14 620 -35 482 -35 c 256
 305 -35 193 28 112 128 c 0
 102 140 100 159 100 195 c 0
 100 356 121 431 195 431 c 0
 231 431 247 416 247 378 c 0
EndSplineSet
EndChar

StartChar: T
Encoding: 84 84 20
Width: 1333
VWidth: 1920
Flags: HMW
AnchorPoint: "top" 650 1400 basechar 0
AnchorPoint: "bottom" 650 0 basechar 0
LayerCount: 2
Fore
SplineSet
619 591 m 2
 656 901 l 2
 699.334960938 1264.07910156 691 1320 651 1324 c 0
 586 1330 470 1328 418 1319 c 0
 368 1310 329 1266 304 1229 c 0
 282 1196 271 1152 271 1094 c 0
 271 1072 249 1065 233 1065 c 0
 195 1065 157 1093 157 1148 c 0
 157 1278 253 1440 296 1440 c 0
 353 1440 333 1400 486 1400 c 2
 1118 1400 l 2
 1271 1400 1246 1433 1303 1433 c 0
 1346 1433 1374 1328 1374 1238 c 0
 1374 1171 1365 1114 1346 1084 c 0
 1329 1058 1311 1052 1284 1052 c 0
 1256 1052 1245 1070 1245 1091 c 0
 1245 1110 1250 1132 1250 1156 c 0
 1250 1243 1207 1293 1156 1307 c 0
 1100 1323 969 1320 905 1315 c 0
 857 1311 849.659179688 1171.03515625 821 894 c 2
 791 604 l 2
 764.808204274 350.812641314 745.365199551 155.808145193 773 103 c 0
 785.044221964 79.9843453957 805.155913307 69.5956139074 856 77.1009633969 c 0
 901.812998399 83.8636488244 911.308570061 105 944 105 c 0
 959 105 974 97 974 74 c 0
 974 40 928 11 882 2 c 0
 825 -9 743 -15 652 -15 c 0
 566 -15 495 -12 448 -3 c 0
 399 6 314 13 314 66 c 0
 314 83 330 96 348 96 c 0
 364.962139433 96 386.82058555 84.0426063272 424 77.7523459316 c 0
 458 72 516.251308148 66.5030919863 539 121 c 0
 563.179797709 178.925274127 585.600585938 311.166992188 619 591 c 2
EndSplineSet
AlternateSubs2: "'swsh' Swash in Latin lookup 1-1" T.swsh
EndChar

StartChar: U
Encoding: 85 85 21
Width: 1456
VWidth: 1920
Flags: HMW
AnchorPoint: "ogonek" 862 0 basechar 0
AnchorPoint: "top" 886 1400 basechar 0
AnchorPoint: "bottom" 767 0 basechar 0
LayerCount: 2
Fore
SplineSet
1357 899 m 2
 1337 634 l 18
 1324 453 1296 273 1209 154 c 0
 1114 24 951 -35 754 -35 c 0
 562 -35 407 4 319 100 c 0
 239 187 215 321 234 478 c 2
 287 911 l 2
 329 1252 339 1333 255 1333 c 0
 220 1333 187 1314 167 1314 c 0
 147 1314 135 1328 135 1348 c 0
 135 1374 153 1387 199 1397 c 0
 261 1410 348 1415 439 1415 c 0
 525 1415 573 1412 619 1405 c 0
 672 1397 701 1380 701 1349 c 0
 701 1332 689 1310 661 1310 c 0
 638 1310 616 1330 579 1330 c 0
 519 1330 497 1293 451 887 c 2
 414 558 l 2
 397 407 396 274 458 196 c 0
 529 107 647 70 812 70 c 0
 932 70 1058 102 1138 196 c 0
 1222 295 1251 460 1263 638 c 2
 1281 902 l 2
 1305 1265 1306 1338 1223 1338 c 0
 1178 1338 1157 1311 1128 1311 c 0
 1101 1311 1089 1328 1089 1348 c 0
 1089 1383 1171 1415 1337 1415 c 0
 1500 1415 1587 1400 1587 1355 c 0
 1587 1334 1573 1320 1551 1320 c 0
 1528 1320 1518 1340 1471 1340 c 0
 1401 1340 1384 1269 1357 899 c 2
EndSplineSet
EndChar

StartChar: V
Encoding: 86 86 22
Width: 1542
VWidth: 1920
Flags: HMW
AnchorPoint: "top" 926 1400 basechar 0
AnchorPoint: "bottom" 727 0 basechar 0
LayerCount: 2
Fore
SplineSet
1249 1140 m 4
 1278 1219 1284 1261 1284 1282 c 4
 1284 1318 1256 1330 1222 1330 c 4
 1178 1330 1157 1318 1128 1318 c 4
 1106 1318 1098 1327 1098 1344 c 4
 1098 1398 1223 1415 1366 1415 c 4
 1557 1415 1613 1402 1613 1354 c 4
 1613 1331 1602 1320 1579 1320 c 4
 1556 1320 1520 1334 1488 1334 c 4
 1424 1334 1423.81460156 1267.64875522 1291 991 c 6
 1062 514 l 6
 980.500800086 344.23965782 888 157 841 85 c 4
 790 7 766 -46 731 -46 c 4
 682 -46 655 24 612 164 c 4
 511 492 448 821 396 1143 c 4
 379 1247 376 1325 307 1325 c 4
 282 1325 239 1315 210 1315 c 4
 188 1315 179 1328 179 1347 c 4
 179 1372 199 1382 226 1392 c 4
 279.088867188 1411.66210938 420 1415 513 1415 c 4
 730 1415 770 1392 770 1354 c 4
 770 1323 748 1318 726 1318 c 4
 701 1318 651 1324 625 1324 c 4
 591 1324 571 1303 571 1275 c 4
 571 1243 580 1193 584 1163 c 4
 620 865 659 658 724 424 c 4
 737 377 779 235 801 235 c 4
 828 235 884.919749191 343.532671902 911 396 c 4
 1081 738 1196 996 1249 1140 c 4
EndSplineSet
EndChar

StartChar: W
Encoding: 87 87 23
Width: 1853
VWidth: 1920
Flags: HMW
AnchorPoint: "top" 1054 1400 basechar 0
AnchorPoint: "bottom" 878 0 basechar 0
LayerCount: 2
Fore
SplineSet
1680 1067 m 0
 1708 1146 1736 1216 1736 1257 c 0
 1736 1293 1724 1323 1690 1323 c 0
 1656 1323 1620 1309 1591 1309 c 0
 1561 1309 1549 1321 1549 1341 c 0
 1549 1381 1613 1415 1816 1415 c 0
 2047 1415 2064 1389 2064 1351 c 0
 2064 1328 2049 1318 2026 1318 c 0
 2003 1318 1960 1332 1928 1332 c 0
 1864 1332 1851.8515625 1245.23144531 1745 988 c 0
 1572.37455249 572.426354454 1416 286 1310 85 c 0
 1266.59054734 2.68584921058 1236 -46 1192 -46 c 0
 1153 -46 1129 21 1098 164 c 0
 1063 324 1033 584 1011 746 c 0
 1005 791 999 799 991 799 c 0
 983 799 972 775 953 730 c 0
 856 494 730 223 658 85 c 0
 615 3 591 -46 546 -46 c 0
 499 -46 476 22 442 164 c 0
 364 492 325 822 283 1144 c 0
 269 1249 257 1323 188 1323 c 0
 163 1323 109 1313 90 1313 c 0
 76 1313 60 1322 60 1346 c 0
 60 1364 70 1381 96 1390 c 0
 150.095810106 1408.72547273 271 1415 364 1415 c 0
 480 1415 561 1404 604 1378 c 0
 621 1368 632 1359 632 1339 c 0
 632 1324 621 1317 602 1317 c 0
 577 1317 528 1324 502 1324 c 0
 468 1324 455 1311 455 1283 c 0
 455 1251 462 1164 466 1134 c 0
 501 856 537 587 590 353 c 0
 601 306 611 244 633 244 c 0
 651 244 669.833984375 282.51171875 694 336 c 0
 769 502 890 758 943 882 c 0
 956 911 968 936 968 951 c 0
 968 987 960 1093 943 1184 c 0
 925 1282 922 1325 873 1325 c 0
 848 1325 793 1310 774 1310 c 0
 752 1310 740 1322 740 1343 c 0
 740 1368 760 1380 796 1393 c 0
 850 1412 961 1415 1054 1415 c 0
 1170 1415 1221 1409 1264 1393 c 0
 1282 1386 1299 1372 1299 1352 c 0
 1299 1322 1281 1317 1262 1317 c 0
 1237 1317 1212 1328 1186 1328 c 0
 1152 1328 1128 1314 1128 1286 c 0
 1128 1254 1134 1190 1137 1159 c 0
 1161 881 1201 628 1238 394 c 0
 1246 346 1264 238 1286 238 c 0
 1304 238 1342.75097656 323.501953125 1369 376 c 0
 1530 698 1629 923 1680 1067 c 0
EndSplineSet
EndChar

StartChar: X
Encoding: 88 88 24
Width: 1370
VWidth: 1920
Flags: HMW
LayerCount: 2
Fore
SplineSet
794 968 m 10
 897 1115 l 2
 942.975562931 1180.61560923 981 1250 981 1291 c 0
 981 1307 977 1323 953 1323 c 0
 929 1323 895 1318 878 1318 c 0
 858 1318 838 1327 838 1350 c 0
 838 1379 847 1415 1110 1415 c 0
 1251 1415 1323 1389 1323 1351 c 0
 1323 1324 1312 1310 1280 1310 c 0
 1247 1310 1234 1321 1192 1321 c 0
 1128 1321 1103.34667969 1246.97460938 933 1023 c 2
 825 881 l 2
 814 867 797 847 797 825 c 0
 797 807 813 782 819 770 c 2
 1074 251 l 2
 1115 168 1156 88 1188 81 c 0
 1224 73 1251 92 1282 89 c 0
 1304 87 1323 74 1323 50.2880859375 c 0
 1323 20 1292 11 1254 2 c 0
 1223 -5 1131 -15 1038 -15 c 0
 789 -15 738 -3 738 40 c 0
 738 69 758 77 777 77 c 0
 802 77 831 65 857 65 c 0
 881 65 902 76 902 104 c 0
 902 136 870 195 859 219 c 2
 705 559 l 2
 690.383789062 591.174804688 680 639 664 639 c 0
 653 639 634.106445312 601.934570312 617 574 c 2
 429 267 l 2
 390.85072243 204.703041415 346 110 346 89 c 0
 346 69 358 59 382 59 c 0
 406 59 449 73 468 73 c 0
 490 73 501 61 501 43 c 0
 501 2 463 -15 260 -15 c 0
 9 -15 -12 9 -12 41 c 0
 -12 64 6 77 38 77 c 0
 61 77 85 68 127 68 c 0
 181 68 218.969802847 106.019481195 362 324 c 2
 591 673 l 2
 602.108398438 689.928710938 613 710 613 728 c 0
 613 751 600.483398438 775.231445312 593 790 c 2
 410 1149 l 2
 365.069335938 1237.59960938 332 1320 273 1320 c 0
 238 1320 203 1307 174 1307 c 0
 150 1307 135 1315 135 1336 c 0
 135 1372 163 1386 200 1396 c 0
 254 1411 345 1415 438 1415 c 0
 690 1415 733 1405 733 1361 c 0
 733 1327 707 1324 688 1324 c 0
 664 1324 647 1329 630 1329 c 0
 606 1329 590 1320 590 1292 c 0
 590 1260 606.799804688 1208.40039062 635 1152 c 2
 727 968 l 2
 738 945 747 930 757 930 c 0
 768 930 783.987437632 953.710226523 794 968 c 10
EndSplineSet
EndChar

StartChar: Y
Encoding: 89 89 25
Width: 1333
VWidth: 1920
Flags: HMW
AnchorPoint: "top" 836 1400 basechar 0
LayerCount: 2
Fore
SplineSet
844 850 m 10
 1000 1080 l 2
 1051.82324219 1156.40625 1088 1274 1088 1305 c 0
 1088 1319 1076 1323 1062 1323 c 0
 1038 1323 1010 1314 991 1314 c 0
 969 1314 954 1324 954 1343 c 0
 954 1377 1011 1415 1184 1415 c 0
 1375 1415 1428 1384 1428 1346 c 0
 1428 1324 1420 1316 1400 1316 c 0
 1377 1316 1362 1327 1330 1327 c 0
 1257 1327 1206.07910156 1241.70117188 1108 1103 c 2
 840 724 l 2
 819 690 809 677 796 594 c 0
 766 397 754 252 754 170 c 0
 754 90 785 70 816 70 c 0
 860 70 881 90 910 90 c 0
 934 90 944 78 944 64 c 0
 944 30 890 6 844 -3 c 0
 787 -14 735 -15 644 -15 c 0
 558 -15 485 -12 438 -5 c 0
 379 4 336 8 336 50 c 0
 336 69 348 81 376 81 c 0
 399 81 441 70 478 70 c 0
 517 70 538 76 548 102 c 0
 571 160 617 385 649 650 c 0
 655 699 644 716 631 743 c 2
 408 1139 l 2
 362.403320312 1219.96972656 316 1330 267 1330 c 0
 232 1330 219 1316 180 1316 c 0
 168 1316 150 1328 150 1348 c 0
 150 1371 167 1386 204 1396 c 0
 258 1410 367 1415 460 1415 c 0
 576 1415 649 1414 692 1398 c 0
 710 1391 728 1382 728 1358 c 0
 728 1337 710 1329 682 1329 c 0
 647 1329 585 1336 569 1336 c 0
 552 1336 537 1334 537 1318 c 0
 537 1270 589.534179688 1171.2734375 601 1149 c 2
 758 844 l 2
 765.60546875 828.29296875 782 787 794 787 c 0
 808 787 827.249023438 824.133789062 844 850 c 10
EndSplineSet
AlternateSubs2: "'swsh' Swash in Latin lookup 1-1" Y.swsh
EndChar

StartChar: Z
Encoding: 90 90 26
Width: 1163
VWidth: 1920
Flags: HMW
AnchorPoint: "top" 654 1400 basechar 0
LayerCount: 2
Fore
SplineSet
458 0 m 4
 372.014211353 -1.56337797541 204 -13 120 -13 c 0
 87 -13 72 10 72 31 c 0
 72 44 81.712298297 59.1954671866 104 92 c 2
 886 1243 l 2
 895.665933147 1257.2269681 898 1268 898 1278 c 0
 898 1306 824 1302 720 1297 c 0
 538 1289 464 1286 380 1271 c 0
 323 1261 289 1235 263 1190 c 0
 231 1137 262 1076 188 1076 c 0
 158 1076 146 1098 146 1146 c 0
 146 1229 222 1417 278 1417 c 0
 332 1417 364 1394 412 1394 c 0
 558 1394 619 1396 794 1400 c 0
 879.977539062 1401.96484375 1048 1411 1132 1411 c 0
 1165 1411 1179 1396 1179 1372 c 4
 1179 1358 1174.78933796 1345.14103645 1168 1335 c 2
 378 155 l 2
 370.748375899 144.168460203 368 136 368 126 c 0
 368 98 470 95 574 95 c 0
 756 95 821 98 866 106 c 0
 915 115 961 134 980 172 c 0
 1043 297 1012 352 1074 352 c 0
 1099 352 1126 328 1126 280 c 0
 1126 197 1070 -16 1014 -16 c 0
 960 -16 930 8 882 8 c 0
 796 8 733 5 458 0 c 4
EndSplineSet
EndChar

StartChar: a
Encoding: 97 97 27
Width: 924
VWidth: 1920
Flags: HMW
AnchorPoint: "ogonek" 699 0 basechar 0
AnchorPoint: "top" 564 880 basechar 0
LayerCount: 2
Fore
SplineSet
934 188 m 4
 934 108 789 -24 681 -24 c 4
 601 -24 599 49 599 94 c 4
 599 124 601 167 601 186 c 4
 601 200 598 205 594 205 c 4
 590 205 586 194 578 184 c 4
 536 126 408 -25 269 -25 c 4
 125 -25 50 60 50 228 c 4
 50 605 306 855 488 855 c 4
 563 855 602 758 619 724 c 4
 628 706 630 704 637 704 c 4
 645 704 648 741 648 765 c 4
 649 809 658 827 681 827 c 4
 743 827 779 837 796 837 c 4
 812 837 816 828 816 820 c 4
 816 798 807 780 793 727 c 4
 763 613 723 356 723 216 c 4
 723 151 728 84 767 84 c 4
 816 84 855 135 868 212 c 4
 870 226 879 236 890 236 c 4
 898 236 911 229 921 219 c 4
 931 209 934 201 934 188 c 4
460 785 m 4
 339 785 204 459 204 243 c 4
 204 163 263 84 346 84 c 4
 477 84 612 321 612 510 c 4
 612 633 560 785 460 785 c 4
EndSplineSet
EndChar

StartChar: l
Encoding: 108 108 28
Width: 569
VWidth: 1920
Flags: HMW
AnchorPoint: "top" 264 1405 basechar 0
LayerCount: 2
Fore
SplineSet
168 591 m 2
 206 901 l 2
 250 1264 239 1318 194 1318 c 0
 149 1318 104 1290 74 1290 c 0
 48 1290 38 1308 38 1327 c 0
 38 1351 56 1362 104 1376 c 0
 185 1399 291 1431 372 1431 c 0
 398 1431 416 1422 416 1395 c 0
 416 1339 398 1316 378 1164 c 2
 306 604 l 2
 291 490 262 272 262 170 c 0
 262 118 283 99 318 99 c 0
 370.703534511 99 435.810710374 189.883865125 476.865301368 320.999992032 c 4
 490.689735306 365.151113521 484.936792727 390 514 390 c 4
 538 390 556 373 556 353 c 0
 556 272 491 115 338 9 c 0
 305 -14 274 -30 236 -30 c 0
 197 -30 164 -3 128 33 c 0
 110 51 102 85 102 105 c 0
 102 191 128 265 168 591 c 2
EndSplineSet
EndChar

StartChar: v
Encoding: 118 118 29
Width: 917
VWidth: 1920
Flags: HMW
LayerCount: 2
Fore
SplineSet
482 -22 m 0
 319 -22 225 109 225 291 c 0
 225 372 254 466 274 561 c 4
 283 601 297 650 297 674 c 4
 297 690 176 726 152 726 c 0
 137 726 132 717 132 705 c 0
 132 686 157 642 157 623 c 0
 157 590 135 564 109 564 c 0
 70 564 50 593 50 647 c 0
 50 684 69 724 96 762 c 0
 130 810 167 842 228 842 c 0
 268 842 334 833 396 818 c 0
 428 811 459 802 459 785 c 0
 459 763 437 707 422 636 c 0
 397 520 355 379 355 294 c 0
 355 150 445 81 570 81 c 0
 693 81 785 304 785 477 c 0
 785 548 767 617 751 656 c 0
 727 716 692 751 692 770 c 0
 692 789 706 801 762 825 c 0
 804 843 818 850 830 850 c 0
 841 850 863 837 872 811 c 0
 891 757 897 655 897 575 c 0
 897 365 760 -22 482 -22 c 0
EndSplineSet
EndChar

StartChar: paragraph
Encoding: 182 182 32
Width: 1727
Flags: HMW
LayerCount: 2
Fore
SplineSet
108 708 m 4
 177 1272 633 1480 1047 1480 c 4
 1311 1480 1467 1401 1530 1347 c 4
 1575 1309 1582 1274 1572 1190 c 4
 1562 1110 1428 188 1408 28 c 4
 1389 -128 1405 -208 1457 -208 c 20
 1509 -208 1584 -162 1616 -162 c 20
 1648 -162 1672 -174 1667 -215 c 4
 1658 -286 1405 -356 1333 -356 c 20
 1261 -356 1227 -284 1235 -215 c 20
 1243 -146 1415 928 1428 1036 c 20
 1441 1144 1419 1192 1378 1248 c 20
 1337 1304 1228 1376 1030 1376 c 4
 782 1376 544 1226 485 746 c 4
 425 256 631 90 825 90 c 4
 1037 90 1084 272 1100 400 c 4
 1143 748 1123 923 1132 1000 c 4
 1140 1068 1166 1100 1208 1100 c 4
 1260 1100 1289 1056 1280 982 c 4
 1268 888 1207 360 1198 288 c 4
 1188 210 1170 144 1141 118 c 4
 1099 81 992 -22 710 -22 c 4
 398 -22 51 244 108 708 c 4
EndSplineSet
EndChar

StartChar: b
Encoding: 98 98 33
Width: 847
VWidth: 1920
Flags: HMW
LayerCount: 2
Fore
SplineSet
173 603 m 6
 201 879 l 6
 222 1082 224 1258 212 1300 c 4
 207 1317 193 1325 158 1325 c 4
 129 1325 83 1309 53 1309 c 4
 33 1309 20 1323 20 1343 c 4
 20 1364 37 1376 85 1391 c 4
 142 1409 241 1435 322 1435 c 4
 375 1435 402 1414 402 1387 c 4
 402 1321 367 1206 341 884 c 6
 331 758 l 6
 326 694 332 662 346 662 c 4
 359 662 379 688 413 726 c 4
 463 781 513 850 599 850 c 4
 701 850 837 684 837 527 c 4
 837 382 781 192 686 93 c 4
 616 20 507 -29 401 -29 c 4
 317 -29 244 2 185 54 c 4
 136 97 129 122 129 175 c 4
 129 230 148 357 173 603 c 6
456 50 m 4
 493 50 527 57 556 84 c 4
 636 158 683 329 683 465 c 4
 683 650 605 700 543 700 c 4
 465 700 391 643 343 540 c 4
 296 439 275 316 275 153 c 4
 275 138 279 110 296 96 c 4
 333 66 378 50 456 50 c 4
EndSplineSet
EndChar

StartChar: o
Encoding: 111 111 34
Width: 759
VWidth: 1920
Flags: HMW
AnchorPoint: "bottom" 380 0 basechar 0
AnchorPoint: "top" 466 880 basechar 0
LayerCount: 2
Fore
SplineSet
50 271 m 256
 50 459 116 644 232 754 c 0
 302 820 397 855 499 855 c 256
 631 855 749 763 749 546 c 256
 749 265 579 -25 319 -25 c 256
 167 -25 50 97 50 271 c 256
376 49 m 256
 543 49 597 349 597 514 c 256
 597 719 505 784 438 784 c 256
 389 784 338 765 306 719 c 0
 234 616 201 438 201 293 c 256
 201 224 203 162 225 124 c 0
 257 70 321 49 376 49 c 256
EndSplineSet
EndChar

StartChar: n
Encoding: 110 110 35
Width: 1031
VWidth: 1920
Flags: HMW
AnchorPoint: "bottom" 512 0 basechar 0
AnchorPoint: "top" 500 880 basechar 0
LayerCount: 2
Fore
SplineSet
637 844 m 4
 696 844 807 784 848 716 c 4
 869 681 878 642 878 593 c 4
 878 467 815 231 815 97 c 4
 815 54 849 17 879 17 c 4
 923 17 959 90 959 146 c 4
 959 179 970 192 986 192 c 4
 992 192 1001 190 1007 188 c 4
 1027 182 1041 166 1041 146 c 4
 1041 103 1020 45 973 -5 c 4
 921 -61 873 -93 801 -93 c 4
 732 -93 660 -30 660 57 c 4
 660 176 722 370 722 587 c 4
 722 663 687 720 602 720 c 4
 528 720 485 588 445 472 c 4
 415 385 386 237 371 59 c 4
 369 32 373 -2 343 -2 c 4
 333 -2 295 -2 280 -2 c 4
 261 -2 243 -5 235 -5 c 4
 214 -5 198 3 198 21 c 4
 198 68 270 226 270 504 c 4
 270 602 257 729 176 729 c 4
 135 729 98 683 98 650 c 4
 98 623 105 622 105 578 c 4
 105 548 85 534 64 534 c 4
 38 534 20 551 20 577 c 4
 20 649 38 701 76 751 c 4
 121 811 225 843 267 843 c 4
 299 843 321 823 343 793 c 4
 373 754 384 637 389 604 c 4
 392 585 399 574 409 574 c 4
 423 574 433 596 435 602 c 4
 477 727 524 844 637 844 c 4
EndSplineSet
EndChar

StartChar: d
Encoding: 100 100 36
Width: 945
VWidth: 1920
Flags: HMW
LayerCount: 2
Fore
SplineSet
358 83 m 4
 497 83 613 340 613 535 c 4
 613 622 580 789 476 789 c 4
 323 789 203 458 203 244 c 4
 203 156 248 83 358 83 c 4
50 186 m 4
 50 470 196 855 513 855 c 4
 571 855 599 824 617 787 c 4
 629 761 636 750 641 750 c 4
 648 750 648 755 650 773 c 6
 663 883 l 6
 692 1127 705 1251 693 1293 c 4
 688 1310 672 1317 653 1317 c 4
 624 1317 574 1294 544 1294 c 4
 524 1294 511 1308 511 1328 c 4
 511 1349 536 1367 586 1376 c 4
 653 1388 821 1420 852 1420 c 4
 865 1420 874 1410 874 1383 c 4
 874 1307 835 1217 797 894 c 6
 763 604 l 6
 732 352 731 244 731 197 c 4
 731 159 744 93 776 93 c 4
 820 93 864 141 881 193 c 4
 886 208 886 214 888 226 c 4
 890 240 896 257 913 257 c 4
 930 257 955 239 955 206 c 4
 955 171 916 99 855 47 c 4
 813 12 761 -13 706 -13 c 4
 649 -13 598 19 598 100 c 4
 598 169 616 230 607 230 c 4
 600 230 561 161 527 123 c 4
 469 57 375 -25 284 -25 c 4
 180 -25 50 82 50 186 c 4
EndSplineSet
EndChar

StartChar: c
Encoding: 99 99 37
Width: 699
VWidth: 1920
Flags: HMW
AnchorPoint: "top" 328 830 basechar 0
AnchorPoint: "bottom" 379 0 basechar 0
LayerCount: 2
Fore
SplineSet
473 855 m 0
 551 855 615 812 615 727 c 0
 615 691 590 636 542 636 c 0
 482 636 457 670 447 703 c 0
 437 734 427 760 400 760 c 0
 351 760 293 700 252 615 c 0
 211 530 198 406 198 308 c 0
 198 190 254 77 389 77 c 4
 483 77 569 128 606 209 c 4
 619 238 626 250 640 250 c 4
 659 250 679 234 679 214 c 4
 679 133 534 -25 324 -25 c 4
 140 -25 50 98 50 282 c 0
 50 435 119 616 224 729 c 0
 294 804 388 855 473 855 c 0
EndSplineSet
EndChar

StartChar: e
Encoding: 101 101 38
Width: 656
VWidth: 1920
Flags: HMW
AnchorPoint: "ogonek" 412 0 basechar 0
AnchorPoint: "bottom" 338 -11 basechar 0
AnchorPoint: "top" 417 880 basechar 0
LayerCount: 2
Fore
SplineSet
444 855 m 0
 476 855 505 844 528 824 c 0
 569 788 597 735 597 656 c 0
 597 593 550 487 486 424 c 0
 416 355 347 316 258 316 c 0
 206 316 194 313 194 283 c 0
 194 220 214 140 256 95 c 0
 287 62 333 50 387 50 c 0
 474 50 555 84 591 175 c 0
 604 207 611 216 624 216 c 0
 636 216 644 213 650 210 c 0
 662 204 666 196 666 182 c 0
 666 162.873359297 648.44023754 128.089263734 615.000008957 92.4255210758 c 4
 561.02230278 34.8587189365 465.668109047 -25 336 -25 c 0
 202 -25 50 62 50 236 c 0
 50 317 59 406 86 491 c 0
 148 684 279 855 444 855 c 0
222 402 m 0
 249 383 268 382 302 382 c 0
 359 382 417 445 449 532 c 0
 461 563 475 597 475 633 c 0
 475 679 452 705 414 730 c 0
 395 743 370 754 346 754 c 0
 303 754 273 708 248 646 c 0
 224 584 205 507 205 438 c 0
 205 415 205 413 222 402 c 0
EndSplineSet
EndChar

StartChar: f
Encoding: 102 102 39
Width: 524
VWidth: 1920
Flags: HMW
LayerCount: 2
Fore
SplineSet
201 757 m 0
 154 757 137 749 113 749 c 0
 95 749 89 753 89 781 c 0
 89 803 103 850 129 850 c 0
 154 850 162 840 209 840 c 0
 219 840 223 840 222 869 c 0
 219 953 209 999 209 1082 c 0
 209 1297 354 1420 461 1420 c 0
 519 1420 579 1381 579 1331 c 0
 579 1278 538 1252 497 1252 c 0
 434 1252 421 1315 363 1315 c 0
 335 1315 310 1240 310 1203 c 0
 310 1090 347 1031 359 861 c 0
 361 831 369 835 384 834 c 0
 418 831 442 830 476 830 c 0
 523 830 523 841 537 841 c 0
 550 841 554 832 554 820 c 0
 554 794.163224075 547.04936495 770.550651366 534.174277709 754.000001065 c 4
 522.631485697 739.161987893 506.326910923 730 486 730 c 0
 453 730 408 742 375 742 c 0
 366 742 363 728 361 712 c 2
 326 363 l 2
 303 139 280 -58 257 -269 c 0
 253 -306 246 -337 218 -351 c 0
 198 -361 169 -365 124 -365 c 0
 36 -365 20 -351 20 -314 c 0
 20 -295 34 -286 50 -286 c 0
 60 -286 63 -289 69 -289 c 0
 80 -289 101 -284 107 -249 c 0
 139 -44 169 100 203 496 c 2
 223 726 l 2
 225 749 225 757 201 757 c 0
EndSplineSet
EndChar

StartChar: g
Encoding: 103 103 40
Width: 850
VWidth: 1920
Flags: HMW
AnchorPoint: "top" 499 880 basechar 0
LayerCount: 2
Fore
SplineSet
432 318 m 0
 497 318 546 352 572 410 c 0
 597 467 601 548 601 630 c 0
 601 706 569 773 458 773 c 0
 362 773 341 730 308 626 c 0
 288 565 279 496 279 450 c 0
 279 392 354 318 432 318 c 0
138 451 m 0
 138 506 157 581 178 644 c 0
 209 738 357 845 511 845 c 0
 579 845 598 838 626 823 c 0
 642 814 646 810 659 810 c 0
 668 810 711 819 730 822 c 0
 798 832 833 844 853 844 c 0
 865 844 870 838 870 830 c 0
 870 814 860 792 854 765 c 0
 846 728 853 706 834 706 c 0
 795 706 747 722 717 722 c 0
 704 722 708 714 710 711 c 0
 727 675 736 597 736 541 c 0
 736 390 590 256 410 256 c 0
 359 256 324 265 312 265 c 0
 306 265 299 264 288 246 c 0
 275 225 264 208 264 185 c 0
 264 169 275 153 328 133 c 0
 438 91 592 81 718 41 c 0
 807 13 827 -27 827 -63 c 0
 827 -126 795 -219 707 -271 c 0
 650 -305 562 -318 464 -318 c 0
 214 -318 60 -229 60 -104 c 0
 60 -40 105 15 134 47 c 0
 139 52 140 52 140 56 c 0
 140 58 135 63 132 67 c 0
 116 84 111 99 111 115 c 0
 111 174 187 207 233 279 c 0
 240 290 247 295 247 300 c 0
 247 304 240 306 227 316 c 0
 186 346 138 404 138 451 c 0
161 -62 m 0
 161 -180 315 -259 484 -259 c 0
 647 -259 698 -228 698 -137 c 0
 698 -118 687 -94 630 -76 c 0
 540 -47 424 -39 338 -19 c 0
 298 -10 243 3 206 17 c 0
 196 21 192 23 189 23 c 0
 186 23 182 19 179 12 c 0
 167 -12 161 -36 161 -62 c 0
EndSplineSet
EndChar

StartChar: i
Encoding: 105 105 41
Width: 541
VWidth: 1920
Flags: HMW
AnchorPoint: "ogonek" 356 10 basechar 0
LayerCount: 2
Fore
SplineSet
255 1130 m 0
 255 1197 301 1239 358 1239 c 0
 415 1239 452 1203 452 1146 c 0
 452 1080 405 1034 348 1034 c 0
 291 1034 255 1074 255 1130 c 0
210 435 m 4
 236 555 250 644 250 688 c 4
 250 731 237 745 213 745 c 4
 195 745 177 741 160 726 c 4
 134 703 110 667 110 643 c 4
 110 620 113 588 106 570 c 4
 100 555 88 552 79 552 c 4
 53 552 40 570 40 597 c 4
 40 719.371066815 135.763110309 802.768774783 227.999997446 837.222646903 c 4
 259.377702256 848.943374504 290.347329363 855 317 855 c 4
 358 855 395 805 395 758 c 4
 395 704 386 679 348 429 c 4
 332 323 310 202 310 143 c 4
 310 99 325 75 370 75 c 4
 432 75 477 174 480 218 c 4
 482 249 494 267 511 267 c 4
 530 267 551 251 551 226 c 4
 551 190 529 96 446 30 c 4
 412 3 368 -25 310 -25 c 4
 221 -25 162 39 162 121 c 4
 162 198 174 271 210 435 c 4
EndSplineSet
EndChar

StartChar: h
Encoding: 104 104 42
Width: 875
VWidth: 1920
Flags: HMW
AnchorPoint: "top" 271 1400 basechar 0
LayerCount: 2
Fore
SplineSet
111 401 m 2
 194 1049 l 2
 225 1292 205 1321 150 1321 c 0
 115 1321 97 1302 58 1302 c 0
 38 1302 20 1314 20 1334 c 0
 20 1369 63 1383 118 1394 c 0
 208 1411 305 1424 345 1420 c 0
 377 1417 397 1397 397 1370 c 0
 397 1321 290 732 278 654 c 0
 275 635 279 616 286 616 c 0
 295 616 307 636 319 660 c 0
 366 754 455 848 551 848 c 0
 632 848 775 803 775 601 c 0
 775 485 669 211 669 77 c 0
 669 50 685 31 705 31 c 0
 735 31 789 81 802 140 c 0
 811 184 823 192 835 192 c 0
 853 192 872 160 872 135 c 0
 872 102 853 49 797 -1 c 0
 740 -52 684 -82 600 -82 c 0
 550 -82 507 -49 507 8 c 0
 507 137 623 382 623 599 c 0
 623 655 575 729 500 729 c 0
 416 729 306 578 259 432 c 0
 231 344 225 267 209 39 c 0
 207 12 202 1 172 1 c 0
 153 1 136 2 118 2 c 0
 98 2 91 0 74 0 c 0
 44 0 37 5 37 22 c 0
 37 76 76 129 111 401 c 2
EndSplineSet
EndChar

StartChar: r
Encoding: 114 114 43
Width: 688
VWidth: 1920
Flags: HMW
AnchorPoint: "bottom" 257 0 basechar 0
AnchorPoint: "top" 393 880 basechar 0
LayerCount: 2
Fore
SplineSet
561 847 m 0
 620 847 698 794 698 726 c 0
 698 694 665 643 629 643 c 0
 565 643 550 690 522 690 c 0
 499 690 476 628 436 512 c 0
 406 425 368 264 368 59 c 0
 368 32 363 0 315 1 c 0
 280 2 253 -6 232 -7 c 0
 211 -8 197 6 197 24 c 0
 197 71 274 316 274 544 c 0
 274 632 257 730 176 730 c 0
 135 730 102 703 102 670 c 0
 102 643 107 632 107 608 c 0
 107 578 89 567 68 567 c 0
 42 567 30 581 30 607 c 0
 30 639 38 705 80 751 c 0
 138 814 219 859 251 859 c 0
 283 859 311 824 331 793 c 0
 375 727 378 617 383 584 c 0
 386 565 393 548 403 548 c 0
 411 548 419 576 421 582 c 0
 449 696 488 847 561 847 c 0
EndSplineSet
EndChar

StartChar: j
Encoding: 106 106 44
Width: 536
VWidth: 1920
Flags: HMW
LayerCount: 2
Fore
SplineSet
329 1130 m 0
 329 1197 375 1239 432 1239 c 0
 489 1239 526 1203 526 1146 c 0
 526 1080 479 1034 422 1034 c 0
 365 1034 329 1074 329 1130 c 0
289 505 m 2
 305 671 276 736 234 736 c 0
 214 736 174 660 168 592 c 0
 163 537 155 522 125 522 c 0
 101 522 84 540 84 570 c 0
 84 666 206 845 304 845 c 0
 365 845 443 761 443 704 c 0
 443 628 433 599 415 444 c 2
 381 154 l 2
 365 21 379 -119 350 -199 c 0
 316 -291 258 -355 178 -355 c 0
 91 -355 40 -306 40 -246 c 0
 40 -203 79 -177 122 -177 c 0
 147 -177 167.608703081 -188.575674757 180 -207 c 0
 193.54296875 -227.13671875 189 -281 219 -281 c 0
 233 -281 233 -268 233 -251 c 0
 233 -160 240 4 257 180 c 2
 289 505 l 2
EndSplineSet
EndChar

StartChar: k
Encoding: 107 107 45
Width: 905
VWidth: 1920
Flags: HMW
AnchorPoint: "bottom" 415 0 basechar 0
LayerCount: 2
Fore
SplineSet
313 452 m 4
 313 429 328 393 432 393 c 4
 617 393 655 534 655 597 c 4
 655 650 619 714 568 714 c 4
 496 714 313 537 313 452 c 4
179 591 m 6
 211 921 l 6
 224 1060 227 1153 227 1214 c 4
 227 1300 217 1323 185 1323 c 4
 130 1323 75 1309 55 1309 c 4
 35 1309 20 1319 20 1336 c 4
 20 1361 30 1374 77 1391 c 4
 146 1416 317 1434 348 1434 c 4
 377 1434 403 1418 403 1382 c 4
 403 1306 369 1197 340 894 c 6
 318 665 l 6
 316 643 311 590 318 590 c 4
 328 590 354 629 368 647 c 4
 453 757 531 851 615 851 c 4
 732 851 806 760 806 651 c 4
 806 537 726 397 606 354 c 4
 591 349 575 347 575 341 c 4
 575 333 597 319 607 305 c 4
 669 221 707 103 733 29 c 4
 739 11 746 -4 765 -4 c 4
 802 -4 839 96 853 147 c 4
 857 163 858 175 872 175 c 4
 901 175 915 170 915 139 c 4
 915 8 756 -122 672 -122 c 4
 633 -122 610 -98 598 -72 c 4
 577 -26 582 47 523 155 c 4
 469 254 421 320 394 320 c 4
 377 320 319 319 301 319 c 4
 278 319 277 304 271 270 c 4
 260 206 253 145 253 67 c 4
 253 16 234 3 206 2 c 4
 146 1 138 -12 107 -12 c 4
 89 -12 84 -3 84 16 c 4
 84 108 142 212 179 591 c 6
EndSplineSet
EndChar

StartChar: m
Encoding: 109 109 46
Width: 1512
VWidth: 1920
Flags: HMW
LayerCount: 2
Fore
SplineSet
446 632 m 4
 501 760 572 851 651 851 c 4
 726 851 783 801 835 660 c 4
 844 637 853 628 863 628 c 4
 874 628 884 637 888 650 c 4
 940 809 1033 856 1102 856 c 4
 1161 856 1265 802 1315 706 c 4
 1334 670 1342 628 1342 579 c 4
 1342 423 1283 250 1283 116 c 4
 1283 73 1308 54 1338 54 c 4
 1378 54 1420 84 1449 163 c 4
 1464 205 1456 233 1489 233 c 4
 1514 233 1522 203 1522 178 c 4
 1522 125 1469 64 1413 14 c 4
 1356 -37 1314 -64 1230 -64 c 4
 1180 -64 1137 -31 1137 26 c 4
 1137 155 1201 369 1201 586 c 4
 1201 642 1116 737 1041 737 c 4
 971 737 924 647 880 492 c 4
 855 403 845 337 829 109 c 4
 827 82 830 59 827 42 c 4
 822 18 803 0 775 0 c 4
 755 0 717 -3 700 -3 c 4
 670 -3 655 3 655 30 c 4
 655 84 724 328 724 524 c 4
 724 650 681 708 613 708 c 4
 529 708 462 588 430 472 c 4
 405 383 377 237 362 59 c 4
 360 32 356 1 326 1 c 4
 316 1 286 2 271 2 c 4
 252 2 233 0 225 0 c 4
 204 0 189 12 189 40 c 4
 189 68 280 346 280 544 c 4
 280 622 254 727 181 727 c 4
 153 727 134 722 117 707 c 4
 91 684 89 652 89 628 c 4
 89 595 95 582 95 557 c 4
 95 541 80 519 59 519 c 4
 33 519 20 534 20 571 c 4
 20 643 37 710 76 759 c 4
 125 821 201 850 254 850 c 4
 295 850 343 803 364 762 c 4
 378 735 385 700 395 634 c 4
 398 615 404 606 414 606 c 4
 438 606 443 626 446 632 c 4
EndSplineSet
EndChar

StartChar: p
Encoding: 112 112 47
Width: 915
VWidth: 1920
Flags: HMW
AnchorPoint: "top" 606 880 basechar 0
AnchorPoint: "bottom" 530 0 basechar 0
LayerCount: 2
Fore
SplineSet
237 194 m 6
 289 654 l 2
 293 687 293 706 270 691 c 0
 209 651 158 588 128 542 c 0
 119 528 114 510 103 510 c 0
 92 510 85 516 73 535 c 0
 64 549 58 566 58 573 c 0
 58 587 67 601 86 621 c 0
 174 714 215 740 282 781 c 0
 289 785 305 796 306 811 c 0
 314 968 310 1079 310 1095 c 0
 310 1129 323 1136 365 1138 c 0
 401 1140 437 1155 468 1155 c 0
 490 1155 497 1142 497 1130 c 0
 497 1114 467 1000 453 888 c 0
 448 848 447 839 453 840 c 0
 505 848 548 855 577 855 c 0
 779 855 905 705 905 458 c 0
 905 287 755 -20 545 -20 c 0
 488 -20 440 -11 399 12 c 0
 373 27 367 30 360 30 c 0
 348 30 348 -1 346 -23 c 0
 333 -149 328 -218 341 -250 c 4
 348 -267 364 -274 395 -274 c 4
 410 -274 430 -268 445 -268 c 4
 466 -268 477 -280 477 -299 c 4
 477 -327 441 -344 373 -344 c 4
 334 -344 252 -343 193 -335 c 4
 56 -317 20 -293 20 -257 c 4
 20 -232 37 -221 56 -221 c 4
 81 -221 104 -245 129 -245 c 4
 160 -245 167 -214 173 -189 c 4
 190 -121 216 13 237 194 c 6
549 49 m 0
 688 49 757 309 757 432 c 0
 757 520 740 621 695 679 c 0
 650 737 596 777 521 777 c 0
 438 777 437 762 434 735 c 2
 369 181 l 2
 368 169 368 148 382 128 c 0
 408 92 454 49 549 49 c 0
EndSplineSet
EndChar

StartChar: q
Encoding: 113 113 48
Width: 801
VWidth: 1920
Flags: HMW
AnchorPoint: "bottom" 244 0 basechar 0
LayerCount: 2
Fore
SplineSet
451 784 m 0
 409 784 354 769 322 694 c 0
 245.772889226 515.342709124 198 313 198 211 c 0
 198 180 212 145 245 116 c 0
 268 96 302 88 333 88 c 0
 466 88 595 391 595 615 c 0
 595 699 520 784 451 784 c 0
665 739 m 0
 671 739 683 784 692 805 c 0
 711 849 754 853 771 853 c 0
 791 853 797 850 797 831 c 0
 797 803 780 769 765 703 c 0
 749 634 735 529 722 423 c 2
 675 -13 l 2
 664 -102 655 -174 664 -208 c 0
 671 -236 698 -251 725 -251 c 0
 752 -251 776 -239 792 -239 c 0
 810 -239 821 -248 821 -267 c 0
 821 -290 805 -304 768 -312 c 0
 730 -320 683 -324 600 -324 c 0
 525 -324 467 -316 430 -300 c 0
 405 -289 388 -272 388 -253 c 0
 388 -235 401 -224 413 -224 c 0
 428 -224 448 -237 463 -237 c 0
 494 -237 500 -195 512 -132 c 0
 526 -60 539 40 539 119 c 0
 539 135 538 159 529 159 c 0
 524 159 517 147 494 121 c 0
 424 41 357 -24 263 -24 c 0
 151 -24 50 63 50 230 c 0
 50 471 230 855 470 855 c 0
 527 855 572 834 600 808 c 0
 626 784 658 739 665 739 c 0
EndSplineSet
EndChar

StartChar: s
Encoding: 115 115 49
Width: 654
VWidth: 1920
Flags: HMW
AnchorPoint: "bottom" 369 0 basechar 0
AnchorPoint: "top" 395 880 basechar 0
LayerCount: 2
Fore
SplineSet
196 138 m 0
 196 126 194 119 194 103 c 0
 194 68 262 35 321 35 c 256
 453 35 501 102 501 172 c 256
 501 259 420 322 349 375 c 0
 230 464 166 530 166 631 c 256
 166 764 277 855 458 855 c 256
 553 855 618 806 618 740 c 0
 618 701 582 681 557 681 c 0
 523 681 509 697 482 730 c 0
 447 772 416 787 376 787 c 256
 302 787 270 748 270 703 c 256
 270 658 306 607 405 515 c 0
 522 407 624 364 624 224 c 256
 624 93 502 -25 314 -25 c 256
 257 -25 191 -20 142 10 c 0
 91 41 50 88 50 145 c 0
 50 195 90 225 123 225 c 0
 160 225 196 195 196 138 c 0
EndSplineSet
EndChar

StartChar: t
Encoding: 116 116 50
Width: 618
Flags: HMW
AnchorPoint: "bottom" 324 0 basechar 0
LayerCount: 2
Fore
SplineSet
264 229 m 0
 264 124 305 79 376 79 c 0
 400 79 423 82 445 98 c 0
 482 125 516 185 516 222 c 0
 516 237 517 262 534 262 c 0
 567 262 588 230 588 215 c 0
 588 150 540 81 492 46 c 0
 425 -3 357 -17 291 -17 c 0
 189 -17 128 78 128 200 c 0
 128 373 187 731 187 740 c 0
 187 750 185 756 176 757 c 0
 145 760 117 761 85 761 c 0
 57 761 52 757 43 757 c 0
 33 757 30 764 30 781 c 0
 30 804 31 818 43 840 c 0
 48 849 61 850 73 850 c 0
 111 850 190 843 196 843 c 0
 205 843 205 848 207 861 c 0
 215 913 233 1056 233 1108 c 0
 233 1149 213 1175 213 1193 c 0
 213 1207 218 1215 263 1220 c 0
 303 1224 341 1231 369 1231 c 0
 396 1231 402 1221 402 1210 c 0
 402 1204 390 1162 380 1108 c 0
 361 1010 337 874 337 847 c 0
 337 826 340 826 362 825 c 0
 390 824 438 821 495 824 c 0
 553 827 549 835 563 835 c 0
 580 835 580 820 580 813 c 0
 580 806.71197025 577.71260143 795.19560091 573.324599488 782.000000747 c 4
 570.036425699 772.111803989 565.568692113 761.280662363 560 751 c 0
 548 729 542 724 519 724 c 0
 466 724 385 745 337 745 c 0
 321 745 319 743 317 728 c 0
 288 537 264 350 264 229 c 0
EndSplineSet
EndChar

StartChar: u
Encoding: 117 117 51
Width: 984
VWidth: 1920
Flags: HMW
AnchorPoint: "ogonek" 775 10 basechar 0
AnchorPoint: "top" 517 880 basechar 0
LayerCount: 2
Fore
SplineSet
330 -12 m 0
 257 -12 128 79 128 151 c 0
 128 277 251 567 251 682 c 0
 251 706 236 719 217 731 c 0
 202 741 181 749 164 749 c 0
 126 749 104 705 104 673 c 0
 104 650 93 640 77 640 c 0
 58 640 30 649 30 673 c 0
 30 694 47 729 79 759 c 0
 127 804 195 843 245 843 c 0
 285 843 320 820 349 790 c 0
 377 761 396 726 396 689 c 0
 396 590 279 331 279 194 c 0
 279 139 346 101 401 101 c 0
 485 101 575 236 631 367 c 0
 667 452 681 565 692 760 c 0
 694 787 686 823 716 823 c 0
 726 823 750 822 765 823 c 0
 785 824 823 839 843 839 c 0
 864 839 870 831 870 813 c 0
 870 795 851 761 834 673 c 0
 806 527 763 324 763 155 c 0
 763 107 778 80 807 80 c 0
 858 80 928 116 938 211 c 0
 939 221 939 235 959 235 c 0
 985 235 1004 214 1004 188 c 0
 1004 165.556463064 979.62280972 114.507039576 930 68.9685893681 c 0
 880.127509857 23.20100946 804.754711157 -17 703 -17 c 0
 651 -17 630 29 630 76 c 0
 630 127 642 188 642 228 c 0
 642 236 640 239 634 239 c 0
 629 239 626 231 623 225 c 0
 571 112 423 -12 330 -12 c 0
EndSplineSet
EndChar

StartChar: w
Encoding: 119 119 52
Width: 1369
VWidth: 1920
Flags: HMW
AnchorPoint: "bottom" 695 0 basechar 0
AnchorPoint: "top" 836 880 basechar 0
LayerCount: 2
Fore
SplineSet
492 -22 m 0
 384 -22 302 25 243 92 c 0
 210 129 209 189 209 231 c 0
 209 352 246 456 270 551 c 0
 280 591 300 653 300 674 c 0
 300 690 186 724 162 724 c 0
 147 724 132 711 132 699 c 0
 132 680 157 636 157 617 c 0
 157 584 125 554 99 554 c 0
 62 554 50 583 50 637 c 0
 50 702 81 731 116 762 c 0
 170 810 197 837 258 837 c 0
 298 837 349 828 411 817 c 0
 443 811 467 792 467 775 c 0
 467 753 439 697 423 626 c 0
 396 510 354 369 354 284 c 0
 354 243 359 204 372 179 c 0
 401 125 481 87 528 87 c 0
 585 87 638 147 669 207 c 0
 710 288 717 354 734 551 c 0
 745 680 741 740 746 794 c 0
 747 808 747 823 775 823 c 0
 854 823 853 843 893 843 c 0
 912 843 923 822 923 805 c 0
 923 783 898 697 883 626 c 0
 869 560 835 380 835 284 c 0
 835 191 891 98 1016 98 c 0
 1066 98 1106 120 1135 161 c 0
 1204 258 1215 433 1215 577 c 0
 1215 706 1159 754 1159 781 c 0
 1159 800 1169 816 1191 822 c 0
 1233 833 1255 849 1275 849 c 0
 1297 849 1316 826 1331 792 c 0
 1346 757 1349 708 1349 664 c 0
 1349 543 1313 352 1231 187 c 0
 1170 65 1048 -23 922 -23 c 0
 815 -23 770 45 740 85 c 0
 724 107 713 123 700 123 c 0
 683 123 645 84 600 32 c 0
 578 6 549 -22 492 -22 c 0
EndSplineSet
EndChar

StartChar: x
Encoding: 120 120 53
Width: 938
VWidth: 1920
Flags: HMW
LayerCount: 2
Fore
SplineSet
259 734 m 0
 238 734 201 722 201 684 c 0
 201 663 234 637 234 613 c 0
 234 580 213 557 177 557 c 0
 138 557 120 601 120 625 c 0
 120 658 126 676 136 701 c 0
 152 740 187 774 211 785 c 0
 269 811 295 855 345 855 c 0
 385 855 408 834 434 802 c 0
 459.420001388 770.713844445 477 735 491 701 c 0
 499.713983589 679.885347457 512.584091245 646.526978067 529.911498827 601.000185795 c 0
 535.560366395 586.158102863 535.560366395 586.158102863 543.005141505 599.999998033 c 0
 553.57982064 619.661250106 565.116236252 640.21133864 576 660 c 0
 640 775 671 854 758 854 c 0
 831 854 891 763 891 702 c 0
 891 648 851 612 812 612 c 0
 778 612 767 634 767 657 c 0
 767 691 792 716 792 737 c 0
 792 754 772 785 749 785 c 0
 717 785 693 741 646 651 c 0
 609.036611986 580.373526472 585.579299755 538.066244105 570.595499602 512 c 0
 566.426381295 504.747283441 566.426381295 504.747283441 569.743173305 496.00025099 c 0
 600.702349155 414.354819212 639.885501399 311.295788052 688 187 c 0
 704 145 736 100 786 100 c 0
 837 100 854 150 854 188 c 0
 854 209 822 250 822 274 c 0
 822 297 841 322 877 322 c 0
 916 322 928 277 928 253 c 0
 928 52 769 -24 706 -24 c 0
 666 -24 627.92787582 -5.69166951189 602 27 c 0
 579 56 562 93 550 128 c 0
 522.859802933 206.356375402 502.23471255 262.101498196 479.484979435 323 c 0
 475.675360326 333.197926061 475.675360326 333.197926061 470.458649109 323.000001843 c 0
 444.389727747 272.038989543 411.913815371 213.022639759 396 179 c 0
 352 84 272 -25 185 -25 c 0
 112 -25 50 24 50 105 c 0
 50 169 87 210 126 210 c 0
 152 210 178 187 178 154 c 0
 178 120 135 100 135 79 c 0
 135 52 162 36 183 36 c 0
 242 36 300 149 316 179 c 0
 383.795467517 306.79145647 420.275122427 374.11099894 439.476149163 414 c 0
 442.896385899 421.10534018 442.896385899 421.10534018 438.870074569 432 c 0
 418.465077827 487.213191412 394.332154733 553.494738175 363 642 c 0
 352 674 308 734 259 734 c 0
EndSplineSet
EndChar

StartChar: y
Encoding: 121 121 54
Width: 781
VWidth: 1920
Flags: HMW
AnchorPoint: "top" 474 880 basechar 0
LayerCount: 2
Fore
SplineSet
100 -275 m 0
 100 -222 126 -183 187 -183 c 4
 234.416563708 -183 252.572205655 -211.468680712 268.195905754 -238.999999561 c 0
 275.044724081 -251.068651667 281.529227207 -261 290 -261 c 0
 318 -261 339 -213 351 -188 c 0
 389 -109 400 -23 400 14 c 0
 400 67 392 168 384 209 c 0
 337 456 255 704 164 704 c 0
 135 704 110 679 110 647 c 0
 110 629 122 589 122 570 c 0
 122 535 113 516 87 516 c 0
 58 516 40 536 40 568 c 0
 40 727 128 855 208 855 c 0
 258 855 288 838 341 770 c 0
 414 675 498 493 522 236 c 0
 526 191 528 120 539 120 c 0
 548 120 581 197 594 246 c 0
 630 379 655 500 655 612 c 0
 655 682 630 746 630 789 c 0
 630 827 649 853 678 853 c 0
 753 853 771 764 771 705 c 0
 771 562 738 419 644 193 c 0
 597 80 535 -81 452 -209 c 0
 380 -320 321 -368 232 -368 c 0
 145 -368 100 -325 100 -275 c 0
EndSplineSet
EndChar

StartChar: z
Encoding: 122 122 55
Width: 870
VWidth: 1920
Flags: HMW
AnchorPoint: "top" 539 880 basechar 0
LayerCount: 2
Fore
SplineSet
81 593 m 0
 81 699 174 858 288 858 c 0
 402 858 576 766 675 766 c 0
 774 766 766 863 826 863 c 0
 856 863 876 846 876 825 c 0
 876 795 845 761 812 719 c 0
 775 672 356 231 308 183 c 0
 299 174 288 161 288 152 c 0
 288 140 312 126 342 112 c 0
 521 30 570 -121 682 -121 c 0
 744 -121 787 -44 787 22 c 0
 787 68 749 117 713 117 c 0
 707 117 712 100 712 84 c 0
 712 68 706 14 656 14 c 0
 612 14 598 50 598 76 c 0
 598 132 646 180 718 180 c 0
 800 180 850 95 850 30 c 0
 850 -55 790 -208 598 -208 c 0
 469 -208 365 -109 282 -34 c 0
 247 -3 203 11 173 11 c 0
 147 11 134 -2 106 -2 c 0
 78 -2 60 12 60 34 c 0
 60 66 74 80 118 116 c 0
 200 183 423 391 504 472 c 0
 560 528 601 590 601 598 c 0
 601 608 593 612 577 614 c 0
 535 619 466 632 411 650 c 0
 350 670 289 706 247 706 c 0
 187 706 143 652 143 606 c 0
 143 566 156 540 178 540 c 0
 193 540 200 581 235 581 c 0
 259 581 285 562 285 528 c 0
 285 486 249 453 201 453 c 0
 180 453 152 460 127 481 c 0
 96 507 81 551 81 593 c 0
EndSplineSet
EndChar

StartChar: period
Encoding: 46 46 56
Width: 569
VWidth: 1920
Flags: HMW
LayerCount: 2
Fore
SplineSet
135 98 m 0
 135 160 185 210 247 210 c 0
 309 210 359 160 359 98 c 0
 359 36 309 -14 247 -14 c 0
 185 -14 135 36 135 98 c 0
EndSplineSet
EndChar

StartChar: comma
Encoding: 44 44 57
Width: 569
VWidth: 1920
Flags: HMW
LayerCount: 2
Fore
SplineSet
135 -178 m 4
 135 -163 154 -152 175 -139 c 4
 201 -123 269 -64 269 -34 c 4
 269 10.205078125 144 0.1982421875 144 103 c 4
 144 170 194 213 261 213 c 4
 329 213 386 162 386 60 c 4
 386 -98 219 -218 165 -218 c 4
 153 -218 135 -192 135 -178 c 4
EndSplineSet
EndChar

StartChar: uniFB00
Encoding: 64256 64256 58
Width: 1024
VWidth: 1920
Flags: HMW
LayerCount: 2
Fore
SplineSet
201 757 m 0
 144 757 128 730 104 730 c 0
 86 730 80 734 80 762 c 0
 80 784 103 850 129 850 c 0
 154 850 162 840 209 840 c 0
 219 840 223 840 222 869 c 0
 219 953 196 999 196 1082 c 0
 196 1297 384 1420 541 1420 c 0
 669 1420 769 1321 769 1271 c 0
 769 1168 728 1146 687 1146 c 0
 624.475585938 1146 589.655273438 1185 589.655273438 1221 c 0
 589.655273438 1257.765625 601.245117188 1255.49902344 601.245117188 1283 c 0
 601.245117188 1314 566.378431768 1334 503 1334 c 0
 395 1334 310 1260 310 1163 c 0
 310 1070 339.087890625 1020.25585938 359 851 c 0
 361.013671875 833.887695312 372.625 830 403.611328125 830 c 2
 709 830 l 2
 719 830 723 830 722 859 c 0
 719 943 709 999 709 1082 c 0
 709 1297 854 1420 961 1420 c 0
 1019 1420 1079 1381 1079 1331 c 0
 1079 1278 1038 1252 997 1252 c 0
 934 1252 921 1315 863 1315 c 0
 835 1315 810 1240 810 1203 c 0
 810 1090 847 1031 859 861 c 0
 861 831 869 835 884 834 c 0
 918 831 937 830 956 830 c 0
 1003 830 1003 846 1017 846 c 0
 1030 846 1034 837 1034 825 c 0
 1034 797.019626832 1025.8481749 770.017472675 1010.84790246 752.000000925 c 4
 999.579284736 738.464779991 984.445794975 730 966 730 c 0
 933 730 908 742 875 742 c 0
 866 742 863 728 861 712 c 2
 826 363 l 2
 803 139 780 -58 757 -269 c 0
 753 -306 746 -337 718 -351 c 0
 698 -361 669 -365 624 -365 c 0
 536 -365 520 -351 520 -314 c 0
 520 -295 534 -286 550 -286 c 0
 560 -286 563 -289 569 -289 c 0
 580 -289 601 -284 607 -249 c 0
 639 -44 669 100 703 496 c 2
 723 718 l 2
 725 741 725 749 701 749 c 0
 697.736328125 749 568.819335938 742 375 742 c 0
 366 742 363 728 361 712 c 2
 326 363 l 2
 303 139 280 -58 257 -269 c 0
 253 -306 246 -337 218 -351 c 0
 198 -361 169 -365 124 -365 c 0
 36 -365 20 -351 20 -314 c 0
 20 -295 34 -286 50 -286 c 0
 60 -286 63 -289 69 -289 c 0
 80 -289 101 -284 107 -249 c 0
 139 -44 169 100 203 496 c 2
 223 726 l 2
 225 749 225 757 201 757 c 0
EndSplineSet
LCarets2: 1 0
Ligature2: "'liga' Standard Ligatures lookup" f f
EndChar

StartChar: uniFB01
Encoding: 64257 64257 59
Width: 1024
VWidth: 1920
Flags: HMW
LayerCount: 2
Fore
SplineSet
201 757 m 4
 144 757 128 730 104 730 c 4
 86 730 80 734 80 762 c 4
 80 784 103 850 129 850 c 4
 154 850 162 840 209 840 c 4
 219 840 223 840 222 869 c 4
 219 953 216 999 216 1082 c 4
 216 1297 404 1420 561 1420 c 4
 759 1420 897 1311 897 1191 c 4
 897 1088 848 1057 797 1057 c 4
 744 1057 710 1095 710 1131 c 4
 710 1198 771 1215 771 1243 c 4
 771 1274 726 1353 553 1353 c 4
 445 1353 330 1260 330 1163 c 4
 330 1070 339 1020 359 851 c 4
 361 834 373 830 404 830 c 6
 709 830 l 6
 730 830 804 835 815 835 c 4
 846 835 853 805 853 778 c 4
 853 724 834 679 796 429 c 4
 780 323 758 202 758 143 c 4
 758 108 780 85 815 85 c 4
 875 85 905 194 908 238 c 4
 910 269 922 287 939 287 c 4
 958 287 979 271 979 246 c 4
 979 210 954 96 871 30 c 4
 837 3 796 -25 738 -25 c 4
 649 -25 610 39 610 121 c 4
 610 198 622 271 658 435 c 4
 684 555 698 644 698 688 c 4
 698 731 685 745 661 745 c 4
 640 745 620 745 601 745 c 4
 545 743 467 742 375 742 c 4
 366 742 363 728 361 712 c 6
 326 363 l 6
 303 139 280 -58 257 -269 c 4
 253 -306 246 -337 218 -351 c 4
 198 -361 169 -365 124 -365 c 4
 36 -365 20 -351 20 -314 c 4
 20 -295 34 -286 50 -286 c 4
 60 -286 63 -289 69 -289 c 4
 80 -289 101 -284 107 -249 c 4
 139 -44 169 100 203 496 c 6
 223 726 l 6
 225 749 225 757 201 757 c 4
EndSplineSet
LCarets2: 1 0
Ligature2: "'liga' Standard Ligatures lookup" f i
EndChar

StartChar: uniFB02
Encoding: 64258 64258 60
Width: 1089
VWidth: 1920
Flags: HMW
LayerCount: 2
Fore
SplineSet
359 861 m 0
 361 847 369 835 384 834 c 0
 418 831 442 830 476 830 c 0
 523 830 523 841 537 841 c 0
 550 841 554 832 554 820 c 0
 554 794.679205052 547.324212237 771.494662189 534.938558157 755.000001084 c 4
 523.355886946 739.574716713 506.779710556 730 486 730 c 0
 453 730 408 742 375 742 c 0
 366 742 363 728 361 712 c 2
 326 363 l 2
 304 139 280 -58 257 -269 c 0
 253 -306 246 -337 218 -351 c 0
 198 -361 169 -365 124 -365 c 0
 36 -365 20 -351 20 -314 c 0
 20 -295 34 -286 50 -286 c 0
 60 -286 63 -289 69 -289 c 0
 80 -289 101 -284 107 -249 c 0
 139 -44 169 100 203 496 c 2
 223 726 l 2
 225 749 225 757 201 757 c 0
 144 757 128 730 104 730 c 0
 86 730 80 734 80 762 c 0
 80 784 103 850 129 850 c 0
 154 850 162 840 209 840 c 0
 219 840 223 840 222 869 c 0
 219 953 216 999 216 1082 c 0
 216 1297 404 1420 561 1420 c 0
 762 1420 811 1416 892 1416 c 0
 918 1416 936 1407 936 1380 c 0
 936 1324 918 1316 898 1164 c 2
 826 604 l 2
 811 490 782 272 782 170 c 0
 782 118 803 99 838 99 c 0
 892 99 957 191 1000 331 c 0
 1008 357 1005 390 1034 390 c 0
 1058 390 1076 373 1076 353 c 0
 1076 272 1011 115 858 9 c 0
 825 -14 794 -30 756 -30 c 0
 717 -30 684 -3 648 33 c 0
 630 51 622 85 622 105 c 0
 622 191 648 265 688 591 c 2
 726 901 l 2
 748 1083 758 1204 758 1272 c 0
 758 1324 758 1324 718 1335 c 0
 684 1344 632 1355 553 1355 c 0
 445 1355 330 1260 330 1163 c 0
 330 1070 340 978 359 861 c 0
EndSplineSet
LCarets2: 1 0
Ligature2: "'liga' Standard Ligatures lookup" f l
EndChar

StartChar: uniFB03
Encoding: 64259 64259 61
Width: 1459
VWidth: 1920
Flags: HMW
LayerCount: 2
Fore
SplineSet
201 757 m 0
 144 757 128 730 104 730 c 0
 86 730 80 734 80 762 c 0
 80 784 103 850 129 850 c 0
 154 850 162 840 209 840 c 0
 219 840 223 840 222 869 c 0
 219 953 196 999 196 1082 c 0
 196 1297 374 1420 531 1420 c 0
 633.891601562 1420 728.690917305 1356.03004114 757.999998687 1304.96298194 c 0
 771.179172592 1282.00007685 771.179172592 1282.00007685 789.999997146 1302.72981671 c 0
 859.169703055 1378.91510845 960.26221591 1420 1051 1420 c 0
 1249 1420 1387 1311 1387 1191 c 0
 1387 1088 1338 1057 1287 1057 c 0
 1234 1057 1200 1095 1200 1131 c 0
 1200 1198 1261 1215 1261 1243 c 0
 1261 1274 1216 1353 1043 1353 c 0
 935 1353 820 1260 820 1163 c 0
 820 1070 829 1020 849 851 c 0
 851 834 863 830 894 830 c 2
 1199 830 l 2
 1220 830 1294 835 1305 835 c 0
 1336 835 1343 805 1343 778 c 0
 1343 724 1324 679 1286 429 c 0
 1270 323 1248 202 1248 143 c 0
 1248 108 1270 85 1305 85 c 0
 1365 85 1395 194 1398 238 c 0
 1400 269 1412 287 1429 287 c 0
 1448 287 1469 271 1469 246 c 0
 1469 210 1444 96 1361 30 c 0
 1327 3 1286 -25 1228 -25 c 0
 1139 -25 1100 39 1100 121 c 0
 1100 198 1112 271 1148 435 c 0
 1174 555 1188 644 1188 688 c 0
 1188 731 1175 745 1151 745 c 0
 1130 745 1110 745 1091 745 c 0
 1035 743 957 742 865 742 c 0
 856 742 853 728 851 712 c 2
 816 363 l 2
 793 139 770 -58 747 -269 c 0
 743 -306 736 -337 708 -351 c 0
 688 -361 659 -365 614 -365 c 0
 526 -365 510 -351 510 -314 c 0
 510 -295 524 -286 540 -286 c 0
 550 -286 553 -289 559 -289 c 0
 570 -289 591 -284 597 -249 c 0
 629 -44 659 100 693 496 c 2
 713 717 l 2
 715 740 715 748 691 748 c 0
 637.839430431 748 532.881718651 742.000000005 375 742 c 0
 366 742 363 728 361 712 c 2
 326 363 l 2
 303 139 280 -58 257 -269 c 0
 253 -306 246 -337 218 -351 c 0
 198 -361 169 -365 124 -365 c 0
 36 -365 20 -351 20 -314 c 0
 20 -295 34 -286 50 -286 c 0
 60 -286 63 -289 69 -289 c 0
 80 -289 101 -284 107 -249 c 0
 139 -44 169 100 203 496 c 2
 223 726 l 2
 225 749 225 757 201 757 c 0
687 1146 m 0
 624.475585938 1146 589.655273438 1185 589.655273438 1221 c 0
 589.655273438 1257.765625 601.245117188 1255.49902344 601.245117188 1283 c 0
 601.245117188 1314 566.378431768 1334 503 1334 c 0
 395 1334 310 1260 310 1163 c 0
 310 1070 339.087890625 1020.25585938 359 851 c 0
 361.013671875 833.887695312 372.625 830 403.611328125 830 c 2
 693.608398438 830 l 2
 720.221679688 830 712.828996175 844.959110937 712 869 c 0
 709 953 706 999 706 1082 c 0
 706 1096.41677166 709.474609375 1116.26757812 714.469726562 1129 c 0
 723.1015625 1151 710.101782169 1146 687 1146 c 0
EndSplineSet
LCarets2: 2 0 0
Ligature2: "'liga' Standard Ligatures lookup" f f i
EndChar

StartChar: uniFB04
Encoding: 64260 64260 62
Width: 1599
VWidth: 1920
Flags: HMW
LayerCount: 2
Fore
SplineSet
816 363 m 2
 794 139 770 -58 747 -269 c 0
 743 -306 736 -337 708 -351 c 0
 688 -361 659 -365 614 -365 c 0
 526 -365 510 -351 510 -314 c 0
 510 -295 524 -286 540 -286 c 0
 550 -286 553 -289 559 -289 c 0
 570 -289 591 -284 597 -249 c 0
 629 -44 659 100 693 496 c 2
 713 717 l 2
 715 740 715 748 691 748 c 0
 637.839430431 748 532.881718651 742.000000005 375 742 c 0
 366 742 363 728 361 712 c 2
 326 363 l 2
 303 139 280 -58 257 -269 c 0
 253 -306 246 -337 218 -351 c 0
 198 -361 169 -365 124 -365 c 0
 36 -365 20 -351 20 -314 c 0
 20 -295 34 -286 50 -286 c 0
 60 -286 63 -289 69 -289 c 0
 80 -289 101 -284 107 -249 c 0
 139 -44 169 100 203 496 c 2
 223 726 l 2
 225 749 225 757 201 757 c 0
 144 757 128 730 104 730 c 0
 86 730 80 734 80 762 c 0
 80 784 103 850 129 850 c 0
 154 850 162 840 209 840 c 0
 219 840 223 840 222 869 c 0
 219 953 196 999 196 1082 c 0
 196 1297 374 1420 531 1420 c 0
 633.891601562 1420 728.690917305 1356.03004114 757.999998687 1304.96298194 c 0
 771.179172592 1282.00007685 771.179172592 1282.00007685 789.999997146 1302.72981671 c 0
 859.169703055 1378.91510845 960.262695312 1420 1051 1420 c 0
 1252 1420 1321 1416 1402 1416 c 0
 1428 1416 1446 1407 1446 1380 c 0
 1446 1324 1428 1316 1408 1164 c 2
 1336 604 l 2
 1321 490 1292 272 1292 170 c 0
 1292 118 1313 99 1348 99 c 0
 1402 99 1467 191 1510 331 c 0
 1518 357 1515 390 1544 390 c 0
 1568 390 1586 373 1586 353 c 0
 1586 272 1521 115 1368 9 c 0
 1335 -14 1304 -30 1266 -30 c 0
 1227 -30 1194 -3 1158 33 c 0
 1140 51 1132 85 1132 105 c 0
 1132 191 1158 265 1198 591 c 2
 1236 901 l 2
 1258 1083 1268 1204 1268 1272 c 0
 1268 1324 1268 1324 1228 1335 c 0
 1194 1344 1122 1355 1043 1355 c 0
 935 1355 820 1260 820 1163 c 0
 820 1070 830 978 849 861 c 0
 851 847 859 835 874 834 c 0
 908 831 932 830 966 830 c 0
 1013 830 1013 841 1027 841 c 0
 1040 841 1044 832 1044 820 c 0
 1044 796.178761109 1038.09150956 774.24823916 1027.07880045 758.00000114 c 0
 1015.43850026 740.825810267 998.095647504 730 976 730 c 0
 943 730 898 742 865 742 c 0
 856 742 853 728 851 712 c 2
 816 363 l 2
687 1146 m 0
 624.475585938 1146 589.655273438 1185 589.655273438 1221 c 0
 589.655273438 1257.765625 601.245117188 1255.49902344 601.245117188 1283 c 0
 601.245117188 1314 566.378431768 1334 503 1334 c 0
 395 1334 310 1260 310 1163 c 0
 310 1070 339.087890625 1020.25585938 359 851 c 0
 361.013671875 833.887695312 372.625 830 403.611328125 830 c 2
 693.608398438 830 l 2
 720.221679688 830 712.828996175 844.959110937 712 869 c 0
 709 953 706 999 706 1082 c 0
 706 1096.41677166 709.474609375 1116.26757812 714.469726562 1129 c 0
 723.1015625 1151 710.101782169 1146 687 1146 c 0
EndSplineSet
LCarets2: 2 0 0
Ligature2: "'liga' Standard Ligatures lookup" f f l
EndChar

StartChar: quotesingle
Encoding: 39 39 63
Width: 569
VWidth: 1920
Flags: HMW
LayerCount: 2
Fore
SplineSet
329 979 m 4
 306 979 303 994 303 1024 c 4
 303 1054.78417969 312.543945312 1094.77050781 312.543945312 1160 c 4
 312.543945312 1213.70019531 305 1281.82910156 305 1342 c 4
 305 1407 377 1453 444 1453 c 4
 489 1453 514 1435 514 1400 c 4
 514 1341.19433594 435.352539062 1217.45410156 410.293945312 1127 c 4
 374.833984375 999 354.833984375 979 329 979 c 4
EndSplineSet
EndChar

StartChar: quoteright
Encoding: 8217 8217 66
Width: 569
VWidth: 1920
Flags: HMW
LayerCount: 2
Fore
SplineSet
270 1025 m 0
 270 1040 287.241210938 1046.18066406 307 1061 c 0
 355 1097 394 1150 394 1180 c 0
 394 1224.20507812 286 1204.19824219 286 1317 c 0
 286 1384 326 1425 393 1425 c 0
 461 1425 512 1376 512 1284 c 0
 512 1126 381 976 317 976 c 0
 296 976 270 1004 270 1025 c 0
EndSplineSet
EndChar

StartChar: quoteleft
Encoding: 8216 8216 67
Width: 569
VWidth: 1920
Flags: HMW
LayerCount: 2
Fore
SplineSet
498 1420 m 4
 498 1405 480.758789062 1398.81933594 461 1384 c 4
 413 1348 374 1295 374 1265 c 4
 374 1220.79492188 482 1240.80175781 482 1128 c 4
 482 1061 442 1020 375 1020 c 4
 307 1020 256 1069 256 1161 c 4
 256 1319 387 1469 451 1469 c 4
 472 1469 498 1441 498 1420 c 4
EndSplineSet
EndChar

StartChar: hyphen
Encoding: 45 45 71
Width: 569
Flags: HMW
LayerCount: 2
Fore
SplineSet
53 346 m 4
 53 370 60 423 68 453 c 4
 73.287109375 472.825195312 85 476 106 476 c 4
 169 476 255 469 308 469 c 4
 400 469 422 477 477 477 c 4
 496 477 509 460 509 441 c 4
 509 417 504 378 496 347 c 4
 491.193500336 328.3748138 473 321 454 321 c 4
 404 321 312 324 176 324 c 4
 152 324 97 318 82 318 c 4
 68 318 53 328 53 346 c 4
EndSplineSet
EndChar

StartChar: exclam
Encoding: 33 33 73
Width: 569
VWidth: 1920
Flags: HMW
LayerCount: 2
Fore
SplineSet
125 98 m 4
 125 160 175 210 237 210 c 4
 299 210 349 160 349 98 c 4
 349 36 299 -14 237 -14 c 4
 175 -14 125 36 125 98 c 4
333 1259 m 4
 353 1366 388 1431 455 1431 c 4
 515 1431 539 1378 539 1301 c 4
 539 1189.91015625 360 603 338.7890625 486 c 4
 329.418945312 434.313476562 320.91015625 389 285 389 c 4
 258.08984375 389 255.599609375 433.594726562 259.2109375 486 c 4
 265 570 312.588867188 1149.80175781 333 1259 c 4
EndSplineSet
EndChar

StartChar: question
Encoding: 63 63 74
Width: 858
VWidth: 1920
Flags: HMW
LayerCount: 2
Fore
SplineSet
265 98 m 4
 265 160 315 210 377 210 c 4
 439 210 489 160 489 98 c 4
 489 36 439 -14 377 -14 c 4
 315 -14 265 36 265 98 c 4
345 350 m 4
 289 350 257 380 257 424 c 4
 257 628 662 845 662 1092 c 4
 662 1209 541 1308 467 1308 c 4
 363 1308 308 1212 308 1127 c 4
 308 1013.86271647 386 1064 422.999999327 1035.39012063 c 4
 455.757251017 1010.06090344 442.986470803 913 346 913 c 4
 267 913 187 999 187 1079 c 4
 187 1249 362 1434 570 1434 c 4
 688 1434 829 1271 829 1110 c 4
 829 899 385 628 385 489 c 4
 385 466 397 450 422 450 c 4
 462 450 476 507 511 507 c 4
 537 507 554 489 554 461 c 4
 554 380 431 350 345 350 c 4
EndSplineSet
EndChar

StartChar: ampersand
Encoding: 38 38 75
Width: 1595
Flags: HMW
LayerCount: 2
Fore
SplineSet
815 268 m 0
 776 268 750 282 750 354 c 0
 750 682.850585938 1506 722.99609375 1506 1077 c 0
 1506 1150 1463 1190 1400 1190 c 0
 1362.38085938 1190 1324.99609375 1176.1171875 1303.6796875 1131 c 0
 1281.86621094 1084.83105469 1288.04394531 1043 1227 1043 c 0
 1199 1043 1181 1068 1181 1106 c 0
 1181 1173 1274 1274 1400 1274 c 0
 1526 1274 1630 1199 1630 1051 c 0
 1630 593.754882812 835 490.978515625 835 380 c 0
 835 346.84765625 857.55859375 336.67578125 857.55859375 311 c 0
 857.55859375 297 842.510742188 268 815 268 c 0
1011 1184 m 0
 981 1184 947 1199 947 1241 c 0
 947 1254.05078125 951.271484375 1258.83886719 951.271484375 1275 c 0
 951.271484375 1306 901.689453125 1343 832 1343 c 0
 657 1343 561 1199 561 1055 c 0
 561 911 648 806 776 806 c 0
 834 806 885 824 885 877 c 0
 885 929 832 961 766 961 c 0
 530 961 318 822 318 478 c 0
 318 184 512 65 795 65 c 0
 1038 65 1226 212 1226 420 c 0
 1226 548 1161 569 1032 596 c 1
 1138 639 l 1
 1264.64355469 622.154296875 1358 546.782226562 1358 426 c 0
 1358 185 1156 -35 727 -35 c 0
 318 -35 106 162 106 433 c 0
 106 884 558 1047 749 1047 c 0
 889 1047 979 988 979 881 c 0
 979 794 915 723 765 723 c 0
 555 723 383 865 383 1035 c 0
 383 1255 605 1422 828 1422 c 0
 1011.13378906 1422 1069 1333 1069 1269 c 0
 1069 1225 1050 1184 1011 1184 c 0
EndSplineSet
EndChar

StartChar: one
Encoding: 49 49 76
Width: 797
VWidth: 1920
Flags: HMW
LayerCount: 2
Fore
SplineSet
348 591 m 2
 386 997 l 2
 388.182617188 1020.32324219 387 1041 368 1041 c 0
 316 1041 227 969 197 969 c 0
 177 969 165 983 165 1003 c 0
 165 1028 174.69921875 1053.79003906 257 1101 c 0
 409.315429688 1188.37304688 575.888671875 1218 619 1218 c 0
 643 1218 659 1208 659 1183 c 0
 659 1162 640.8125 1147.76074219 594 1134 c 0
 577.317382812 1129.09570312 571.232421875 1122.30664062 568.98828125 1111 c 0
 560.391601562 1067.68554688 551.657226562 1014.01367188 538 894 c 2
 505 604 l 2
 476.15625 350.520507812 466 184.846679688 466 136 c 0
 466 85 488 78 534 78 c 0
 588 78 620 92 649 92 c 0
 667 92 678 81 678 65 c 0
 678 29 643 -15 344 -15 c 0
 64 -15 34 21 34 58 c 0
 34 75 48 87 66 87 c 0
 94 87 149 73 196 73 c 0
 245 73 269 84 280 110 c 0
 304 168 321.5859375 308.787109375 348 591 c 2
EndSplineSet
EndChar

StartChar: two
Encoding: 50 50 77
Width: 1024
Flags: HMW
LayerCount: 2
Fore
SplineSet
238 909 m 0
 219 909 202 920 202 949 c 0
 202 1051 347 1255 653 1255 c 0
 829 1255 955 1156 955 984 c 0
 955 772 729 529 466 269 c 0
 414.14453125 217.736328125 376 184 376 172 c 0
 376 156 401 155 454 155 c 18
 756 155 l 2
 833 155 836.67578125 181.052734375 842 222 c 0
 848.274414062 270.255859375 858 283 882 283 c 0
 909 283 918 267 918 233 c 0
 918 199.383789062 901.208007812 123.9140625 876.298828125 57 c 0
 832 -62 822.146484375 -81 789 -81 c 0
 766 -81 758 -64 758 -53 c 0
 758 -34 765 -32 765 -16 c 0
 765 -2 744 0 722 0 c 2
 281 0 l 18
 254 0 182 -8 151 -8 c 0
 126 -8 111 -2 111 13 c 0
 111 43 128 48 164 84 c 16
 200 120 272 192 456 376 c 0
 640 560 782 766 782 936 c 0
 782 1076 713 1167 583 1167 c 0
 433 1167 329.509765625 1063.13574219 299 980 c 0
 277.97265625 922.704101562 265 909 238 909 c 0
EndSplineSet
EndChar

StartChar: three
Encoding: 51 51 78
Width: 1026
Flags: HMW
LayerCount: 2
Fore
SplineSet
232 925 m 0
 207 925 187 939 187 969 c 0
 187 1000.02043868 195.939698735 1031.52343272 211.999997921 1061.92548996 c 4
 272.085859915 1175.66769326 431.839309494 1274 596 1274 c 0
 841 1274 918 1115 918 980 c 0
 918 905 859 795 798 725 c 0
 786 711 760 686 760 679 c 0
 760 669 779.637695312 657.12890625 798 646 c 0
 897 586 953 505 953 388 c 0
 953 51 639 -163 398 -163 c 0
 187 -163 105 -66 105 -28 c 0
 105 -10 115 17 143 17 c 0
 156 17 171.844726562 4.7978515625 190 -9 c 0
 240 -47 332 -77 412 -77 c 0
 592 -77 763 113 763 345 c 0
 763 483.8203125 658 565 630.58984375 565 c 0
 597.983398438 565 579 531 533 531 c 0
 509.8046875 531 490 547 490 579 c 0
 490 616 522.860351562 614.559570312 540 623 c 0
 672 688 749 800 749 943 c 0
 749 1086 651 1173 535 1173 c 0
 439 1173 304 1103 278 995 c 0
 270.561523438 964.102539062 274 925 232 925 c 0
EndSplineSet
EndChar

StartChar: four
Encoding: 52 52 79
Width: 1026
Flags: HMW
LayerCount: 2
Fore
SplineSet
672 535 m 0
 672 573 707 824 712 888 c 0
 715.426757812 931.866210938 719 993 699 993 c 0
 684 993 664 969 645 946 c 2
 377 630 l 2
 346 593 306 550 306 524 c 0
 306 498 360 493 395 493 c 8
 485 493 568 494 622 494 c 0
 660 494 672 507 672 535 c 0
605 345 m 2
 199 345 l 2
 150 345 95 347 95 384 c 2
 95 386 l 2
 95 424 131 449 157 480 c 10
 760 1175 l 2
 803.705078125 1225.37402344 842 1304 882 1304 c 0
 908 1304 913 1280 913 1267 c 0
 913 1231 898.59765625 1180.58203125 894 1141 c 2
 825 547 l 2
 821.458007812 521.350585938 818 506 836 506 c 0
 866 506 884 526 906 526 c 0
 918 526 923 505 923 483 c 0
 923 451.746889992 916.268493547 411.620430568 904.836507303 382.000001125 c 4
 895.6015192 358.072023287 883.299123535 341 869 341 c 0
 851 341 833 342 817 342 c 0
 811 342 804 339 804 329 c 2
 771 16 l 2
 766.609375 -25.642578125 780 -64 780 -76 c 0
 780 -92 771 -102 747 -112 c 0
 714 -126 640 -134 619 -134 c 0
 605 -134 589 -126 589 -94 c 0
 589 -72 602.950195312 -45.6689453125 610 18 c 2
 642 307 l 2
 644.41796875 328.83984375 634 345 605 345 c 2
EndSplineSet
EndChar

StartChar: five
Encoding: 53 53 80
Width: 912
Flags: HMW
LayerCount: 2
Fore
SplineSet
358 1248 m 2
 771 1248 l 2
 826 1248 834 1268 843 1291 c 0
 852.453125 1315.15820312 856 1330 875 1330 c 0
 894 1330 901 1318 901 1288 c 0
 901 1257.78515625 897.938476562 1239.80859375 886.286132812 1207 c 0
 877.662109375 1182.72167969 865.202148438 1152.07519531 838 1109 c 0
 830.323242188 1096.84375 823 1093 802 1093 c 2
 386 1093 l 2
 374 1093 370.25390625 1090.2421875 367 1079 c 2
 296 845 l 2
 293.13671875 835.563476562 287.950195312 823 300 823 c 0
 618 823 852 669 852 379 c 0
 852 129.2109375 635.934570312 -163 321 -163 c 0
 217 -163 104.999023438 -117.397460938 80 -83 c 0
 55.8896484375 -49.826171875 79 -15 109 -15 c 0
 139 -15 192 -80 339 -80 c 0
 505 -80 714 51 714 315 c 0
 714 569 494 674 190 664 c 0
 156.154296875 662.88671875 161.038085938 676.06640625 178 731 c 2
 333 1233 l 2
 336.616210938 1244.71289062 342 1248 358 1248 c 2
EndSplineSet
EndChar

StartChar: six
Encoding: 54 54 81
Width: 1026
Flags: HMW
LayerCount: 2
Fore
SplineSet
317 422 m 4
 317 203 383 47 545 47 c 4
 717 47 813 262 813 491 c 4
 813 710 727 829 575 829 c 4
 443 829 317 641 317 422 c 4
144 457 m 4
 144 821 336 1155 618 1348 c 4
 667.856445312 1382.12207031 734 1409 782 1409 c 4
 819 1409 839 1396.99902344 839 1378 c 4
 839 1359.06640625 816.224609375 1346.39355469 796 1342.78222656 c 4
 756.5390625 1335.73535156 728.529296875 1323.7109375 686 1300.14550781 c 4
 539.8359375 1219.15820312 458.809570312 1102.61132812 375 863 c 4
 370.708007812 850.729492188 367 842 367 835 c 4
 367 827 372 822 379 822 c 4
 387 822 400 829 415 842 c 4
 470 891 544 939 656 939 c 4
 848 939 979 802 979 553 c 4
 979 365.331054688 880.869140625 157.627929688 741.9140625 51 c 4
 681.693359375 4.7900390625 614.12109375 -20 538 -20 c 4
 316 -20 144 133 144 457 c 4
EndSplineSet
EndChar

StartChar: seven
Encoding: 55 55 82
Width: 1024
Flags: HMW
LayerCount: 2
Fore
SplineSet
365 1252 m 0
 409 1252 771 1263 815 1265 c 0
 858.955078125 1266.99804688 927 1270 965 1270 c 8
 1003 1270 1022 1251 1022 1224 c 0
 1022 1184 999.532226562 1155.75878906 983 1117 c 10
 460 -112 l 2
 436.423828125 -166.737304688 429 -179 387 -179 c 0
 302 -179 260 -171 260 -135 c 0
 260 -103.877929688 281.641601562 -91.5927734375 299.413085938 -86 c 0
 322.911132812 -78.6044921875 328.470703125 -66.9765625 339 -46 c 10
 817 978 l 2
 828.718847346 1003.10481105 848 1038 848 1054 c 0
 848 1070 823 1070 791 1070 c 0
 749 1070 423 1055 349 1055 c 0
 305 1055 286.780641287 1029.9676354 285 981 c 4
 283 926 250.591796875 912 230 912 c 0
 204 912 176 929 176 985 c 0
 176 1057 185.798828125 1093.60839844 198 1154 c 0
 223.823242188 1281.81347656 252 1308 276 1308 c 0
 301.637695312 1308 315.24609375 1298.17675781 322 1283.78320312 c 0
 331.162109375 1264.2578125 343.637695312 1252 365 1252 c 0
EndSplineSet
EndChar

StartChar: eight
Encoding: 56 56 83
Width: 1024
Flags: HMW
LayerCount: 2
Fore
SplineSet
296 1063 m 0
 296 1227 427 1415 646 1415 c 0
 780 1415 926 1320 926 1170 c 0
 926 1027 798 910 697 849 c 0
 673.495117188 834.803710938 667 830 667 825 c 0
 667 818 673.935546875 811.872070312 684 803 c 0
 895 617 947 549 947 396 c 0
 947 238 802 -15 468 -15 c 0
 416.930664062 -15 361.232421875 -7.2734375 322 8.9248046875 c 0
 190.059570312 63.400390625 121 201.172851562 121 320 c 0
 121 462 203.580078125 629.676757812 414 770 c 0
 427.645507812 779.099609375 442 786 442 791 c 0
 442 795 427.8203125 806.111328125 404 835 c 0
 357 892 296 981 296 1063 c 0
476 720 m 0
 338 636 216 491 216 317 c 0
 216 144 337 46 489 46 c 0
 701 46 817 196 817 330 c 0
 817 484 681 589 538 713 c 0
 514.108398438 733.716796875 507 735 502 735 c 0
 497 735 489.260742188 728.071289062 476 720 c 0
690 933 m 0
 752 972 834 1068 834 1176 c 0
 834 1284 742 1352 654 1352 c 0
 500 1352 423 1244 423 1140 c 0
 423 1077 462 984 570 905 c 0
 588.581054688 891.408203125 594 883 600 883 c 0
 609 883 635 898 690 933 c 0
EndSplineSet
EndChar

StartChar: nine
Encoding: 57 57 84
Width: 1026
Flags: HMW
LayerCount: 2
Fore
SplineSet
847 882 m 0
 847 1101 749 1187 627 1187 c 0
 495 1187 336 1002 336 753 c 0
 336 544 421 465 573 465 c 0
 705 465 847 633 847 882 c 0
990 826 m 0
 990 502 778 145 536 -48 c 0
 488.766601562 -85.669921875 414 -124 366 -124 c 0
 329 -124 309 -107.999023438 309 -89 c 0
 309 -70.06640625 331.775390625 -57.3935546875 352 -53.7822265625 c 0
 391.4609375 -46.7353515625 428.650390625 -27.275390625 466 3.8544921875 c 0
 599.1640625 114.841796875 685.190429688 215.388671875 749 415 c 0
 751.049804688 421.412109375 755 433 755 442 c 0
 755 449 753 454 747 454 c 0
 739 454 724.55859375 441.2578125 707 432 c 0
 652 403 606 371 494 371 c 0
 322 371 165 522 165 721 c 0
 165 1040 399 1264 641 1264 c 0
 863 1264 990 1090 990 826 c 0
EndSplineSet
EndChar

StartChar: figuredash
Encoding: 8210 8210 85
Width: 1829
Flags: HMW
LayerCount: 2
Fore
SplineSet
53 346 m 0
 53 370 60 423 68 453 c 0
 73.287109375 472.825195312 85 476 106 476 c 0
 169 476 1525 469 1578 469 c 0
 1670 469 1682 477 1737 477 c 0
 1756 477 1769 460 1769 441 c 0
 1769 417 1764 378 1756 347 c 0
 1751.19335938 328.375 1733 321 1714 321 c 0
 1707.07551509 321 1675.17945723 321.058212282 1625.00000522 321.156677676 c 6
 176 324 l 6
 152.000092411 324.047094184 97 318 82 318 c 0
 68 318 53 328 53 346 c 0
EndSplineSet
EndChar

StartChar: slash
Encoding: 47 47 86
Width: 700
Flags: HMW
LayerCount: 2
Fore
SplineSet
63 -112 m 0
 41 -160 19 -186 -13 -186 c 0
 -46 -186 -65 -170 -65 -145 c 0
 -65 -109.772460938 -27 -61 23 40 c 0
 247 485 466 936 677 1396 c 0
 699 1444 721 1470 753 1470 c 4
 786 1470 805 1455 805 1429 c 0
 805 1393.77246094 767 1345 717 1244 c 0
 493 799 274 348 63 -112 c 0
EndSplineSet
EndChar

StartChar: endash
Encoding: 8211 8211 87
Width: 1119
Flags: HMW
LayerCount: 2
Fore
SplineSet
53 346 m 0
 53 370 60 423 68 453 c 0
 73.287109375 472.825195312 85 476 106 476 c 0
 169 476 785 469 838 469 c 0
 930 469 942 477 997 477 c 0
 1016 477 1029 460 1029 441 c 0
 1029 417 1024 378 1016 347 c 0
 1011.19335938 328.375 993 321 974 321 c 0
 964 321 909.620984434 321.220910797 877.000003878 321.344484981 c 2
 176 324 l 2
 152.000344403 324.090915044 97 318 82 318 c 0
 68 318 53 328 53 346 c 0
EndSplineSet
EndChar

StartChar: emdash
Encoding: 8212 8212 88
Width: 1829
Flags: HMW
LayerCount: 2
Fore
SplineSet
53 346 m 0
 53 370 60 423 68 453 c 0
 73.287109375 472.825195312 85 476 106 476 c 0
 169 476 1525 469 1578 469 c 0
 1670 469 1682 477 1737 477 c 0
 1756 477 1769 460 1769 441 c 0
 1769 417 1764 378 1756 347 c 0
 1751.19335938 328.375 1733 321 1714 321 c 0
 1706.53856482 321 1670.08262678 321.068482662 1613.00000553 321.180483625 c 6
 176 324 l 6
 152.000092394 324.047089862 97 318 82 318 c 0
 68 318 53 328 53 346 c 0
EndSplineSet
EndChar

StartChar: uni2015
Encoding: 8213 8213 89
Width: 1829
Flags: HMW
LayerCount: 2
Fore
SplineSet
53 346 m 0
 53 370 60 423 68 453 c 0
 73.287109375 472.825195312 85 476 106 476 c 0
 169 476 1525 469 1578 469 c 0
 1670 469 1682 477 1737 477 c 0
 1756 477 1769 460 1769 441 c 0
 1769 417 1764 378 1756 347 c 0
 1751.19335938 328.375 1733 321 1714 321 c 0
 1707.2613304 321 1676.87330644 321.054845275 1629.00000511 321.148786769 c 6
 176 324 l 6
 152.000092414 324.047094875 97 318 82 318 c 0
 68 318 53 328 53 346 c 0
EndSplineSet
EndChar

StartChar: numbersign
Encoding: 35 35 90
Width: 1163
Flags: HMW
LayerCount: 2
Fore
SplineSet
889 1200 m 4
 916 1200 930 1185 930 1155 c 4
 930 1135 912 1098 900 1042 c 14
 662 -52 l 22
 651 -101 618 -126 596 -126 c 4
 571 -126 555 -111 555 -75 c 4
 555 -40 599 -4 622 100 c 14
 798 898 l 22
 826.96484375 1029.33105469 831 1114 831 1140 c 4
 831 1180 861 1200 889 1200 c 4
539 1200 m 4
 566 1200 580 1185 580 1155 c 4
 580 1135 562 1098 550 1042 c 14
 312 -52 l 22
 301 -101 268 -126 246 -126 c 4
 221 -126 205 -111 205 -75 c 4
 205 -40 249 -4 272 100 c 14
 448 898 l 22
 476.96484375 1029.33105469 481 1114 481 1140 c 4
 481 1180 511 1200 539 1200 c 4
131 738 m 4
 131 762 157 815 185 845 c 4
 199 860 212 868 233 868 c 4
 296 868 892 853 945 853 c 4
 1037 853 1056 869 1111 869 c 4
 1130 869 1143 852 1143 833 c 4
 1143 809 1120 758 1103 727 c 4
 1094 710 1080 701 1061 701 c 4
 1033 701 984 720 921 720 c 6
 341 720 l 6
 261 720 174 710 159 710 c 4
 145 710 131 720 131 738 c 4
71 318 m 4
 71 342 97 395 125 425 c 4
 139 440 152 448 173 448 c 4
 236 448 832 433 885 433 c 4
 977 433 996 449 1051 449 c 4
 1070 449 1083 432 1083 413 c 4
 1083 389 1060 338 1043 307 c 4
 1034 290 1020 281 1001 281 c 4
 973 281 924 300 861 300 c 6
 281 300 l 6
 201 300 114 290 99 290 c 4
 85 290 71 300 71 318 c 4
EndSplineSet
EndChar

StartChar: underscore
Encoding: 95 95 91
Width: 1024
VWidth: 2048
Flags: HMW
LayerCount: 2
Fore
SplineSet
430 -452 m 6
 104 -452 39 -459 -37 -459 c 4
 -64 -459 -77 -456 -74 -435 c 6
 -66 -375 l 6
 -63 -354 -50 -351 -23 -351 c 4
 53 -351 116 -358 442 -358 c 6
 463 -358 l 6
 789 -358 885 -351 961 -351 c 4
 988 -351 1001 -354 998 -375 c 6
 990 -435 l 6
 987 -456 974 -459 947 -459 c 4
 871 -459 777 -452 451 -452 c 6
 430 -452 l 6
EndSplineSet
EndChar

StartChar: dollar
Encoding: 36 36 92
Width: 912
VWidth: 1920
Flags: HMW
LayerCount: 2
Fore
SplineSet
479 26 m 6
 476.658212624 3.21457976209 478 -44 478 -56 c 4
 478 -85.4940580335 457.418090781 -102.520156577 432.000000948 -111.489906677 c 4
 414.582068029 -117.636493874 394.893172842 -120 378 -120 c 4
 357 -120 341 -104 341 -83 c 4
 341 -51 370.080930576 -46.9999891339 382 72 c 6
 507 1320 l 6
 511.174549813 1361.67870533 515 1413 515 1435 c 4
 515 1460.734375 543.708007812 1478 605 1478 c 4
 629 1478 642 1468 642 1456 c 4
 642 1434 621.491877629 1412.43556847 616 1359 c 6
 479 26 l 6
200 295 m 0
 200 221 201.633789062 178.629882812 233 156 c 0
 287.720773913 116.520424238 340 91 442 91 c 256
 600 91 720 201 720 342 c 256
 720 478 676 535 478 663 c 0
 302.544579477 776.425726399 197 864 197 1039 c 256
 197 1229 345 1395 592 1395 c 256
 726 1395 831 1319 863 1287 c 0
 895 1256 905 1243 905 1216 c 0
 905 1164 876 1040 808 1040 c 0
 782 1040 771 1054 771 1078 c 0
 771 1101 779 1143 779 1174 c 0
 779 1191 774.396179853 1205.42477162 753 1225 c 0
 706 1268 653 1299 582 1299 c 256
 415 1299 341 1196 341 1086 c 256
 341 936 477.947265625 868.444335938 618 787 c 0
 802 680 882 597 882 418 c 256
 882 216.792248062 692 -3 422 -3 c 256
 275 -3 163 58 82 138 c 0
 70.8862486313 148.976544562 70 169 70 205 c 0
 70 366 92 417 135 417 c 0
 180 417 200 391 200 295 c 0
EndSplineSet
EndChar

StartChar: at
Encoding: 64 64 93
Width: 1518
VWidth: 1920
Flags: HMW
LayerCount: 2
Fore
SplineSet
90 412 m 4
 90 924 506 1157 859 1157 c 4
 1234 1157 1428 874 1428 612 c 4
 1428 332 1184 162 996 162 c 4
 916 162 899 189 899 234 c 4
 899 264 903 287 903 306 c 4
 903 320 900 325 896 325 c 4
 892 325 888 314 880 304 c 4
 838 249 743 156 636 156 c 4
 522 156 424 251 424 369 c 4
 424 616 638 846 830 846 c 4
 876 846 913 790 930 760 c 4
 940 743 941 740 948 740 c 4
 955.858538223 740 958.07575607 756.759103666 958.603191748 780.999998779 c 4
 959.117745959 804.648862877 965.474609375 827 988 827 c 4
 1050 827 1082 835 1099 835 c 4
 1115 835 1119 826 1119 818 c 4
 1119 796 1105 780 1091 727 c 4
 1061 613 1031 476 1031 336 c 4
 1031 281 1049 250 1080 250 c 4
 1169 250 1358 385 1358 612 c 4
 1358 854 1168 1094 858 1094 c 4
 577 1094 169 817 169 402 c 4
 169 36 473 -152 752 -152 c 4
 992 -152 1124 -50 1219 32 c 4
 1228.24036692 39.9758956578 1241 48 1254 48 c 4
 1274 48 1280 33 1280 20 c 4
 1280 0 1263.13454635 -13.1608112668 1250 -24 c 4
 1147 -109 988 -211 751 -211 c 4
 412 -211 90 38 90 412 c 4
796 768 m 4
 685 768 590 531 590 385 c 4
 590 325 616 252 689 252 c 4
 790 252 919 421 919 600 c 4
 919 683 866 768 796 768 c 4
EndSplineSet
EndChar

StartChar: braceleft
Encoding: 123 123 95
Width: 750
Flags: HMW
LayerCount: 2
Fore
SplineSet
206 594 m 0
 196 513 251 505 258 363 c 0
 261 290 251 -51 253 -108 c 0
 255 -165 262 -181 286 -191 c 0
 321 -205 376 -210 434 -210 c 0
 512 -210 554 -205 589 -205 c 0
 619 -205 630 -221 626 -254 c 0
 622 -288 609 -300 581 -308 c 0
 545 -319 488 -336 381 -336 c 0
 294 -336 191 -312 145 -303 c 0
 98 -294 76 -273 81 -234 c 0
 86 -195 143 222 159 351 c 0
 169 430 78 490 92 604 c 4
 106 718 209 758 219 837 c 0
 235 966 280 1383 285 1422 c 0
 290 1461 316 1482 365 1491 c 0
 414 1500 522 1524 609 1524 c 0
 716 1524 770 1507 803 1496 c 0
 829 1488 838 1476 834 1442 c 0
 830 1409 815 1393 785 1393 c 0
 750 1393 690 1398 612 1398 c 0
 554 1398 517 1393 478 1379 c 0
 451 1369 441 1353 425 1296 c 0
 409 1239 335 898 314 825 c 0
 273 683 216 675 206 594 c 0
EndSplineSet
EndChar

StartChar: bar
Encoding: 124 124 96
Width: 428
VWidth: 1920
Flags: HMW
LayerCount: 2
Fore
SplineSet
261 146 m 6
 261 -180 268 -244 268 -320 c 4
 268 -347 265 -360 244 -360 c 6
 184 -360 l 6
 163 -360 160 -347 160 -320 c 4
 160 -244 167 -180 167 146 c 6
 167 863 l 6
 167 1189 160 1284 160 1360 c 4
 160 1387 163 1400 184 1400 c 6
 244 1400 l 6
 265 1400 268 1387 268 1360 c 4
 268 1284 261 1189 261 863 c 6
 261 146 l 6
EndSplineSet
EndChar

StartChar: braceright
Encoding: 125 125 97
Width: 750
Flags: HMW
LayerCount: 2
Fore
SplineSet
644 594 m 0
 654 675 599 683 592 825 c 0
 589 898 599 1239 597 1296 c 0
 595 1353 588 1369 564 1379 c 0
 529 1393 474 1398 416 1398 c 0
 338 1398 296 1393 261 1393 c 0
 231 1393 220 1409 224 1442 c 0
 228 1476 241 1488 269 1496 c 0
 305 1507 362 1524 469 1524 c 0
 556 1524 659 1500 705 1491 c 0
 752 1482 774 1461 769 1422 c 0
 764 1383 707 966 691 837 c 0
 681 758 772 698 758 584 c 4
 744 470 641 430 631 351 c 0
 615 222 570 -195 565 -234 c 0
 560 -273 534 -294 485 -303 c 0
 436 -312 328 -336 241 -336 c 0
 134 -336 80 -319 47 -308 c 0
 21 -300 12 -288 16 -254 c 0
 20 -221 35 -205 65 -205 c 0
 100 -205 160 -210 238 -210 c 0
 296 -210 333 -205 372 -191 c 0
 399 -181 409 -165 425 -108 c 0
 441 -51 515 290 536 363 c 0
 577 505 634 513 644 594 c 0
EndSplineSet
EndChar

StartChar: bracketleft
Encoding: 91 91 98
Width: 740
Flags: HMW
LayerCount: 2
Fore
SplineSet
219 837 m 2
 235 966 280 1383 285 1422 c 0
 290 1461 316 1482 365 1491 c 0
 414 1500 522 1524 609 1524 c 0
 716 1524 770 1507 803 1496 c 0
 829 1488 839 1481 836 1457 c 0
 832 1424 819 1423 789 1423 c 0
 661 1423 571 1423 532 1410 c 0
 505 1401 495 1384 479 1327 c 0
 463 1270 401 999 367 725 c 0
 350.099609375 603 350.099609375 603 335 463 c 0
 301 189 297 -82 299 -139 c 0
 301 -196 307 -213 332 -222 c 0
 367 -235 457 -235 585 -235 c 0
 615 -235 628 -236 624 -269 c 0
 621 -293 609 -300 581 -308 c 0
 545 -319 488 -336 381 -336 c 0
 294 -336 191 -312 145 -303 c 0
 98 -294 76 -273 81 -234 c 0
 86 -195 143 222 159 351 c 2
 219 837 l 2
EndSplineSet
EndChar

StartChar: bracketright
Encoding: 93 93 99
Width: 740
Flags: HMW
LayerCount: 2
Fore
SplineSet
621 351 m 2
 605 222 560 -195 555 -234 c 0
 550 -273 524 -294 475 -303 c 0
 426 -312 318 -336 231 -336 c 0
 124 -336 70 -319 37 -308 c 0
 11 -300 1 -293 4 -269 c 0
 8 -236 21 -235 51 -235 c 0
 179 -235 269 -235 308 -222 c 0
 335 -213 345 -196 361 -139 c 0
 377 -82 439 189 473 463 c 0
 492.34375 605 492.34375 605 505 725 c 0
 539 999 543 1270 541 1327 c 0
 539 1384 533 1401 508 1410 c 0
 473 1423 383 1423 255 1423 c 0
 225 1423 212 1424 216 1457 c 0
 219 1481 231 1488 259 1496 c 0
 295 1507 352 1524 459 1524 c 0
 546 1524 649 1500 695 1491 c 0
 742 1482 764 1461 759 1422 c 0
 754 1383 697 966 681 837 c 2
 621 351 l 2
EndSplineSet
EndChar

StartChar: parenleft
Encoding: 40 40 100
Width: 682
Flags: HMW
LayerCount: 2
Fore
SplineSet
56 744 m 0
 56 828 83.517434658 903.738370878 171 1042 c 0
 321.208984375 1279.39746094 422 1434 505 1434 c 0
 553 1434 632 1407 686 1386 c 0
 712.245117188 1375.79296875 724 1355 724 1331 c 0
 724 1308 711 1276 681 1276 c 0
 646 1276 597 1309 510 1309 c 0
 448 1309 418.260719568 1211.27179501 297 968 c 0
 263.158393041 900.107375741 256.00390625 794.704101562 250 734 c 0
 232 552 202 244 217 10 c 0
 227.152906927 -148.385348063 228 -184 290 -184 c 0
 337 -184 415 -141 450 -141 c 0
 470 -141 476 -152 476 -175 c 0
 476 -229 451 -260 424 -268 c 0
 389.737218307 -278.151935316 249 -326 201 -326 c 0
 148 -326 125.137715402 -272.208384035 101 -64 c 0
 70.9469572563 195.233127941 56 660 56 744 c 0
EndSplineSet
EndChar

StartChar: parenright
Encoding: 41 41 101
Width: 682
Flags: HMW
LayerCount: 2
Fore
SplineSet
680 764 m 0
 680 660 524.052734375 215.233398438 425 -44 c 0
 350.186557561 -239.796138841 348 -266 295 -266 c 0
 247 -266 106.262695312 -251.15234375 72 -241 c 4
 45 -233 38 -209 38 -155 c 0
 38 -132 46 -121 66 -121 c 0
 101 -121 149 -154 226 -154 c 0
 288 -154 296.522015443 -122.920744406 339 30 c 0
 404 264 496 556 496 754 c 0
 496 815.000285547 491.641109409 917.770955691 476 992 c 0
 424.739257812 1235.27148438 417 1339 355 1339 c 0
 268 1339 250 1286 215 1286 c 0
 185 1286 172 1328 172 1351 c 0
 172 1375 173.754882812 1395.79296875 200 1406 c 0
 254 1427 333 1454 381 1454 c 0
 464 1454 518.791015625 1299.39746094 609 1062 c 0
 667.1171875 909.055664062 680 848 680 764 c 0
EndSplineSet
EndChar

StartChar: backslash
Encoding: 92 92 102
Width: 700
Flags: HMW
LayerCount: 2
Fore
SplineSet
541 -112 m 0
 443 348 336 799 221 1244 c 0
 196 1345 175 1375.77246094 175 1411 c 0
 175 1448 199 1470 232 1470 c 0
 264 1470 288 1444 299 1396 c 0
 397 936 504 485 619 40 c 0
 644 -61 664 -95 664 -131 c 4
 664 -168.3359375 641 -186 608 -186 c 0
 576 -186 552 -160 541 -112 c 0
EndSplineSet
EndChar

StartChar: asterisk
Encoding: 42 42 103
Width: 1080
VWidth: 1920
Flags: HMW
LayerCount: 2
Fore
SplineSet
618 1027.88483451 m 0
 648.164908939 1026.77390295 687.115075779 1018 748 1018 c 0
 802 1018 870 1026 930 1026 c 0
 995 1026 1041 954 1041 887 c 0
 1041 842 1023 817 988 817 c 0
 929 817 805 896 715 921 c 0
 668.471858558 933.722538675 636.214086878 944.463081551 614 954.230269355 c 0
 600.732269476 960.063883694 600.732269476 960.063883694 608.60910277 947 c 0
 624.283671248 921.003418388 635.407655559 882.273863535 667 826 c 0
 694 779 734 724 764 672 c 0
 796 616 758 539 700 506 c 0
 661 483 630 486 613 517 c 0
 583 568 590 715 566 806 c 0
 554.032526897 852.781940311 547.325675005 886.017781004 544.687089346 910 c 0
 543.133981525 924.116264057 543.133981525 924.116264057 534.288151014 909 c 0
 518.928384667 882.752347651 491.783232424 852.935182294 460 799 c 0
 433 752 405 690 375 638 c 0
 343 582 257 577 199 611 c 0
 160 633 147 662 165 692 c 0
 194 743 325 811 392 877 c 0
 425.560444429 909.853908757 450.634613705 931.975175408 470 946.27355366 c 0
 482.363404312 955.402038299 482.363404312 955.402038299 463 956.115165493 c 0
 432.835091061 957.226097048 393.884924221 966 333 966 c 0
 279 966 211 958 151 958 c 0
 86 958 40 1030 40 1097 c 0
 40 1142 58 1167 93 1167 c 0
 152 1167 276 1088 366 1063 c 0
 409.149320661 1051.20135763 440.025612858 1041.10730255 462 1031.91336212 c 0
 478.592520405 1024.97115968 478.592520405 1024.97115968 468.428012561 1044 c 0
 454.649396876 1069.79476368 442.872678107 1106.57054212 414 1158 c 0
 387 1205 347 1260 317 1312 c 0
 285 1368 323 1445 381 1478 c 0
 420 1501 451 1498 468 1467 c 0
 498 1416 491 1269 515 1178 c 0
 526 1135 532.555555556 1103.44444444 535.592592593 1080 c 0
 538.038261185 1061.12063148 538.038261185 1061.12063148 549.124085144 1079 c 0
 564.820670773 1104.31566802 590.819247665 1133.78417786 621 1185 c 0
 648 1232 676 1294 706 1346 c 0
 738 1402 824 1407 882 1373 c 0
 921 1351 934 1322 916 1292 c 0
 887 1241 756 1173 689 1107 c 0
 656.01431636 1074.70875181 631.226722705 1052.78567624 612 1038.4679724 c 0
 598.740770278 1028.5941251 598.740770278 1028.5941251 618 1027.88483451 c 0
EndSplineSet
EndChar

StartChar: plus
Encoding: 43 43 104
Width: 1222
Flags: HMW
LayerCount: 2
Fore
SplineSet
657 456 m 2
 657 280 664 166 664 90 c 0
 664 63 661 50 640 50 c 2
 580 50 l 2
 559 50 556 63 556 90 c 0
 556 166 563 280 563 456 c 2
 563 533 l 2
 563 709 556 854 556 930 c 0
 556 957 559 970 580 970 c 2
 640 970 l 2
 661 970 664 957 664 930 c 0
 664 854 657 709 657 533 c 2
 657 456 l 2
130 478 m 4
 130 502 141 515 169 545 c 4
 183 560 196 568 217 568 c 4
 280 568 841 553 894 553 c 4
 986 553 1005 569 1060 569 c 4
 1079 569 1092 552 1092 533 c 4
 1092 509 1084 498 1067 467 c 4
 1058 450 1044 441 1025 441 c 4
 997 441 948 460 885 460 c 6
 340 460 l 6
 260 460 174 450 159 450 c 4
 145 450 130 460 130 478 c 4
EndSplineSet
EndChar

StartChar: uni2768
Encoding: 10088 10088 105
Width: 2954
Flags: HMW
LayerCount: 2
Fore
SplineSet
433 -241 m 0
 277 -241 100 -162 100 45 c 0
 100 262 322 423 667 489 c 0
 715 498 768 508 825 519 c 1
 680 565 529 685 529 856 c 0
 529 1081 727 1215 971 1250 c 1
 905 1297 857 1357 857 1435 c 0
 857 1568 968 1643 1097 1643 c 0
 1196 1643 1264 1584 1264 1544 c 0
 1264 1504 1234 1478 1189 1478 c 0
 1153 1478 1139 1518 1089 1518 c 0
 1049 1518 1002 1479 1002 1415 c 0
 1002 1343 1073 1291 1140 1259 c 1
 1371 1251 1585 1152 1739 1031 c 1
 1768 1063 1795 1094 1819 1122 c 0
 1951 1278 2170 1437 2374 1437 c 0
 2508 1437 2640 1368 2714 1309 c 1
 2714 1511 l 2
 2714 1545.69871855 2770.90164932 1548 2786 1548 c 0
 2796.29111218 1548 2854 1546.46353978 2854 1512 c 2
 2854 43 l 2
 2854 12.3080414971 2803.99965783 2 2780 2 c 0
 2760 2 2714 12.2333984375 2714 38 c 2
 2714 447 l 1
 2671 340 2566 152 2326 152 c 0
 2065 152 1752 447 1533 686 c 1
 1432 589 1234 454 682 363 c 0
 403 317 235 178 235 34 c 0
 235 -50 307 -131 442 -131 c 0
 577 -131 640 -39 642 37 c 0
 643 74 665 119 705 119 c 0
 745 119 770 88 770 22 c 0
 770 -104 639 -241 433 -241 c 0
1827 953 m 1
 2037 764 2244 622 2450 622 c 0
 2588 622 2670 699 2714 760 c 1
 2714 1122 l 1
 2628 1264 2510 1290 2368 1290 c 0
 2215 1290 2062 1191 1939 1065 c 0
 1909 1035 1871 996 1827 953 c 1
1164 600 m 0
 1218 617 1267 635 1306 654 c 0
 1352 677 1407 716 1463 763 c 1
 1263 973 1098 1056 930 1056 c 0
 770 1056 642 988 642 830 c 0
 642 692 800 580 1000 580 c 0
 1079 580 1129 589 1164 600 c 0
EndSplineSet
EndChar

StartChar: uni2698
Encoding: 9880 9880 107
Width: 1981
Flags: HMW
LayerCount: 2
Fore
SplineSet
202 -146 m 0
 150 -146 100 -100 100 -14 c 0
 100 72 172 138 268 138 c 0
 334 138 374 126 454 91 c 0
 648 6 875 -85 1073 -85 c 0
 1170 -85 1306 -11 1306 81 c 0
 1306 177 1271 215 1244 215 c 0
 1214 215 1163 44 1044 44 c 0
 854 44 716 167 565 192 c 0
 463 209 279 248 279 417 c 0
 279 548 350 546 350 585 c 0
 350 624 113 618 113 858 c 0
 113 1018 148 1043 205 1130 c 0
 262 1217 295 1275 337 1365 c 0
 379 1455 483 1509 564 1509 c 0
 669 1509 691 1412 728 1412 c 0
 765 1412 761 1584 1006 1584 c 0
 1201 1584 1230 1489 1365 1464 c 0
 1505 1438 1600 1345 1600 1240 c 0
 1600 1165 1584 1157 1584 1124 c 0
 1584 1099 1657 1092 1726 1047 c 0
 1795 1002 1873 891 1873 790 c 0
 1873 689 1814 635 1747 558 c 0
 1689 491 1706 378 1646 291 c 0
 1602 227 1558 204 1518 204 c 0
 1481 204 1457 205 1428 205 c 0
 1410 205 1398 202 1398 194 c 0
 1398 173 1427 154 1427 95 c 0
 1427 5.0966796875 1392 -9.740234375 1392 -42 c 0
 1392 -54 1399 -63 1417 -63 c 0
 1423 -63 1431 -61 1441 -59 c 0
 1596 -20 1674 57 1750 142 c 0
 1774 170 1794 189 1822 189 c 0
 1850 189 1881 171 1881 123 c 0
 1881 95 1868 60 1830 26 c 0
 1695 -94 1520 -212 1162 -212 c 0
 854 -212 613 -102 363 -7 c 0
 331 5 312 10 288 10 c 0
 254 10 248 0 248 -20 c 0
 248 -40 268 -52 268 -84 c 0
 268 -116 254 -146 202 -146 c 0
846 978 m 0
 770 978 738 1089 707 1180 c 0
 676 1271 644 1342 551 1342 c 0
 438 1342 410 1203 351 1129 c 0
 292 1055 259 977 259 879 c 0
 259 781 331 731 441 731 c 0
 561 731 633 792 707 792 c 0
 761 792 804 766 804 716 c 0
 804 666 787 607 697 604 c 0
 587 600 447 573 447 443 c 0
 447 313 624 340 684 312 c 0
 788 263 914 170 984 170 c 0
 1044 170 1119 226 1119 319 c 0
 1119 432 1013 575 1013 631 c 0
 1013 667 1037 697 1086 697 c 0
 1165 697 1192 672 1208 611 c 0
 1218 572 1226 532 1259 477 c 0
 1294 418 1352 341 1434 341 c 0
 1546 341 1573 442 1584 493 c 0
 1595 545 1623 614 1671 688 c 0
 1700 733 1722 764 1722 803 c 0
 1722 842 1692 876 1658 908 c 0
 1624 940 1578 969 1537 969 c 0
 1496 969 1469 941 1419 908 c 0
 1376 880 1305 835 1252 835 c 0
 1211 835 1181 865 1181 904 c 0
 1181 963 1264 996 1343 1034 c 0
 1422 1072 1471 1098 1471 1193 c 0
 1471 1288 1331 1317 1233 1366 c 0
 1135 1415 1106 1452 1002 1452 c 0
 898 1452 858 1382 858 1319 c 0
 858 1256 878 1206 917 1165 c 0
 946 1134 964 1117 964 1066 c 0
 964 1015 912 978 846 978 c 0
EndSplineSet
EndChar

StartChar: uni2769
Encoding: 10089 10089 108
Width: 2954
Flags: HMW
LayerCount: 2
Fore
SplineSet
2521 -241 m 0
 2315 -241 2184 -104 2184 22 c 0
 2184 88 2209 119 2249 119 c 0
 2289 119 2311 74 2312 37 c 0
 2314 -39 2377 -131 2512 -131 c 0
 2647 -131 2719 -50 2719 34 c 0
 2719 178 2551 317 2272 363 c 0
 1720 454 1522 589 1421 686 c 1
 1202 447 889 152 628 152 c 0
 388 152 283 340 240 447 c 1
 240 38 l 2
 240 12.2333984375 194 2 174 2 c 0
 150 2 100 12.3076171875 100 43 c 2
 100 1512 l 2
 100 1546.46386719 157.708984375 1548 168 1548 c 0
 183.098632812 1548 240 1545.69824219 240 1511 c 2
 240 1309 l 1
 314 1368 446 1437 580 1437 c 0
 784 1437 1003 1278 1135 1122 c 0
 1159 1094 1186 1063 1215 1031 c 1
 1369 1152 1583 1251 1814 1259 c 1
 1881 1291 1952 1343 1952 1415 c 0
 1952 1479 1905 1518 1865 1518 c 0
 1815 1518 1801 1478 1765 1478 c 0
 1720 1478 1690 1504 1690 1544 c 0
 1690 1584 1758 1643 1857 1643 c 0
 1986 1643 2097 1568 2097 1435 c 0
 2097 1357 2049 1297 1983 1250 c 1
 2227 1215 2425 1081 2425 856 c 0
 2425 685 2274 565 2129 519 c 1
 2186 508 2239 498 2287 489 c 0
 2632 423 2854 262 2854 45 c 0
 2854 -162 2677 -241 2521 -241 c 0
1127 953 m 1
 1083 996 1045 1035 1015 1065 c 0
 892 1191 739 1290 586 1290 c 0
 444 1290 326 1264 240 1122 c 1
 240 760 l 1
 284 699 366 622 504 622 c 0
 710 622 917 764 1127 953 c 1
1790 600 m 0
 1825 589 1875 580 1954 580 c 0
 2154 580 2312 692 2312 830 c 0
 2312 988 2184 1056 2024 1056 c 0
 1856 1056 1691 973 1491 763 c 1
 1547 716 1602 677 1648 654 c 0
 1687 635 1736 617 1790 600 c 0
EndSplineSet
EndChar

StartChar: uni2767
Encoding: 10087 10087 109
Width: 2933
Flags: HMW
LayerCount: 2
Fore
SplineSet
353 505 m 0
 213 505 100 618 100 773 c 0
 100 958 244 1079 439 1079 c 0
 540 1079 625 1050 723 982 c 1
 719 1013 716 1049 716 1086 c 0
 716 1252 864 1414 1122 1414 c 0
 1450 1414 1565 1122 1791 872 c 0
 2000 641 2175 448 2381 448 c 0
 2587 448 2721 616 2721 794 c 0
 2721 972 2583 1070 2457 1070 c 0
 2341 1070 2285 1020 2257 950 c 0
 2248 928 2247 904 2207 904 c 0
 2177 904 2158 913 2158 949 c 0
 2158 1045 2293 1166 2459 1166 c 0
 2695 1166 2833 1006 2833 802 c 0
 2833 618 2688 357 2448 330 c 1
 2397.47460938 127.8984375 2231.04589844 -65 1891 -65 c 4
 1531 -65 1329 80 1192 227 c 2
 694 761 l 2
 573 890 466 947 366 947 c 0
 266 947 196 867 196 771 c 0
 196 665 253 581 351 581 c 0
 392 581 403 560 403 539 c 0
 403 518 383 505 353 505 c 0
884 848 m 1
 910 824 937 797 966 768 c 2
 1451 284 l 2
 1570 167 1724 66 1933 66 c 0
 2079.59730552 66 2280.09960938 97.298828125 2354 319 c 1
 2098 331 1857.46355404 486.984141678 1681 698 c 2
 1395 1040 l 2
 1275.0025961 1183.49339907 1157 1278 1017 1278 c 0
 897 1278 815 1158 815 1064 c 0
 815 1002 841 924 884 848 c 1
EndSplineSet
EndChar

StartChar: bullet
Encoding: 8226 8226 110
Width: 569
Flags: HMW
LayerCount: 2
Fore
SplineSet
138 811 m 0
 138 861 183.456054688 882.947265625 240 900 c 0
 303 919 321 977 385 977 c 0
 428.102539062 977 520 903.655273438 520 717 c 8
 520 639 500 584 439 584 c 0
 407 584 395.287109375 617.942382812 374 669 c 0
 349.818359375 727 337.818359375 741 216 741 c 0
 168 741 138 771 138 811 c 0
EndSplineSet
EndChar

StartChar: equal
Encoding: 61 61 111
Width: 1124
Flags: HMW
LayerCount: 2
Fore
SplineSet
551 318 m 2
 325 318 216 311 140 311 c 0
 113 311 100 314 100 335 c 2
 100 395 l 2
 100 416 113 419 140 419 c 0
 216 419 325 412 551 412 c 2
 572 412 l 2
 798 412 908 419 984 419 c 0
 1011 419 1024 416 1024 395 c 2
 1024 335 l 2
 1024 314 1011 311 984 311 c 0
 908 311 798 318 572 318 c 2
 551 318 l 2
551 608 m 6
 325 608 216 601 140 601 c 4
 113 601 100 604 100 625 c 6
 100 685 l 6
 100 706 113 709 140 709 c 4
 216 709 325 702 551 702 c 6
 572 702 l 6
 798 702 908 709 984 709 c 4
 1011 709 1024 706 1024 685 c 6
 1024 625 l 6
 1024 604 1011 601 984 601 c 4
 908 601 798 608 572 608 c 6
 551 608 l 6
EndSplineSet
EndChar

StartChar: A.swsh
Encoding: 1114112 -1 112
Width: 2017
VWidth: 1920
Flags: HMW
LayerCount: 2
Fore
SplineSet
489 48 m 0
 1142 48 1106 1415 1828 1415 c 0
 1911 1415 1921 1381.60058594 1921 1328 c 0
 1921 1210 1865 1072 1843 894 c 2
 1807 604 l 2
 1776 348 1757 169 1778 113 c 0
 1787 89 1801 86 1821 86 c 0
 1865 86 1884 105 1913 105 c 0
 1937 105 1945 87.1953125 1945 74 c 0
 1945 31 1903 16 1856 7 c 0
 1798 -4 1724 -15 1633 -15 c 0
 1547 -15 1475 -14 1429 -5 c 0
 1381 4 1355 12 1355 45 c 0
 1355 72.1171875 1373 85 1401 85 c 0
 1424 85 1445 72 1482 72 c 0
 1501 72 1520 82 1534 108 c 0
 1557 152 1609 340 1609 415 c 0
 1609 463.5078125 1606 460 1566 464 c 0
 1502 471 1420 478 1361 478 c 0
 1310 478 1207 470 1147 464 c 0
 1107 460 1107 460 1086 423 c 0
 949 175 832 -36 492 -36 c 0
 260 -36 60 61 60 338 c 0
 60 685 275 778 395 778 c 0
 481 778 544 721 544 664 c 0
 544 607 511 558 445 558 c 0
 380 558 350 651 308 651 c 0
 264 651 142 589 142 358 c 0
 142 120 302 48 489 48 c 0
1629 594 m 2
 1667 901 l 2
 1679 997 1704 1187 1704 1233 c 0
 1704 1272.11523438 1704 1280 1688 1280 c 0
 1477 1275 1251 770 1174 596 c 0
 1159 562 1158 561 1184 565 c 0
 1224 570 1306 579 1361 579 c 0
 1444 579 1548 569 1586 569 c 0
 1614 569 1627 576 1629 594 c 2
EndSplineSet
EndChar

StartChar: B.swsh
Encoding: 1114113 -1 113
Width: 1787
VWidth: 1920
Flags: HMW
LayerCount: 2
Fore
SplineSet
809 9 m 0
 723 9 687 -5 592 -5 c 0
 519 -5 508 10.833984375 508 38 c 0
 508 90 562 83 628 93 c 0
 699 104 713 179 763 590 c 2
 802 900 l 2
 825 1085 835 1196 835 1254 c 0
 835 1292.01315562 832 1317 731 1317 c 0
 514 1317 217 1158 217 827 c 4
 217 694.66796875 263 644 307 644 c 0
 349 644 390 737 465 737 c 0
 514 737 541 700.427734375 541 653 c 0
 541 575 464 517 378 517 c 0
 258 517 136 577.826171875 136 827 c 0
 136 1188 489 1401 744 1401 c 0
 812 1401 822 1400 924 1400 c 0
 1046 1400 1167 1408 1286 1408 c 0
 1543 1408 1690 1318 1690 1098 c 0
 1690 1001.25292969 1628 901 1553 843 c 0
 1515 814 1470 802 1470 783 c 0
 1470 769.847053562 1512 752 1556 740 c 0
 1688 702 1741 598.036132812 1741 458 c 0
 1741 221 1503 -7 1172 -7 c 0
 1053 -7 923 9 809 9 c 0
1188 772 m 0
 1394 772 1499 921.06640625 1499 1042 c 0
 1499 1208 1408 1327 1246 1327 c 0
 1081 1327 1048 1293 1036 1234 c 0
 1017 1147 1005 1072 994 984 c 0
 989 941 978 864.020824299 978 840 c 0
 978 783 980 772 1188 772 c 0
1171 69 m 0
 1367 69 1536 197 1536 400 c 0
 1536 621.650390625 1438 693 1298 693 c 0
 1239 693 1104 688 1057 688 c 0
 980 688 955 665 950 624 c 0
 944 579 934 503 928 456 c 0
 910 312 900 203 910 153 c 0
 918 117 963 69 1171 69 c 0
EndSplineSet
EndChar

StartChar: D.swsh
Encoding: 1114114 -1 114
Width: 2087
VWidth: 1920
Flags: HMW
LayerCount: 2
Fore
SplineSet
1134 -13 m 0
 986 -13 844 6 743 6 c 0
 657 6 611 -5 516 -5 c 0
 443 -5 433 15 433 42 c 0
 433 80 466 97 504 97 c 0
 523 97 546 94 570 94 c 0
 590 94 614 104 630 131 c 0
 663 187 683 314 717 590 c 2
 756 900 l 2
 799 1247 769 1317 711 1317 c 0
 688 1317 661 1313 645 1313 c 0
 445 1289 196 1130 196 837 c 0
 196 695 243 644 287 644 c 0
 329 644 370 737 435 737 c 0
 491 737 522 702 522 645 c 0
 522 570 444 517 358 517 c 0
 238 517 115 578 115 837 c 0
 115 1176 469 1401 724 1401 c 0
 792 1401 802 1400 904 1400 c 0
 1039 1400 1219 1408 1360 1408 c 0
 1727 1408 2032 1240 2032 827 c 0
 2032 447.998046875 1729 69 1376 5 c 0
 1296 -9 1214 -13 1134 -13 c 0
1193 77 m 0
 1290 77 1385 77 1482 124 c 0
 1697 228 1827 474 1827 737 c 0
 1827 1040 1699 1329 1329 1329 c 0
 1155 1329 1047 1310 1034 1301 c 0
 1015 1288 1004 1245 996 1208 c 0
 976 1111 957 999 943 888 c 0
 918 686 889 401 867 195 c 0
 864 171 866 129 886 120 c 0
 923 103 1019 77 1193 77 c 0
EndSplineSet
EndChar

StartChar: E.swsh
Encoding: 1114115 -1 115
Width: 1657
VWidth: 1920
Flags: HMW
LayerCount: 2
Fore
SplineSet
789 -1 m 0
 703 -1 671 -3 586 -3 c 0
 515 -3 486 14 486 49 c 0
 486 78.2744140625 508 89 534 89 c 0
 554 89 576 83 605 83 c 0
 658 83 665 135 707 378 c 0
 735 542 748 622 772 820 c 0
 795 1005 816 1196 816 1254 c 0
 816 1292.01269531 812 1317 711 1317 c 0
 494 1317 196 1179.28808594 196 799 c 0
 196 702 243 644 287 644 c 0
 329 644 370 737 435 737 c 0
 501 737 521 691.427734375 521 644 c 0
 521 568 444 517 358 517 c 0
 238 517 114 590 114 797 c 0
 114 1196.38964844 469 1401 724 1401 c 0
 792 1401 894 1401 996 1401 c 0
 1118 1401 1291 1396 1410 1396 c 0
 1523 1396 1568 1426 1605 1426 c 0
 1638 1426 1674 1322 1674 1212 c 0
 1674 1136.77246094 1632 1095 1614 1095 c 0
 1594 1095 1588 1134 1572 1183 c 0
 1552 1246 1519 1296 1438 1309 c 0
 1377 1319 1258 1319 1196 1319 c 0
 1061 1319 1038 1313 1024 1244 c 0
 1010 1180 980 1021 958 838 c 0
 952 791 962 773 988 763 c 0
 1016 753 1061 750 1126 750 c 0
 1260 750 1324 794 1332 858 c 0
 1334 874 1334 885 1336 901 c 0
 1338 914 1346 926 1364 926 c 0
 1421 926 1420 840 1405 716 c 0
 1387 570 1358 495 1314 495 c 0
 1291 495 1293 524 1293 564 c 0
 1293 610.389648438 1289 672 1157 672 c 0
 962 672 954 668 941 613 c 0
 930 564 923 521 914 446 c 0
 898 315 889 215 889 135 c 0
 889 112.977284454 891 109 916 103 c 0
 962 91 1068 80 1164 80 c 0
 1249 80 1306 81 1361 95 c 0
 1420 110 1470 150 1510 203 c 0
 1557 266 1569 314 1590 314 c 0
 1611 314 1634 277.327148438 1634 249 c 0
 1634 175 1493 -27 1447 -27 c 0
 1413 -27 1407 -3 1359 -3 c 0
 1242 -3 1131 -3 1046 -3 c 0
 959 -3 873 -1 789 -1 c 0
EndSplineSet
EndChar

StartChar: F.swsh
Encoding: 1114116 -1 116
Width: 1657
VWidth: 1920
Flags: HMW
LayerCount: 2
Fore
SplineSet
802 590 m 2
 841 900 l 2
 860 1059 882 1239 839 1259 c 0
 777 1288 683 1314 549 1314 c 0
 422 1314 205 1204 205 916 c 0
 205 764 286 673 410 673 c 0
 472 673 477 786 552 786 c 0
 608 786 638 758.475585938 638 704 c 0
 638 622 540 566 454 566 c 0
 274 566 124 657 124 916 c 0
 124 1283 423 1430 678 1430 c 0
 886 1430 1117 1379 1441 1379 c 0
 1494 1379 1564 1384 1595 1394 c 0
 1655 1413 1660 1445 1693 1445 c 0
 1734 1445 1742 1414 1742 1384 c 0
 1742 1278 1559 1238 1254 1238 c 0
 1089 1238 1083 1233 1070 1174 c 0
 1053 1100 1034 976 1027 918 c 0
 1023 888 1009 828 1009 798 c 0
 1009 766 1010 762 1043 754 c 0
 1067 748 1112 745 1193 745 c 0
 1304 745 1403 782 1443 782 c 0
 1469 782 1475 764 1475 743 c 0
 1475 714 1454 659 1454 623 c 0
 1454 599 1455 589 1455 557 c 0
 1455 518 1431 499 1405 499 c 0
 1345 499 1376 621 1304 654 c 0
 1282 664 1253 665 1214 665 c 0
 1132 665 1068 660 1037 660 c 0
 1007 660 997 646 994 622 c 0
 988 572 979 511 970 436 c 2
 956 328 l 2
 917 11 879 -51 850 -127 c 0
 791 -282 672 -369 515 -369 c 0
 348 -369 224 -252 224 -151 c 0
 224 -88 278 -37 339 -37 c 0
 397 -37 422 -83 422 -126 c 0
 422 -137 418 -157 418 -170 c 0
 418 -228 440 -296 550 -296 c 0
 658 -296 713 -183 734 -15 c 0
 743 60 763 274 802 590 c 2
EndSplineSet
EndChar

StartChar: G.swsh
Encoding: 1114117 -1 117
Width: 1508
VWidth: 1920
Flags: HMW
LayerCount: 2
Fore
SplineSet
751 -42 m 0
 376 -42 107 234 107 599 c 0
 107 996 423 1448 954 1448 c 0
 1234 1448 1274 1338 1344 1338 c 0
 1400 1338 1389 1357 1437 1357 c 0
 1477 1357 1497 1231 1483 1115 c 0
 1469 1003 1418 940 1363 940 c 0
 1308 940 1333 1016 1329 1069 c 0
 1315 1226 1143 1369 926 1369 c 0
 504 1369 311 969 311 657 c 0
 311 329 507 53 813 53 c 0
 1090 53 1186 193 1186 381 c 0
 1186 408.166015625 1186 464 1143 464 c 0
 1112 464 1072 444 1047 444 c 0
 1022 444 1009 453.796875 1009 476 c 0
 1009 494 1025 514 1054 525 c 0
 1097 541 1183 557 1304 557 c 0
 1334 557 1425 553 1479 545 c 0
 1522 538 1541 526.227539062 1541 491 c 0
 1541 456 1520 450 1501 450 c 0
 1481 450 1468 455 1450 455 c 0
 1432 455 1411 450 1399 354 c 2
 1379 184 l 2
 1332 -199 1099 -379 932 -379 c 0
 798 -379 741 -326 741 -267 c 4
 741 -219.618164062 778 -188 824 -188 c 0
 917 -188 890 -292 957 -292 c 0
 1096 -292 1154 -94 1181 120 c 1
 1120 14 950 -42 751 -42 c 0
EndSplineSet
EndChar

StartChar: M.swsh
Encoding: 1114118 -1 118
Width: 2864
VWidth: 1920
Flags: HMW
LayerCount: 2
Fore
SplineSet
1328 1314 m 0
 1303 1314 1259 1300 1230 1300 c 0
 1210 1300 1196 1310.90039062 1196 1330 c 0
 1196 1367 1235 1383 1273 1391 c 0
 1337 1404 1400 1410 1491 1410 c 0
 1512 1410 1587 1408 1609 1403 c 0
 1645 1395 1656 1378 1664 1351 c 2
 1831 441 l 2
 1853 365 1868 352 1886 352 c 0
 1901 352 1918 369 1960 441 c 2
 2438 1340 l 2
 2455 1372 2466 1387 2504 1396 c 0
 2533 1403 2599 1410 2641 1410 c 0
 2727 1410 2788 1407 2824 1403 c 0
 2876 1397 2887 1378.1796875 2887 1355 c 0
 2887 1325 2865 1310 2843 1310 c 0
 2824 1310 2799 1315 2766 1315 c 0
 2676 1315 2604 1231 2620 794 c 2
 2631 504 l 2
 2642 184 2679 82 2754 82 c 0
 2779 82 2797 93 2826 93 c 0
 2846 93 2858 80.099609375 2858 60 c 0
 2858 26 2819 6 2781 0 c 0
 2718 -10 2656 -15 2565 -15 c 0
 2479 -15 2379 -5 2333 6 c 0
 2282 18 2271 32 2271 55 c 0
 2271 77.1171875 2293 94 2321 94 c 0
 2344 94 2361 83 2398 83 c 0
 2458 83 2471 190 2457 591 c 2
 2445 941 l 2
 2441 1043 2446 1068 2417 1068 c 0
 2393 1068 2369 1018 2342 969 c 2
 1850 46 l 2
 1820 -10 1804 -19 1792 -19 c 0
 1778 -19 1759 -10 1746 45 c 2
 1504 1071 l 2
 1477 1186 1461 1175 1450 1124 c 0
 1294 387 960 -36 524 -36 c 0
 292 -36 120 79 120 358 c 0
 120 697.173828125 400 808 520 808 c 0
 606 808 656 755.427734375 656 698 c 0
 656 641 614 588 548 588 c 0
 483 588 460 681 418 681 c 0
 374 681 220 596.33203125 220 364 c 4
 220 136 355 58 542 58 c 0
 859 58 1221 384 1385 1261 c 0
 1389 1281 1389 1281 1375 1293 c 0
 1355 1311 1339 1314 1328 1314 c 0
EndSplineSet
EndChar

StartChar: N.swsh
Encoding: 1114119 -1 119
Width: 2746
VWidth: 1920
Flags: HMW
LayerCount: 2
Fore
SplineSet
1291 1314 m 0
 1266 1314 1232 1307 1203 1307 c 0
 1183 1307 1170 1318.90039062 1170 1337 c 0
 1170 1374 1218 1388 1256 1396 c 0
 1320 1409 1422 1410 1483 1410 c 0
 1549 1410 1572 1393 1596 1359 c 2
 2298 386 l 2
 2318 358 2333 345 2354 345 c 0
 2378 345 2388 410 2410 586 c 2
 2446 876 l 2
 2488 1223 2467 1323 2402 1323 c 0
 2377 1323 2341 1312 2312 1312 c 0
 2292 1312 2281 1325.90039062 2281 1344 c 0
 2281 1387 2343 1415 2539 1415 c 0
 2762 1415 2802 1376 2802 1339 c 0
 2802 1317.8828125 2781 1301 2753 1301 c 0
 2730 1301 2724 1311 2687 1311 c 0
 2627 1311 2575 1240 2525 829 c 2
 2489 539 l 2
 2444 175 2394 -35 2342 -35 c 0
 2306 -35 2296 -19 2277 8 c 2
 1598 970 l 2
 1564 1018 1564 1018 1541 970 c 0
 1257 367 925 -36 522 -36 c 0
 290 -36 120 78.6103515625 120 358 c 4
 120 684 398 808 518 808 c 0
 614 808 654 748.427734375 654 696 c 0
 654 640 612 588 546 588 c 0
 471 588 458 681 416 681 c 0
 372 681 214 599.33203125 214 367 c 4
 214 142 353 58 540 58 c 0
 833 58 1186 378 1481 1079 c 0
 1496 1115 1496 1115 1480 1137 c 2
 1430 1207 l 2
 1375 1285 1350 1314 1291 1314 c 0
EndSplineSet
EndChar

StartChar: P.swsh
Encoding: 1114120 -1 120
Width: 1701
VWidth: 1920
Flags: HMW
LayerCount: 2
Fore
SplineSet
942 607 m 2
 929 504 l 2
 886 157 880 97 955 97 c 0
 980 97 1020 114 1049 114 c 0
 1069 114 1081 103.16015625 1081 79 c 0
 1081 40 1056 23 989 5 c 0
 926 -12 857 -15 766 -15 c 0
 680 -15 590 -3 544 8 c 0
 493 20 484 47.8203125 484 67 c 0
 484 96 505 108 533 108 c 0
 556 108 582 96 619 96 c 0
 679 96 703 180 753 591 c 2
 790 898 l 2
 817 1117 827 1232 810 1288 c 0
 804 1308 778 1318 711 1318 c 0
 494 1318 196 1170 196 835 c 0
 196 686 243 645 287 645 c 0
 329 645 371 738 436 738 c 0
 502 738 523 699.427734375 523 642 c 0
 523 583 445 518 359 518 c 0
 239 518 115 575.826171875 115 835 c 0
 115 1188 469 1402 724 1402 c 0
 792 1402 802 1398 904 1398 c 0
 1106 1398 1146 1407 1265 1407 c 0
 1542 1407 1706 1308.00878906 1706 1086 c 0
 1706 761 1388 612 1154 612 c 0
 1013 612 978 637 961 637 c 0
 951 637 945 632 942 607 c 2
1147 689 m 0
 1313 689 1508 770 1508 1033 c 0
 1508 1174.55664062 1437 1329 1235 1329 c 0
 1070 1329 1049 1294 1035 1262 c 0
 1025 1239 1004 1119 995 1044 c 2
 986 968 l 2
 980 916 962 769 961 744 c 0
 961 716 1029 689 1147 689 c 0
EndSplineSet
EndChar

StartChar: R.swsh
Encoding: 1114121 -1 121
Width: 1940
VWidth: 1920
Flags: HMW
LayerCount: 2
Fore
SplineSet
1155 756 m 0
 1321 756 1496 831.396484375 1496 1093 c 0
 1496 1243 1437 1328 1235 1328 c 0
 1070 1328 1049 1293 1035 1261 c 0
 1025 1238 1004 1118 995 1043 c 2
 986 968 l 2
 980 916 967 809 966 784 c 0
 966 756 1037 756 1155 756 c 0
944 626 m 2
 929 504 l 2
 886 157 880 97 955 97 c 0
 980 97 1020 114 1049 114 c 0
 1069 114 1081 100.16015625 1081 82 c 0
 1081 38 1056 23 989 5 c 0
 926 -12 857 -15 766 -15 c 0
 680 -15 590 -3 544 8 c 0
 493 20 484 42.8203125 484 68 c 0
 484 93 505 108 533 108 c 0
 556 108 582 96 619 96 c 0
 679 96 703 180 753 591 c 2
 791 900 l 2
 820 1135 828 1243 806 1284 c 0
 795 1304 767 1317 711 1317 c 0
 494 1317 196 1170 196 827 c 0
 196 694.66796875 243 644 287 644 c 0
 329 644 370 737 435 737 c 0
 491 737 522 702.427734375 522 645 c 0
 522 580 444 517 358 517 c 0
 238 517 115 577.826171875 115 827 c 0
 115 1184 469 1401 724 1401 c 0
 792 1401 822 1397 904 1397 c 0
 1106 1397 1177 1416 1296 1416 c 0
 1573 1416 1712 1346 1712 1136 c 0
 1712 937.854492188 1594 811 1475 744 c 0
 1457 734 1439 727 1438 719 c 0
 1437 712 1445 704 1460 697 c 0
 1518 670 1584 618 1611 516 c 0
 1655 349 1645 104 1771 104 c 0
 1831 104 1828 171 1868 171 c 0
 1895 171 1902 157.256835938 1902 136 c 0
 1902 51 1775 -22 1685 -22 c 0
 1595 -22 1555 6 1507 68 c 0
 1431 164 1409 423 1358 562 c 0
 1324 657 1212 662 1160 662 c 0
 1019 662 980 655 963 655 c 0
 953 655 947 651 944 626 c 2
EndSplineSet
EndChar

StartChar: T.swsh
Encoding: 1114122 -1 122
Width: 1662
VWidth: 1920
Flags: HMW
LayerCount: 2
Fore
SplineSet
841 1281 m 0
 757 1305 683 1314 549 1314 c 0
 422 1314 206 1211 206 906 c 0
 206 761.66796875 276 673 410 673 c 0
 472 673 477 786 552 786 c 0
 618 786 639 747.475585938 639 700 c 0
 639 624 540 566 454 566 c 0
 274 566 125 654.874023438 125 906 c 0
 125 1287 423 1430 678 1430 c 0
 986 1430 1430 1319 1574 1319 c 0
 1658 1319 1660 1405 1699 1405 c 0
 1730 1405 1738 1377.265625 1738 1357 c 0
 1738 1284 1669 1158 1494 1158 c 0
 1333 1158 1154 1233 1117 1233 c 0
 1087 1233 1077 1225 1070 1171 c 2
 1000 604 l 2
 969 348 952 176 973 120 c 0
 982 96 997 86 1035 86 c 0
 1089 86 1119 111 1148 111 c 0
 1172 111 1180 93.1953125 1180 80 c 0
 1180 34 1105 9 1058 0 c 0
 1000 -11 917 -15 826 -15 c 0
 740 -15 669 -14 623 -5 c 0
 575 4 489 17 489 70 c 0
 489 94.1171875 510 114 538 114 c 0
 561 114 590 86 657 86 c 0
 686 86 717 105 731 131 c 0
 762 189 788 307 823 591 c 2
 897 1198 l 2
 903 1250 894 1266 841 1281 c 0
EndSplineSet
EndChar

StartChar: Y.swsh
Encoding: 1114123 -1 123
Width: 1669
VWidth: 1920
Flags: HMW
LayerCount: 2
Fore
SplineSet
1143 548 m 0
 1114 308 1104 167 1124 113 c 0
 1133 89 1157 86 1177 86 c 0
 1221 86 1246 105 1275 105 c 0
 1299 105 1307 89.1953125 1307 70 c 0
 1307 30 1245 6 1198 -3 c 0
 1140 -14 1067 -15 976 -15 c 0
 890 -15 817 -14 771 -5 c 0
 723 4 677 22 677 51 c 0
 677 76.1171875 698 95 726 95 c 0
 749 95 781 79 818 79 c 0
 837 79 859 89 872 115 c 0
 902 173 916 296 946 541 c 0
 1006 1030 858 1304 588 1304 c 0
 401 1304 216 1189 216 906 c 0
 216 753.66796875 304 660 428 660 c 0
 490 660 497 786 572 786 c 0
 638 786 658 737.427734375 658 700 c 0
 658 603 570 566 454 566 c 0
 264 566 125 666.874023438 125 906 c 0
 125 1279 403 1430 658 1430 c 0
 900 1430 1072 1283 1134 1012 c 0
 1153 929 1143 929 1189 1020 c 0
 1304 1249 1467 1424 1633 1424 c 0
 1720 1424 1764 1384.40722656 1764 1324 c 0
 1764 1262 1716 1233 1669 1233 c 0
 1589 1233 1611 1311 1553 1311 c 0
 1492 1311 1212 1090 1143 548 c 0
EndSplineSet
EndChar

StartChar: less
Encoding: 60 60 124
Width: 1025
Flags: HMW
LayerCount: 2
Fore
SplineSet
505 316 m 2
 486 324 l 2
 280 416 176 455 107 486 c 0
 82 497 80 504 80 524 c 2
 80 564 l 2
 80 584 82 591 107 602 c 0
 176 633 279 672 485 764 c 2
 504 772 l 2
 710 864 808 916 877 947 c 0
 889 952 898 956 905 956 c 0
 927 956 951 886 951 875 c 0
 951 864 940 857 921 849 c 0
 852 818 748 779 542 687 c 2
 523 678 l 2
 377 612 285 573 220 544 c 1
 286 515 377 476 524 410 c 2
 543 401 l 2
 749 309 852 271 921 240 c 0
 940 232 951 224 951 213 c 0
 951 202 927 133 905 133 c 0
 898 133 889 136 877 141 c 0
 808 172 711 224 505 316 c 2
EndSplineSet
EndChar

StartChar: greater
Encoding: 62 62 125
Width: 1025
Flags: HMW
LayerCount: 2
Fore
SplineSet
520 316 m 2
 314 224 217 172 148 141 c 0
 136 136 127 133 120 133 c 0
 98 133 74 202 74 213 c 0
 74 224 85 232 104 240 c 0
 173 271 276 309 482 401 c 2
 501 410 l 2
 648 476 739 515 805 544 c 1
 740 573 648 612 502 678 c 2
 483 687 l 2
 277 779 173 818 104 849 c 0
 85 857 74 864 74 875 c 0
 74 886 98 956 120 956 c 0
 127 956 136 952 148 947 c 0
 217 916 315 864 521 772 c 2
 540 764 l 2
 746 672 849 633 918 602 c 0
 943 591 945 584 945 564 c 2
 945 524 l 2
 945 504 943 497 918 486 c 0
 849 455 745 416 539 324 c 2
 520 316 l 2
EndSplineSet
EndChar

StartChar: asciicircum
Encoding: 94 94 126
Width: 983
Flags: HMW
LayerCount: 2
Fore
SplineSet
720 985 m 6
 812 779 864 682 895 613 c 4
 900 601 903 592 903 585 c 4
 903 563 834 539 823 539 c 4
 812 539 804 550 796 569 c 4
 765 638 727 741 635 947 c 6
 626 966 l 6
 560 1113 521 1204 492 1270 c 5
 463 1205 424 1113 358 967 c 6
 349 948 l 6
 257 742 218 638 187 569 c 4
 179 550 172 539 161 539 c 4
 150 539 80 563 80 585 c 4
 80 592 84 601 89 613 c 4
 120 682 172 780 264 986 c 6
 272 1005 l 6
 364 1211 403 1314 434 1383 c 4
 445 1408 452 1410 472 1410 c 6
 512 1410 l 6
 532 1410 539 1408 550 1383 c 4
 581 1314 620 1210 712 1004 c 6
 720 985 l 6
EndSplineSet
EndChar

StartChar: gravecomb
Encoding: 768 768 127
Width: 0
VWidth: 1920
Flags: HMW
AnchorPoint: "top" -59 920 mark 0
LayerCount: 2
Fore
SplineSet
-129 1138 m 4
 -184 1181 -231 1198 -275 1233 c 4
 -298.801757812 1251.93359375 -305 1271 -305 1297 c 4
 -305 1361 -252 1404 -207 1404 c 4
 -180 1404 -154.203125 1369.83789062 -135 1346 c 4
 -106 1310 -93.8564453125 1278.04589844 -45 1212 c 4
 9 1139 42 1107 42 1075 c 4
 42 1056 33 1045 10 1045 c 4
 -28 1045 -48 1075 -129 1138 c 4
EndSplineSet
EndChar

StartChar: acutecomb
Encoding: 769 769 129
Width: 0
VWidth: 1920
Flags: HMW
AnchorPoint: "top" -299 920 mark 0
LayerCount: 2
Fore
SplineSet
-184 1138 m 4
 -265 1075 -285 1045 -323 1045 c 4
 -346 1045 -355 1056 -355 1075 c 4
 -355 1107 -322 1139 -268 1212 c 4
 -219.143554688 1278.04589844 -207 1310 -178 1346 c 4
 -158.796875 1369.83789062 -133 1404 -106 1404 c 4
 -61 1404 -8 1361 -8 1297 c 4
 -8 1271 -14.1982421875 1251.93359375 -38 1233 c 4
 -82 1198 -129 1181 -184 1138 c 4
EndSplineSet
EndChar

StartChar: uni0302
Encoding: 770 770 130
Width: 0
VWidth: 1920
Flags: HMW
AnchorPoint: "top" -326 1024.73 mark 0
LayerCount: 2
Fore
SplineSet
-407 1195 m 4
 -481 1141 -518 1107 -545 1107 c 4
 -567 1107 -579 1117 -577 1133 c 4
 -575 1148 -565 1166 -544 1188 c 6
 -394 1345 l 6
 -356 1385 -321 1404 -289 1404 c 4
 -261 1404 -234 1392 -212 1362 c 6
 -97 1203 l 6
 -75 1173 -65 1151 -67 1133 c 4
 -69 1117 -83 1107 -105 1107 c 4
 -132 1107 -161 1141 -222 1195 c 4
 -256 1225 -280 1247 -306 1266 c 5
 -337 1247 -365 1225 -407 1195 c 4
EndSplineSet
EndChar

StartChar: tildecomb
Encoding: 771 771 131
Width: 0
VWidth: 1920
Flags: HMW
AnchorPoint: "top" -326 1024.73 mark 0
LayerCount: 2
Fore
SplineSet
-142 1297 m 4
 -102 1297 -85 1319 -75 1352 c 4
 -58 1410 -51 1432 -20 1432 c 4
 8 1432 16 1407 13 1384 c 4
 2 1293 -71 1164 -188 1164 c 4
 -338 1164 -326 1299 -396 1299 c 4
 -436 1299 -453 1277 -463 1244 c 4
 -480 1186 -486 1164 -518 1164 c 4
 -536 1164 -555 1179 -551 1212 c 4
 -540 1303 -467 1432 -350 1432 c 4
 -200 1432 -212 1297 -142 1297 c 4
EndSplineSet
EndChar

StartChar: asciitilde
Encoding: 126 126 132
Width: 1002
VWidth: 1920
Flags: HMW
LayerCount: 2
Fore
SplineSet
305 579 m 0
 235 579 193 526 171 464 c 0
 151 405 137 384 105 384 c 0
 87 384 70 398.540039062 70 442 c 0
 70 533 174 682 321 682 c 0
 511 682 544 507 684 507 c 4
 754 507 806 560 828 622 c 0
 848 681 860 702 892 702 c 0
 920 702 931 667 931 634 c 0
 931 550.399414062 825 404 671 404 c 0
 481 404 445 579 305 579 c 0
EndSplineSet
EndChar

StartChar: uni0304
Encoding: 772 772 136
Width: 0
VWidth: 1920
Flags: HMW
AnchorPoint: "top" -282 1024.73 mark 0
LayerCount: 2
Fore
SplineSet
-265 1195 m 6
 -361 1195 -411 1191 -487 1191 c 4
 -514 1191 -527 1194 -524 1215 c 6
 -516 1275 l 6
 -513 1296 -500 1299 -473 1299 c 4
 -397 1299 -349 1296 -253 1296 c 6
 -232 1296 l 6
 -116 1296 -85 1299 -9 1299 c 4
 18 1299 31 1296 28 1275 c 6
 20 1215 l 6
 17 1194 4 1191 -23 1191 c 4
 -99 1191 -128 1195 -244 1195 c 6
 -265 1195 l 6
EndSplineSet
EndChar

StartChar: uni0306
Encoding: 774 774 138
Width: 0
VWidth: 1920
Flags: HMW
AnchorPoint: "top" -326 1024.73 mark 0
LayerCount: 2
Fore
SplineSet
-313 1122 m 4
 -509 1122 -529 1280 -515 1393 c 4
 -513 1409 -505 1420 -489 1420 c 4
 -473 1420 -470 1403 -466 1387 c 4
 -449 1312 -408 1252 -297 1252 c 4
 -186 1252 -131 1312 -96 1387 c 4
 -89 1403 -81 1420 -65 1420 c 4
 -49 1420 -43 1409 -45 1393 c 4
 -59 1280 -117 1122 -313 1122 c 4
EndSplineSet
EndChar

StartChar: uni0307
Encoding: 775 775 139
Width: 0
VWidth: 1920
Flags: HMW
AnchorPoint: "top" -256 1024.73 mark 0
LayerCount: 2
Fore
SplineSet
-338 1301 m 0
 -338 1363 -288 1413 -226 1413 c 0
 -164 1413 -114 1363 -114 1301 c 0
 -114 1239 -164 1189 -226 1189 c 0
 -288 1189 -338 1239 -338 1301 c 0
EndSplineSet
EndChar

StartChar: uni0308
Encoding: 776 776 140
Width: 0
VWidth: 1920
Flags: HMW
AnchorPoint: "top" -476 1024.73 mark 0
LayerCount: 2
Fore
SplineSet
-358 1301 m 0
 -358 1363 -308 1413 -246 1413 c 0
 -184 1413 -134 1363 -134 1301 c 0
 -134 1239 -184 1189 -246 1189 c 0
 -308 1189 -358 1239 -358 1301 c 0
-738 1301 m 0
 -738 1363 -688 1413 -626 1413 c 0
 -564 1413 -514 1363 -514 1301 c 0
 -514 1239 -564 1189 -626 1189 c 0
 -688 1189 -738 1239 -738 1301 c 0
EndSplineSet
EndChar

StartChar: uni030A
Encoding: 778 778 141
Width: 0
VWidth: 1920
Flags: HMW
AnchorPoint: "top" -256 924.729 mark 0
LayerCount: 2
Fore
SplineSet
-357.364054941 1161.16613725 m 4
 -357.364054941 1106.80302411 -329.404364267 1073 -270 1073 c 4
 -251.271622878 1073 -154.635945059 1079.09225548 -154.635945059 1204.83386275 c 4
 -154.635945059 1259.19697589 -182.595635733 1293 -242 1293 c 4
 -260.728377122 1293 -357.364054941 1286.90774452 -357.364054941 1161.16613725 c 4
-235 1353 m 0
 -126.310359224 1353 -54.7291876219 1290.00190117 -54.7291876219 1203.28855047 c 0
 -54.7291876219 1100.40059373 -148.291090857 1013 -277 1013 c 0
 -385.689640776 1013 -457.270812378 1075.99809883 -457.270812378 1162.71144953 c 0
 -457.270812378 1265.59940627 -363.708909143 1353 -235 1353 c 0
EndSplineSet
EndChar

StartChar: uni030B
Encoding: 779 779 142
Width: 0
VWidth: 1920
Flags: HMW
AnchorPoint: "top" -505.5 920 mark 0
LayerCount: 2
Fore
SplineSet
-527.5 1138 m 0
 -592.299804688 1075 -608.299804688 1045 -638.700195312 1045 c 0
 -657.099609375 1045 -664.299804688 1056 -664.299804688 1075 c 0
 -664.299804688 1107 -637.900390625 1139 -594.700195312 1212 c 0
 -555.615234375 1278.04589844 -545.900390625 1310 -522.700195312 1346 c 0
 -507.337890625 1369.83789062 -486.700195312 1404 -465.099609375 1404 c 0
 -429.099609375 1404 -386.700195312 1361 -386.700195312 1297 c 0
 -386.700195312 1271 -391.658203125 1251.93359375 -410.700195312 1233 c 0
 -445.900390625 1198 -483.5 1181 -527.5 1138 c 0
-239.5 1138 m 0
 -304.299804688 1075 -320.299804688 1045 -350.700195312 1045 c 0
 -369.099609375 1045 -376.299804688 1056 -376.299804688 1075 c 0
 -376.299804688 1107 -349.900390625 1139 -306.700195312 1212 c 0
 -267.615234375 1278.04589844 -257.900390625 1310 -234.700195312 1346 c 0
 -219.337890625 1369.83789062 -198.700195312 1404 -177.099609375 1404 c 0
 -141.099609375 1404 -98.7001953125 1361 -98.7001953125 1297 c 0
 -98.7001953125 1271 -103.658203125 1251.93359375 -122.700195312 1233 c 0
 -157.900390625 1198 -195.5 1181 -239.5 1138 c 0
EndSplineSet
EndChar

StartChar: uni030F
Encoding: 783 783 143
Width: 0
VWidth: 1920
Flags: HMW
AnchorPoint: "top" -317.5 920 mark 0
LayerCount: 2
Fore
SplineSet
-235.5 1138 m 0
 -279.5 1181 -317.099609375 1198 -352.299804688 1233 c 0
 -371.341796875 1251.93359375 -376.299804688 1271 -376.299804688 1297 c 0
 -376.299804688 1361 -333.900390625 1404 -297.900390625 1404 c 0
 -276.299804688 1404 -255.662109375 1369.83789062 -240.299804688 1346 c 0
 -217.099609375 1310 -207.384765625 1278.04589844 -168.299804688 1212 c 0
 -125.099609375 1139 -98.7001953125 1107 -98.7001953125 1075 c 0
 -98.7001953125 1056 -105.900390625 1045 -124.299804688 1045 c 0
 -154.700195312 1045 -170.700195312 1075 -235.5 1138 c 0
-523.5 1138 m 0
 -567.5 1181 -605.099609375 1198 -640.299804688 1233 c 0
 -659.341796875 1251.93359375 -664.299804688 1271 -664.299804688 1297 c 0
 -664.299804688 1361 -621.900390625 1404 -585.900390625 1404 c 0
 -564.299804688 1404 -543.662109375 1369.83789062 -528.299804688 1346 c 0
 -505.099609375 1310 -495.384765625 1278.04589844 -456.299804688 1212 c 0
 -413.099609375 1139 -386.700195312 1107 -386.700195312 1075 c 0
 -386.700195312 1056 -393.900390625 1045 -412.299804688 1045 c 0
 -442.700195312 1045 -458.700195312 1075 -523.5 1138 c 0
EndSplineSet
EndChar

StartChar: uni030C
Encoding: 780 780 144
Width: 0
VWidth: 1920
Flags: HMW
AnchorPoint: "top" -326 1024.73 mark 0
LayerCount: 2
Fore
SplineSet
-197 1316 m 4
 -123 1370 -86 1404 -59 1404 c 4
 -37 1404 -25 1394 -27 1378 c 4
 -29 1363 -39 1345 -60 1323 c 6
 -210 1166 l 6
 -248 1126 -283 1107 -315 1107 c 4
 -343 1107 -370 1120 -392 1150 c 6
 -507 1308 l 6
 -529 1338 -539 1360 -537 1378 c 4
 -535 1394 -521 1404 -499 1404 c 4
 -472 1404 -443 1370 -382 1316 c 4
 -348 1286 -324 1265 -298 1246 c 5
 -267 1265 -239 1286 -197 1316 c 4
EndSplineSet
EndChar

StartChar: uni0311
Encoding: 785 785 145
Width: 0
VWidth: 1920
Flags: HMW
AnchorPoint: "top" -326 1024.73 mark 0
LayerCount: 2
Fore
SplineSet
-277 1420 m 4
 -81 1420 -61 1261 -75 1148 c 4
 -77 1132 -85 1122 -101 1122 c 4
 -117 1122 -120 1138 -124 1154 c 4
 -141 1229 -182 1290 -293 1290 c 4
 -404 1290 -459 1229 -494 1154 c 4
 -501 1138 -509 1122 -525 1122 c 4
 -541 1122 -547 1132 -545 1148 c 4
 -531 1261 -473 1420 -277 1420 c 4
EndSplineSet
EndChar

StartChar: uni0312
Encoding: 786 786 146
Width: 0
Flags: HMW
AnchorPoint: "top" -634 920 mark 0
LayerCount: 2
Fore
SplineSet
-499 1331 m 0
 -499 1319 -513 1314 -529 1302 c 0
 -567 1273 -598 1231 -598 1207 c 0
 -598 1172 -512 1187 -512 1097 c 0
 -512 1043 -544 1011 -598 1011 c 0
 -652 1011 -693 1050 -693 1124 c 0
 -693 1250 -588 1370 -537 1370 c 0
 -520 1370 -499 1348 -499 1331 c 0
EndSplineSet
EndChar

StartChar: dotbelowcomb
Encoding: 803 803 147
Width: 0
VWidth: 1920
Flags: HMW
AnchorPoint: "bottom" -255 0 mark 0
LayerCount: 2
Fore
SplineSet
-368 -239 m 0
 -368 -177 -318 -127 -256 -127 c 0
 -194 -127 -144 -177 -144 -239 c 0
 -144 -301 -194 -351 -256 -351 c 0
 -318 -351 -368 -301 -368 -239 c 0
EndSplineSet
EndChar

StartChar: uni0326
Encoding: 806 806 148
Width: 0
Flags: HMW
AnchorPoint: "bottom" -255 0 mark 0
LayerCount: 2
Fore
SplineSet
-384 -531 m 0
 -384 -516 -365 -505 -344 -492 c 0
 -318 -476 -250 -417 -250 -387 c 0
 -250 -342.794921875 -375 -352.801757812 -375 -250 c 0
 -375 -183 -325 -140 -258 -140 c 0
 -190 -140 -133 -191 -133 -293 c 0
 -133 -451 -300 -571 -354 -571 c 0
 -366 -571 -384 -545 -384 -531 c 0
EndSplineSet
EndChar

StartChar: uni0327
Encoding: 807 807 149
Width: 0
Flags: HMW
AnchorPoint: "bottom" -255 0 mark 0
LayerCount: 2
Fore
SplineSet
-320 -440 m 0
 -452 -440 -506 -372 -506 -326 c 4
 -506 -303.796396689 -486 -291 -472 -291 c 0
 -457 -291 -445 -300 -437 -320 c 0
 -423 -360 -394 -374 -352 -374 c 0
 -261.835280303 -374 -237 -294.011362169 -237 -250 c 4
 -237 -201 -266.532721293 -178 -305 -178 c 0
 -322 -178 -339 -180 -352 -180 c 0
 -369 -180 -383 -176 -383 -154 c 0
 -383 -134.895026825 -370 -129 -350 -100 c 2
 -282 10 l 1
 -212 10 l 1
 -313 -136 l 1
 -295 -130 -272 -124 -249 -124 c 0
 -184.061063846 -124 -100 -166 -100 -255 c 4
 -100 -330.00666637 -156.797067792 -440 -320 -440 c 0
EndSplineSet
EndChar

StartChar: uni0328
Encoding: 808 808 150
Width: 0
Flags: HMW
AnchorPoint: "ogonek" -181 0 mark 0
LayerCount: 2
Fore
SplineSet
-143 38 m 1
 -119 0 l 17
 -207 -47 -326 -115 -328 -284 c 0
 -328 -330 -312 -360 -255 -360 c 8
 -179 -360 -156 -286 -122 -286 c 0
 -108 -286 -103 -293 -103 -310 c 0
 -103 -360 -205 -442 -325 -442 c 0
 -433 -442 -493 -390 -493 -296 c 0
 -493 -116 -329 -43 -143 38 c 1
EndSplineSet
EndChar

StartChar: minute
Encoding: 8242 8242 166
Width: 569
VWidth: 1920
Flags: HMW
LayerCount: 2
Fore
SplineSet
159 799 m 0
 136 799 133 814 133 844 c 0
 133 874.784179688 143.602539062 915.873046875 153.543945312 980 c 0
 161.912109375 1033.97851562 195 1271.82910156 205 1342 c 0
 214.170446611 1406.34984778 267 1453 334 1453 c 0
 389 1453 414 1415 414 1380 c 0
 414 1281.19433594 295.951171875 1060.36914062 255.293945312 947 c 0
 211.856445312 825.87890625 184.833984375 799 159 799 c 0
EndSplineSet
EndChar

StartChar: Eth
Encoding: 208 208 186
Width: 1592
VWidth: 1920
Flags: HMW
LayerCount: 2
Fore
SplineSet
415 685 m 6
 319 685 229 681 153 681 c 4
 126 681 113 684 116 705 c 6
 124 765 l 6
 127 786 140 789 167 789 c 4
 243 789 331 786 427 786 c 6
 448 786 l 6
 564 786 635 789 711 789 c 4
 738 789 751 786 748 765 c 6
 740 705 l 6
 737 684 724 681 697 681 c 4
 621 681 552 685 436 685 c 6
 415 685 l 6
EndSplineSet
Refer: 4 68 N 1 0 0 1 0 0 2
EndChar

StartChar: dotlessi
Encoding: 305 305 187
Width: 541
VWidth: 1920
Flags: HMW
AnchorPoint: "top" 321 880 basechar 0
LayerCount: 2
Fore
SplineSet
210 435 m 4
 236 555 250 644 250 688 c 4
 250 731 237 745 213 745 c 4
 195 745 177 741 160 726 c 4
 134 703 110 667 110 643 c 4
 110 620 113 588 106 570 c 4
 100 555 88 552 79 552 c 4
 53 552 40 570 40 597 c 4
 40 719.371066815 135.763110309 802.768774783 227.999997446 837.222646903 c 4
 259.377702256 848.943374504 290.347329363 855 317 855 c 4
 358 855 395 805 395 758 c 4
 395 704 386 679 348 429 c 4
 332 323 310 202 310 143 c 4
 310 99 325 75 370 75 c 4
 432 75 477 174 480 218 c 4
 482 249 494 267 511 267 c 4
 530 267 551 251 551 226 c 4
 551 190 529 96 446 30 c 4
 412 3 368 -25 310 -25 c 4
 221 -25 162 39 162 121 c 4
 162 198 174 271 210 435 c 4
EndSplineSet
EndChar

StartChar: kgreenlandic
Encoding: 312 312 188
Width: 965
VWidth: 1920
Flags: HMW
LayerCount: 2
Fore
SplineSet
239 591 m 0
 245.078125 628.987304688 250 644 250 688 c 0
 250 731 237 745 213 745 c 0
 195 745 177 741 160 726 c 0
 134 703 110 667 110 643 c 0
 110 620 113 588 106 570 c 0
 100 555 88 552 79 552 c 0
 53 552 40 570 40 597 c 0
 40 678.451251572 82.4264090505 742.635941322 137.999997715 786.613895581 c 4
 194.322400396 831.184421048 264.148667165 855 317 855 c 0
 358 855 395 815 395 768 c 0
 395 744 371 684 371 605 c 0
 371 592.909179688 371 590 378 590 c 0
 388 590 414 629 428 647 c 0
 513 757 591 851 675 851 c 0
 792 851 866 760 866 651 c 0
 866 537 786 397 666 354 c 0
 651 349 635 347 635 341 c 0
 635 333 657 319 667 305 c 0
 729 221 767 103 793 29 c 0
 799 11 806 -4 825 -4 c 0
 862 -4 899 96 913 147 c 0
 917 163 918 175 932 175 c 0
 961 175 975 170 975 139 c 0
 975 8 816 -122 732 -122 c 0
 693 -122 670 -98 658 -72 c 0
 637 -26 642 47 583 155 c 0
 529 254 481 320 454 320 c 0
 437 320 379 319 361 319 c 0
 338 319 337 304 331 270 c 0
 320 206 313 145 313 67 c 0
 313 16 294 3 266 2 c 0
 206 1 198 -12 167 -12 c 0
 149 -12 144 -3 144 16 c 0
 144 108 203 366 239 591 c 0
373 452 m 0
 373 429 388 393 492 393 c 0
 677 393 715 534 715 597 c 0
 715 650 679 714 628 714 c 0
 556 714 373 537 373 452 c 0
EndSplineSet
EndChar

StartChar: multiply
Encoding: 215 215 189
Width: 1222
Flags: HMW
LayerCount: 2
Fore
SplineSet
615 581 m 2
 739 705 815 791 869 845 c 0
 888 864 899 871 914 856 c 2
 956 814 l 2
 971 799 964 788 945 769 c 0
 891 715 805 639 681 515 c 2
 627 461 l 2
 503 337 405 229 351 175 c 0
 332 156 321 149 306 164 c 2
 264 206 l 2
 249 221 256 232 275 251 c 0
 329 305 437 403 561 527 c 2
 615 581 l 2
681 505 m 2
 805 381 891 305 945 251 c 0
 964 232 971 221 956 206 c 2
 914 164 l 2
 899 149 888 156 869 175 c 0
 815 229 739 315 615 439 c 2
 561 493 l 2
 437 617 329 715 275 769 c 0
 256 788 249 799 264 814 c 2
 306 856 l 2
 321 871 332 864 351 845 c 0
 405 791 503 683 627 559 c 2
 681 505 l 2
EndSplineSet
EndChar

StartChar: Dcroat
Encoding: 272 272 190
Width: 1592
VWidth: 1920
Flags: HMW
LayerCount: 2
Fore
SplineSet
415 685 m 6
 319 685 229 681 153 681 c 4
 126 681 113 684 116 705 c 6
 124 765 l 6
 127 786 140 789 167 789 c 4
 243 789 331 786 427 786 c 6
 448 786 l 6
 564 786 635 789 711 789 c 4
 738 789 751 786 748 765 c 6
 740 705 l 6
 737 684 724 681 697 681 c 4
 621 681 552 685 436 685 c 6
 415 685 l 6
EndSplineSet
Refer: 4 68 N 1 0 0 1 0 0 2
EndChar

StartChar: percent
Encoding: 37 37 197
Width: 1580
Flags: HMW
LayerCount: 2
Fore
SplineSet
1505 371 m 260
 1505 151 1334 -35 1159 -35 c 260
 1024 -35 902 57 902 292 c 260
 902 514 1077 685 1241 685 c 260
 1382 685 1505 600 1505 371 c 260
1158 37 m 260
 1246 37 1360 204 1360 418 c 260
 1360 539 1323 615 1248 615 c 260
 1148 615 1047 447 1047 235 c 260
 1047 105 1078 37 1158 37 c 260
758 968 m 260
 758 748 587 563 412 563 c 260
 277 563 155 654 155 889 c 260
 155 1111 330 1283 494 1283 c 260
 635 1283 758 1197 758 968 c 260
412 634 m 260
 500 634 613 801 613 1015 c 260
 613 1136 576 1212 501 1212 c 260
 401 1212 300 1045 300 833 c 260
 300 703 332 634 412 634 c 260
830 566 m 6
 662 326 540 143 449 13 c 4
 435 -7 427 -15 412 -4 c 6
 367 26 l 6
 352 37 356 48 370 68 c 4
 461 198 593 375 761 615 c 6
 800 671 l 6
 968 911 1105 1117 1196 1247 c 4
 1210 1267 1219 1275 1234 1264 c 6
 1278 1234 l 6
 1293 1223 1290 1212 1276 1192 c 4
 1185 1062 1038 863 870 623 c 6
 830 566 l 6
EndSplineSet
EndChar

StartChar: cent
Encoding: 162 162 201
Width: 833
VWidth: 1920
Flags: HMW
LayerCount: 2
Fore
SplineSet
570 855 m 0
 719 855 823 766 823 684 c 0
 823 639 776 600 735 600 c 0
 671 600 651 631 624 693 c 0
 615 714 594 757 482 757 c 0
 374 757 228 639 228 424 c 0
 228 228.997435914 351 64 505 64 c 0
 644 64 719 169 764 169 c 0
 780 169 789 162 789 146 c 0
 789 84 618 -25 414 -25 c 0
 196 -25 75 108.997536961 75 312 c 0
 75 619 325 855 570 855 c 0
469 26 m 2
 467 3 468 -44 468 -56 c 0
 468 -106 410 -120 368 -120 c 0
 347 -120 331 -104 331 -83 c 0
 331 -51 360 -47 372 72 c 2
 447 820 l 2
 451 862 455 913 455 935 c 0
 455 961 484 978 545 978 c 0
 569 978 582 968 582 956 c 0
 582 934 561 912 556 859 c 2
 469 26 l 2
EndSplineSet
EndChar

StartChar: exclamdown
Encoding: 161 161 202
Width: 569
VWidth: 1920
Flags: HMW
LayerCount: 2
Fore
SplineSet
479 732 m 4
 479 670 429 620 367 620 c 4
 305 620 255 670 255 732 c 4
 255 794 305 844 367 844 c 4
 429 844 479 794 479 732 c 4
271 -429 m 4
 251 -536 216 -601 149 -601 c 4
 89 -601 65 -548 65 -471 c 4
 65 -360 244 227 265 344 c 4
 274 396 283 441 319 441 c 4
 346 441 349 396 345 344 c 4
 339 260 291 -320 271 -429 c 4
EndSplineSet
EndChar

StartChar: AE
Encoding: 198 198 203
Width: 1920
VWidth: 1920
Flags: HMW
LayerCount: 2
Fore
SplineSet
1194 1401 m 0
 1316 1401 1510 1406 1629 1406 c 0
 1792 1406 1811 1436 1858 1436 c 0
 1901 1436 1937 1339 1937 1209 c 0
 1937 1114 1919 1088 1873 1088 c 0
 1844 1088 1835 1103 1835 1120 c 0
 1835 1136 1842 1156 1842 1183 c 0
 1842 1255 1787 1306 1704 1319 c 0
 1642 1329 1553 1331 1491 1331 c 0
 1356 1331 1266 1323 1249 1244 c 0
 1235 1181 1208 1041 1198 868 c 0
 1195 821 1199 806 1227 800 c 0
 1254 794 1317 795 1382 797 c 0
 1513 801 1555 810 1555 882 c 0
 1555 930 1558 960 1591 960 c 0
 1621 960 1629 936 1629 886 c 0
 1629 842 1622 774 1615 716 c 0
 1595 561 1584 533 1540 533 c 0
 1520 533 1508 547 1508 566 c 0
 1508 587 1521 616 1521 649 c 0
 1521 711 1484 715 1385 715 c 0
 1190 715 1186 706 1177 651 c 0
 1169 602 1158 521 1149 446 c 0
 1133 316 1123 245 1123 165 c 0
 1123 123 1157 99 1181 94 c 0
 1226 85 1336 80 1432 80 c 0
 1517 80 1605 83 1658 95 c 0
 1725 110 1761 149 1787 203 c 0
 1819 269 1822 323 1852 323 c 0
 1883 323 1904 306 1904 278 c 0
 1904 205 1830 -30 1781 -30 c 0
 1745 -30 1755 -3 1697 -3 c 0
 1580 -3 1409 -3 1324 -3 c 0
 1237 -3 1141 -1 1057 -1 c 0
 971 -1 903 -3 818 -3 c 0
 747 -3 718 17 718 51 c 0
 718 80.2745623366 740 89 766 89 c 0
 786 89 828 83 857 83 c 0
 910 83 929 135 964 378 c 0
 975 451 981 507 990 564 c 0
 993 581 993 581 974 582 c 0
 961 583 923 583 900 583 c 0
 831 583 703 574 654 568 c 0
 617 563 592 542 566 506 c 2
 382 253 l 2
 327 178 310 132.213203436 310 111 c 0
 310 75 332 63 366 63 c 0
 390 63 420 75 439 75 c 0
 451 75 466 67.1953125 466 44 c 0
 466 -10 385 -15 252 -15 c 0
 61 -15 -30 2.9892578125 -30 51 c 0
 -30 74 -14 89 9 89 c 0
 32 89 54 78 86 78 c 0
 150 78 185 145 383 402 c 2
 757 886 l 2
 885 1052 1043 1208.43945312 1043 1281 c 0
 1043 1311 1022 1320 994 1320 c 0
 971 1320 942 1312 923 1312 c 0
 899 1312 887 1326.83974432 887 1355 c 0
 887 1389 922 1405 989 1405 c 0
 1057 1405 1092 1401 1194 1401 c 0
1009 699 m 0
 1014 735 1018 774 1024 820 c 0
 1035 912 1049 1034 1056 1099 c 0
 1057 1109 1055 1115 1047 1115 c 0
 1019 1115 987 1062 951 1014 c 2
 763 763 l 2
 744 737 712 710 712 692 c 0
 712 672.786796564 722 671 738 671 c 0
 753 671 854 684 936 684 c 0
 959 684 978 684 992 683 c 0
 1006 682 1007 682 1009 699 c 0
EndSplineSet
EndChar

StartChar: sterling
Encoding: 163 163 208
Width: 1596
Flags: HMW
LayerCount: 2
Fore
SplineSet
344 598 m 0
 344 622 355 635 383 665 c 0
 397 680 410 688 431 688 c 0
 494 688 1055 673 1108 673 c 0
 1200 673 1219 689 1274 689 c 0
 1293 689 1306 672 1306 653 c 0
 1306 629 1298 618 1281 587 c 0
 1272 570 1258 561 1239 561 c 0
 1211 561 1162 580 1099 580 c 2
 554 580 l 2
 474 580 388 570 373 570 c 0
 359 570 344 580 344 598 c 0
1410 1510 m 0
 1510 1510 1562 1465 1562 1401 c 4
 1562 1344 1523 1301 1463 1301 c 0
 1393 1301 1354 1393 1290 1393 c 0
 1256 1393 1185.12109375 1353.62402344 1132 1176 c 0
 1004 748 882.418945312 535.578125 763 405 c 0
 664.216796875 296.986328125 611 257 568 232 c 0
 530.755859375 210.346679688 519.068359375 180.024414062 647 171 c 0
 888 154 1158 57 1320 57 c 0
 1366.13574219 57 1398 74 1398 108 c 0
 1398 142 1362 157 1362 217 c 0
 1362 271.125 1393.85742188 300 1450 300 c 0
 1507 300 1540 258 1540 194 c 0
 1540 80 1339 -84 1079 -84 c 0
 809 -84 568 27 465 67 c 0
 431.649414062 79.951171875 382 93 346 72 c 0
 280.80859375 33.9716796875 184 -13 96 -13 c 0
 68 -13 34 7 34 36 c 0
 34 114 221 200 402 208 c 0
 445.247070312 209.911132812 457 228 501 275 c 0
 560.955078125 339.041992188 577 368 634 452 c 0
 698.237304688 546.666015625 827.588867188 874.0078125 904 1036 c 0
 1004 1248 1220 1510 1410 1510 c 0
EndSplineSet
EndChar

StartChar: yen
Encoding: 165 165 209
Width: 1333
VWidth: 1920
Flags: HMW
LayerCount: 2
Fore
SplineSet
707 475 m 6
 511 475 392 471 316 471 c 4
 289 471 276 474 279 495 c 6
 286 555 l 6
 289 576 302 579 329 579 c 4
 405 579 524 576 720 576 c 6
 741 576 l 6
 967 576 1057 579 1133 579 c 4
 1160 579 1173 576 1170 555 c 6
 1163 495 l 6
 1160 474 1147 471 1120 471 c 4
 1044 471 954 475 728 475 c 6
 707 475 l 6
733 685 m 6
 537 685 418 681 342 681 c 4
 315 681 302 684 305 705 c 6
 312 765 l 6
 315 786 328 789 355 789 c 4
 431 789 550 786 746 786 c 6
 767 786 l 6
 993 786 1083 789 1159 789 c 4
 1186 789 1199 786 1196 765 c 6
 1189 705 l 6
 1186 684 1173 681 1146 681 c 4
 1070 681 980 685 754 685 c 6
 733 685 l 6
EndSplineSet
Refer: 25 89 N 1 0 0 1 0 0 2
EndChar

StartChar: brokenbar
Encoding: 166 166 210
Width: 428
VWidth: 1920
Flags: MW
LayerCount: 2
Fore
SplineSet
261 -14 m 2
 261 -90 268 -244 268 -320 c 0
 268 -347 265 -360 244 -360 c 2
 184 -360 l 2
 163 -360 160 -347 160 -320 c 0
 160 -244 167 -90 167 -14 c 2
 167 13 l 2
 167 89 160 244 160 320 c 4
 160 347 163 360 184 360 c 6
 244 360 l 6
 265 360 268 347 268 320 c 4
 268 244 261 89 261 13 c 2
 261 -14 l 2
261 1026 m 2
 261 950 268 796 268 720 c 0
 268 693 265 680 244 680 c 2
 184 680 l 2
 163 680 160 693 160 720 c 0
 160 796 167 950 167 1026 c 2
 167 1053 l 2
 167 1129 160 1284 160 1360 c 0
 160 1387 163 1400 184 1400 c 2
 244 1400 l 2
 265 1400 268 1387 268 1360 c 0
 268 1284 261 1129 261 1053 c 2
 261 1026 l 2
EndSplineSet
EndChar

StartChar: plusminus
Encoding: 177 177 211
Width: 1222
Flags: MW
LayerCount: 2
Fore
SplineSet
576 8 m 6
 330 8 246 1 170 1 c 4
 143 1 130 4 130 25 c 6
 130 85 l 6
 130 106 143 109 170 109 c 4
 246 109 330 102 576 102 c 6
 597 102 l 6
 843 102 958 109 1034 109 c 4
 1061 109 1074 106 1074 85 c 6
 1074 25 l 6
 1074 4 1061 1 1034 1 c 4
 958 1 843 8 597 8 c 6
 576 8 l 6
657 726 m 2
 657 550 664 436 664 360 c 0
 664 333 661 320 640 320 c 2
 580 320 l 2
 559 320 556 333 556 360 c 0
 556 436 563 550 563 726 c 2
 563 803 l 2
 563 979 556 1124 556 1200 c 0
 556 1227 559 1240 580 1240 c 2
 640 1240 l 2
 661 1240 664 1227 664 1200 c 0
 664 1124 657 979 657 803 c 2
 657 726 l 2
130 748 m 0
 130 772 141 785 169 815 c 0
 183 830 196 838 217 838 c 0
 280 838 841 823 894 823 c 0
 986 823 1005 839 1060 839 c 0
 1079 839 1092 822 1092 803 c 0
 1092 779 1084 768 1067 737 c 0
 1058 720 1044 711 1025 711 c 0
 997 711 948 730 885 730 c 2
 340 730 l 2
 260 730 174 720 159 720 c 0
 145 720 130 730 130 748 c 0
EndSplineSet
EndChar

StartChar: copyright
Encoding: 169 169 212
Width: 1572
Flags: MW
LayerCount: 2
Fore
SplineSet
531.200195312 700 m 0
 531.200195312 505.5 644.5 389.5 786 389.5 c 4
 913.318359375 389.5 988.203125 471.828125 1028.66601562 568.43359375 c 1
 1145.14355469 517.842773438 l 1
 1103.78027344 379.952148438 983.249023438 259 796 259 c 4
 563 259 366.400390625 431 366.400390625 700 c 0
 366.400390625 969 563 1141 796 1141 c 4
 983.416015625 1141 1114.06152344 1009.86523438 1155.35839844 871.743164062 c 1
 1028.8828125 831.153320312 l 1
 988.471679688 918.01953125 913.475585938 1010.5 786 1010.5 c 4
 644.5 1010.5 531.200195312 894.5 531.200195312 700 c 0
141.599609375 700 m 0
 141.599609375 326.5 421.5 28.5 786 28.5 c 0
 1150.5 28.5 1430.40039062 326.5 1430.40039062 700 c 0
 1430.40039062 1073.5 1150.5 1371.5 786 1371.5 c 0
 421.5 1371.5 141.599609375 1073.5 141.599609375 700 c 0
70 700 m 0
 70 1115 381 1435 786 1435 c 0
 1191 1435 1502 1115 1502 700 c 0
 1502 285 1191 -35 786 -35 c 0
 381 -35 70 285 70 700 c 0
EndSplineSet
EndChar

StartChar: registered
Encoding: 174 174 213
Width: 1572
Flags: MW
LayerCount: 2
Fore
SplineSet
70 700 m 0
 70 1115 381 1435 786 1435 c 0
 1191 1435 1502 1115 1502 700 c 0
 1502 285 1191 -35 786 -35 c 0
 381 -35 70 285 70 700 c 0
141.599609375 700 m 0
 141.599609375 326.5 421.5 28.5 786 28.5 c 0
 1150.5 28.5 1430.40039062 326.5 1430.40039062 700 c 0
 1430.40039062 1073.5 1150.5 1371.5 786 1371.5 c 0
 421.5 1371.5 141.599609375 1073.5 141.599609375 700 c 0
502 284 m 1
 502 1116 l 1
 845.758789062 1116 l 2
 1008.75878906 1116 1105.35839844 1024 1105.35839844 865 c 0
 1105.35839844 728.930664062 1040.03222656 668.11328125 948.657226562 635.528320312 c 1
 1158 284 l 1
 997 284 l 1
 816.188476562 608 l 1
 636 608 l 1
 636 284 l 1
 502 284 l 1
960.55859375 855 m 0
 960.55859375 949.5 917.258789062 995.5 815.758789062 995.5 c 2
 636 995.5 l 1
 636 718.5 l 1
 815.758789062 718.5 l 2
 917.258789062 718.5 960.55859375 760.5 960.55859375 855 c 0
EndSplineSet
EndChar

StartChar: uni00AD
Encoding: 173 173 214
Width: 569
Flags: HMW
LayerCount: 2
Fore
SplineSet
94 446 m 4
 94 470 120 523 148 553 c 4
 162 568 175 576 196 576 c 4
 259 576 285 561 338 561 c 4
 430 561 449 577 504 577 c 4
 523 577 536 560 536 541 c 4
 536 517 523 478 506 447 c 4
 497 430 483 421 464 421 c 4
 414 421 342 434 206 434 c 4
 182 434 138 418 123 418 c 4
 109 418 94 428 94 446 c 4
EndSplineSet
EndChar

StartChar: logicalnot
Encoding: 172 172 215
Width: 1164
VWidth: 2048
Flags: MW
LayerCount: 2
Fore
SplineSet
556 568 m 2
 280 568 246 561 170 561 c 0
 143 561 130 564 130 585 c 2
 130 645 l 2
 130 666 143 669 170 669 c 0
 246 669 280 662 556 662 c 2
 577 662 l 2
 846 662 914 669 988 669 c 0
 1031 669 1034 658 1034 630 c 0
 1034 554 1027 485 1027 409 c 0
 1027 317 1034 281 1034 200 c 0
 1034 173 1031 160 1010 160 c 2
 950 160 l 2
 929 160 926 173 926 200 c 0
 926 276 933 334 933 410 c 0
 933 474 930 516 928 562 c 1
 865 564 775 568 577 568 c 2
 556 568 l 2
EndSplineSet
EndChar

StartChar: degree
Encoding: 176 176 217
Width: 700
VWidth: 1920
Flags: HMW
LayerCount: 2
Fore
SplineSet
262 1115 m 4
 262 992.599609375 346.599609375 908 460 908 c 4
 573.400390625 908 658 992.599609375 658 1115 c 4
 658 1237.40039062 573.400390625 1322 460 1322 c 4
 346.599609375 1322 262 1237.40039062 262 1115 c 4
160 1115 m 4
 160 1285 290 1415 460 1415 c 4
 630 1415 760 1285 760 1115 c 4
 760 945 630 815 460 815 c 4
 290 815 160 945 160 1115 c 4
EndSplineSet
EndChar

StartChar: questiondown
Encoding: 191 191 218
Width: 858
VWidth: 1920
Flags: HMW
LayerCount: 2
Fore
SplineSet
653 732 m 4
 653 670 603 620 541 620 c 4
 479 620 429 670 429 732 c 4
 429 794 479 844 541 844 c 4
 603 844 653 794 653 732 c 4
573 480 m 4
 629 480 661 450 661 406 c 4
 661 202 256 -15 256 -262 c 4
 256 -379 377 -478 451 -478 c 4
 555 -478 610 -382 610 -297 c 4
 610 -183.862304688 532 -234 495 -205.389648438 c 4
 462.243164062 -180.060546875 475.013671875 -83 572 -83 c 4
 651 -83 731 -169 731 -249 c 4
 731 -419 556 -604 348 -604 c 4
 230 -604 89 -441 89 -280 c 4
 89 -69 533 202 533 341 c 4
 533 364 521 380 496 380 c 4
 456 380 442 323 407 323 c 4
 381 323 364 341 364 369 c 4
 364 450 487 480 573 480 c 4
EndSplineSet
EndChar

StartChar: currency
Encoding: 164 164 220
Width: 1208
VWidth: 1920
Flags: HMW
LayerCount: 2
Fore
SplineSet
328 695 m 4
 303 488 429 345 620 345 c 4
 811 345 972 488 997 695 c 4
 1022 902 897 1045 706 1045 c 4
 515 1045 353 902 328 695 c 4
420 1060 m 5
 505 1121 610 1156 720 1156 c 4
 830 1156 924 1120 995 1059 c 5
 1078 1136 1151 1202 1177 1225 c 4
 1198 1244 1211 1251 1224 1236 c 6
 1261 1194 l 6
 1274 1179 1265 1168 1244 1149 c 4
 1218 1126 1144 1062 1059 988 c 5
 1113 909 1138 808 1124 695 c 4
 1110 585 1063 486 992 408 c 5
 1057 336 1114 274 1134 251 c 4
 1151 232 1156 221 1139 206 c 6
 1092 164 l 6
 1075 149 1066 156 1049 175 c 4
 1029 198 975 261 912 335 c 5
 825 272 720 234 607 234 c 4
 494 234 397 272 326 335 c 5
 244 260 176 197 151 175 c 4
 130 156 117 149 104 164 c 6
 67 206 l 6
 54 221 63 232 84 251 c 4
 109 273 179 335 263 408 c 5
 212 486 188 585 202 695 c 4
 216 808 266 909 339 988 c 5
 271 1063 214 1126 194 1149 c 4
 177 1168 172 1179 189 1194 c 6
 236 1236 l 6
 253 1251 262 1244 279 1225 c 4
 299 1202 354 1137 420 1060 c 5
EndSplineSet
EndChar

StartChar: section
Encoding: 167 167 221
Width: 654
VWidth: 1920
Flags: HMW
LayerCount: 2
Fore
SplineSet
163 171 m 0
 163 156.963867188 161 148 161 129 c 0
 161 86.98828125 227 47 286 47 c 0
 418 47 469 126.994140625 469 211 c 0
 469 315 392 391 322 455 c 0
 205 562 146 640.962890625 146 762 c 0
 146 869.62890625 198.490234375 954.180664062 287.946289062 998 c 0
 306.559570312 1007.1171875 306.559570312 1007.1171875 291.68359375 1040 c 0
 274.579101562 1077.80664062 266 1117.84472656 266 1164 c 0
 266 1324 382 1433 563 1433 c 0
 658 1433 720 1374 720 1295 c 0
 720 1247.98925781 683 1224 658 1224 c 0
 624 1224 610 1243 584 1283 c 0
 550 1333 520 1351 480 1351 c 0
 406 1351 371 1305 371 1251 c 0
 371 1196.99121094 406 1135 502 1025 c 0
 616 895 714 844 714 676 c 0
 714 576.235351562 661.930664062 486.584960938 586 434.465820312 c 0
 561.4921875 417.643554688 561.4921875 417.643554688 570.153320312 398 c 0
 585.33203125 363.578125 594 323.962890625 594 274 c 0
 594 116.971679688 465 -25 277 -25 c 0
 220 -25 155 -19 106 17 c 0
 56 54 18 110.9921875 18 179 c 0
 18 239 60 275 93 275 c 0
 130 275 163 239 163 171 c 0
543.525390625 496 m 0
 575.243164062 526.821289062 589 569.369140625 589 613 c 0
 589 717 512 793 442 857 c 0
 413.985351562 882.620117188 389.296875 906.6328125 367.946289062 930 c 0
 348.177734375 951.63671875 348.177734375 951.63671875 321 943.998046875 c 0
 273.639648438 930.686523438 251 892.430664062 251 849 c 0
 251 794.991210938 286 733 382 623 c 0
 423.10546875 576.125 462.131835938 539.521484375 495.232421875 504 c 0
 522.09375 475.174804688 522.09375 475.174804688 543.525390625 496 c 0
EndSplineSet
EndChar

StartChar: dagger
Encoding: 8224 8224 222
Width: 912
Flags: HMW
LayerCount: 2
Fore
SplineSet
313 916 m 4
 345 916 393 901 409 883 c 12
 425 865 427 838 421 792 c 4
 392 556 386 478 384 368 c 4
 382 212 389 56 386 0 c 4
 383 -56 416 -68 438 0 c 12
 460 68 503 218 528 360 c 4
 554 504 564 567 609 806 c 4
 613 826 612 848 640 848 c 4
 672 848 727 826 810 826 c 4
 869 826 922 860 930 924 c 4
 935 968 910 992 868 992 c 4
 798 992 802 904 743 904 c 4
 671 904 606 926 590 952 c 4
 577 973 578 998 581 1020 c 12
 584 1042 619 1054 625 1100 c 4
 630 1138 582 1145 584 1159 c 4
 586 1173 614 1188 618 1220 c 4
 622 1252 588 1266 590 1286 c 4
 591 1296 619 1309 623 1338 c 4
 625 1358 614 1380 586 1380 c 12
 558 1380 536 1358 534 1338 c 12
 532 1318 550 1299 548 1283 c 12
 546 1267 500 1256 496 1220 c 4
 492 1184 522 1169 521 1157 c 4
 520 1145 475 1132 471 1096 c 4
 465 1050 503 1038 500 1010 c 12
 497 982 479 954 447 954 c 12
 415 954 346 990 260 990 c 12
 174 990 128 948 123 904 c 4
 118 860 145 834 189 834 c 4
 265 834 251 916 313 916 c 4
EndSplineSet
EndChar

StartChar: daggerdbl
Encoding: 8225 8225 223
Width: 912
Flags: HMW
LayerCount: 2
Fore
SplineSet
509 665 m 4
 513 565 515 440 497 295 c 6
 494 267 l 6
 491 243 491 242 511 226 c 4
 523 216 538 209 556 209 c 4
 615 209 602 300 672 300 c 4
 702 300 720 280 716 245 c 4
 709 190 668 149 602 149 c 4
 566 149 531 163 504 178 c 4
 470 196 458 181 453 143 c 6
 449 108 l 6
 446 87 466 81 462 47 c 4
 458 13 437 10 435 -10 c 4
 433 -28 421 -38 406 -38 c 4
 391 -38 383 -28 385 -10 c 4
 388 13 368 13 372 47 c 4
 376 81 396 86 399 108 c 6
 403 139 l 6
 408 182 408 183 373 214 c 4
 359 227 337 240 311 240 c 4
 252 240 265 149 195 149 c 4
 165 149 147 169 151 204 c 4
 158 259 199 300 265 300 c 4
 300 300 334 287 361 272 c 4
 383 260 394 266 396 286 c 6
 397 295 l 6
 415 440 443 565 471 665 c 4
 477 685 508 685 509 665 c 4
478 722 m 4
 474 822 477 947 495 1092 c 6
 498 1120 l 6
 501 1144 501 1145 481 1161 c 4
 469 1171 454 1178 436 1178 c 4
 377 1178 390 1087 320 1087 c 4
 290 1087 272 1107 276 1142 c 4
 283 1197 324 1238 390 1238 c 4
 426 1238 461 1224 488 1209 c 4
 522 1191 534 1206 539 1244 c 6
 543 1279 l 6
 546 1300 526 1306 530 1340 c 4
 534 1374 555 1377 557 1397 c 4
 559 1415 571 1425 586 1425 c 4
 601 1425 609 1415 607 1397 c 4
 604 1374 624 1374 620 1340 c 4
 616 1306 596 1301 593 1279 c 6
 589 1248 l 6
 584 1205 584 1204 619 1173 c 4
 633 1160 655 1147 681 1147 c 4
 740 1147 727 1238 797 1238 c 4
 827 1238 845 1218 841 1183 c 4
 834 1128 793 1087 727 1087 c 4
 692 1087 658 1100 631 1115 c 4
 609 1127 598 1121 596 1101 c 6
 595 1092 l 6
 577 947 544 822 516 722 c 4
 510 702 479 702 478 722 c 4
EndSplineSet
EndChar

StartChar: Thorn
Encoding: 222 222 224
Width: 1267
VWidth: 1920
Flags: HMW
LayerCount: 2
Fore
SplineSet
694 389 m 0
 860 389 1026 463 1052 673 c 0
 1077 873 984 1029 782 1029 c 0
 617 1029 596 994 582 962 c 0
 572 939 551 819 542 744 c 2
 533 668 l 2
 527 616 510 469 509 444 c 0
 509 416 576 389 694 389 c 0
341 591 m 2
 379 901 l 2
 422 1248 402 1320 337 1320 c 0
 302 1320 279 1304 259 1304 c 0
 239 1304 228 1318 230 1338 c 0
 234 1372 255 1385 302 1395 c 0
 366 1408 434 1415 525 1415 c 0
 611 1415 684 1412 729 1405 c 0
 781 1397 808 1380 804 1349 c 0
 802 1332 779 1312 751 1312 c 0
 728 1312 716 1330 679 1330 c 0
 642 1330 609 1300 589 1138 c 0
 585 1109 592 1101 615 1101 c 0
 661 1101 735 1107 812 1107 c 0
 1089 1107 1283 1006 1250 736 c 0
 1215 452 935 312 701 312 c 0
 560 312 525 337 508 337 c 0
 498 337 492 332 489 307 c 0
 484 269 473 159 490 113 c 0
 499 89 513 86 533 86 c 0
 577 86 596 105 625 105 c 0
 649 105 659 87 656 64 c 0
 652 30 615 16 568 7 c 0
 510 -4 436 -15 345 -15 c 0
 259 -15 187 -14 141 -5 c 0
 93 4 61 12 65 45 c 0
 67 62 85 85 113 85 c 0
 136 85 157 72 194 72 c 0
 213 72 232 82 246 108 c 0
 277 166 306 307 341 591 c 2
EndSplineSet
EndChar

StartChar: Oslash
Encoding: 216 216 225
Width: 1388
VWidth: 1920
Flags: HMW
LayerCount: 2
Fore
SplineSet
517.106445312 329.665039062 m 6
 307.557617188 79.9345703125 271.78125 26.408203125 222.9296875 -31.810546875 c 4
 205.57421875 -52.494140625 194.919921875 -60.5244140625 178.833007812 -47.025390625 c 6
 132.870117188 -8.458984375 l 6
 116.783203125 5.0400390625 122.841796875 16.9267578125 140.197265625 37.6103515625 c 4
 189.048828125 95.8291015625 235.549804688 140.356445312 445.098632812 390.086914062 c 6
 995.966796875 1046.58691406 l 6
 1205.515625 1296.31738281 1261.21875 1373.59179688 1310.0703125 1431.81054688 c 4
 1327.42578125 1452.49414062 1338.08007812 1460.52441406 1354.16699219 1447.02539062 c 6
 1400.12988281 1408.45898438 l 6
 1416.21679688 1394.95996094 1410.15820312 1383.07324219 1392.80273438 1362.38964844 c 4
 1343.95117188 1304.17089844 1277.52441406 1235.89550781 1067.97558594 986.165039062 c 6
 517.106445312 329.665039062 l 6
EndSplineSet
Refer: 15 79 N 1 0 0 1 0 0 2
EndChar

StartChar: germandbls
Encoding: 223 223 227
Width: 1059
VWidth: 1920
Flags: HMW
LayerCount: 2
Fore
SplineSet
1029 313 m 256
 1029 443 957.255859375 508.155273438 769 617 c 0
 644.09375 689.217773438 602 713 602 780 c 0
 602 929 891 1032 891 1215 c 0
 891 1315 788 1420 561 1420 c 0
 374 1420 216 1297 216 1082 c 0
 216 999 219 953 222 869 c 0
 223 840 219 840 209 840 c 0
 162 840 154 850 129 850 c 0
 103 850 80 784 80 762 c 0
 80 734 86 730 104 730 c 0
 128 730 144 757 201 757 c 0
 225 757 225 749 223 726 c 2
 203 496 l 2
 169 100 139 -44 107 -249 c 0
 101 -284 80 -289 69 -289 c 0
 63 -289 60 -286 50 -286 c 0
 34 -286 20 -295 20 -314 c 0
 20 -351 36 -365 124 -365 c 0
 169 -365 198 -361 218 -351 c 0
 246 -337 253 -306 257 -269 c 0
 280 -58 303 139 326 363 c 2
 356 660 l 2
 360 697 363 739 363 780 c 0
 363 804 362 828 359 851 c 0
 339 1020 330 1070 330 1163 c 0
 330 1260 423 1360 561 1360 c 0
 702 1360 734 1275 734 1191 c 0
 734 1022 495 949 495 726 c 0
 495 595 556 552 734 439 c 0
 857.748046875 360.44140625 905 328 905 231 c 256
 905 141 843 35 711 35 c 256
 652 35 584 68 584 103 c 0
 584 119 586 126 586 138 c 0
 586 195 550 225 513 225 c 0
 480 225 440 195 440 145 c 0
 440 88 481 41 532 10 c 0
 581 -20 647 -25 704 -25 c 256
 892 -25 1029 142 1029 313 c 256
EndSplineSet
EndChar

StartChar: ae
Encoding: 230 230 228
Width: 1026
VWidth: 1920
Flags: HMW
LayerCount: 2
Fore
SplineSet
592 402 m 0
 619 383 638 382 672 382 c 0
 729 382 787 445 819 532 c 0
 831 563 845 597 845 633 c 0
 845 679 822 705 784 730 c 0
 765 743 740 754 716 754 c 0
 673 754 643 708 618 646 c 0
 594 584 575 507 575 438 c 0
 575 415 575 413 592 402 c 0
814 855 m 0
 846 855 875 844 898 824 c 0
 939 788 967 735 967 656 c 0
 967 593 920 487 856 424 c 0
 786 355 717 316 628 316 c 0
 576 316 564 313 564 283 c 0
 564 220 584 140 626 95 c 0
 657 62 703 50 757 50 c 0
 844 50 925 84 961 175 c 0
 974 207 981 216 994 216 c 0
 1006 216 1014 213 1020 210 c 0
 1032 204 1036 196 1036 182 c 0
 1036 154.217801943 998.951174614 93.4004012507 930.000012866 44.8369013268 c 4
 874.858830288 6.00000941607 799.314768161 -25 706 -25 c 0
 623.56365095 -25 534.314897712 7.92662024326 477.835105965 73.7798607298 c 1
 411.706733296 12.0964726898 335.216479295 -25 259 -25 c 0
 115 -25 50 60 50 228 c 0
 50 605 306 855 488 855 c 0
 530.881242257 855 578.192702193 821.382465853 614.23631116 763.858914603 c 1
 671.711945613 820.025578197 739.378983504 855 814 855 c 0
460 785 m 0
 339 785 204 459 204 243 c 0
 204 163 263 84 346 84 c 0
 379.239243368 84 412.736011892 99.2583654814 444.219634113 125.119403165 c 1
 428.872346083 157.001351391 420 193.961550336 420 236 c 0
 420 317 429 406 456 491 c 0
 481.632349698 570.79102406 519.058195032 646.821803136 565.804341766 708.563595804 c 1
 540.587325612 753.951128394 505.196116198 785.000000038 460 785 c 0
EndSplineSet
EndChar

StartChar: eth
Encoding: 240 240 238
Width: 759
Flags: HMW
LayerCount: 2
Fore
SplineSet
412 1178 m 2
 333 1123 262 1069 200 1025 c 0
 178 1010 166 1004 154 1021 c 2
 119 1071 l 2
 107 1088 116 1098 138 1113 c 0
 200 1157 275 1205 354 1260 c 2
 371 1273 l 2
 466 1340 522 1381 584 1425 c 0
 606 1440 618 1446 630 1429 c 2
 665 1379 l 2
 677 1362 668 1352 646 1337 c 0
 584 1293 524 1257 429 1190 c 2
 412 1178 l 2
376 49 m 260
 543 49 597 349 597 514 c 260
 597 719 505 784 438 784 c 260
 389 784 338 765 306 719 c 4
 234 616 201 438 201 293 c 260
 201 224 203 162 225 124 c 4
 257 70 321 49 376 49 c 260
50 271 m 4
 50 459 116 644 232 754 c 4
 302 820 397 855 499 855 c 4
 547.968856385 855 547.968856385 855 536.277657785 887.999990808 c 4
 466.325942623 1085.44817695 313.500773356 1261.39926011 109 1339 c 4
 83 1349 72 1360 74 1374 c 4
 76 1391 97 1407 124 1407 c 4
 182 1407 237 1378 289 1353 c 4
 492.553589284 1254.28416159 748.999833332 1033.21973515 749 546 c 4
 749 265 579 -25 319 -25 c 4
 167 -25 50 97 50 271 c 4
EndSplineSet
EndChar

StartChar: divide
Encoding: 247 247 245
Width: 1222
Flags: MW
LayerCount: 2
Fore
SplineSet
480 132 m 0
 480 199 529 241 586 241 c 0
 643 241 690 199 690 132 c 0
 690 66 643 23 586 23 c 0
 529 23 480 66 480 132 c 0
480 888 m 0
 480 955 529 997 586 997 c 0
 643 997 690 955 690 888 c 0
 690 822 643 779 586 779 c 0
 529 779 480 822 480 888 c 0
576 463 m 2
 330 463 246 456 170 456 c 0
 143 456 130 459 130 480 c 2
 130 540 l 2
 130 561 143 564 170 564 c 0
 246 564 330 557 576 557 c 2
 597 557 l 2
 843 557 958 564 1034 564 c 0
 1061 564 1074 561 1074 540 c 2
 1074 480 l 2
 1074 459 1061 456 1034 456 c 0
 958 456 843 463 597 463 c 2
 576 463 l 2
EndSplineSet
EndChar

StartChar: oslash
Encoding: 248 248 246
Width: 759
VWidth: 1920
Flags: HMW
LayerCount: 2
Fore
SplineSet
371.606445312 329.665039062 m 2
 164.846679688 80.6201171875 126.28125 26.408203125 77.4296875 -31.810546875 c 0
 60.07421875 -52.494140625 49.419921875 -60.5244140625 33.3330078125 -47.025390625 c 2
 -12.6298828125 -8.458984375 l 2
 -28.716796875 5.0400390625 -22.658203125 16.9267578125 -5.302734375 37.6103515625 c 0
 43.548828125 95.8291015625 92.83984375 141.041015625 299.598632812 390.086914062 c 2
 386 493 l 6
 595.548828125 742.73046875 651.251953125 820.004882812 700.103515625 878.223632812 c 4
 717.458984375 898.907226562 728.11328125 906.9375 744.200195312 893.438476562 c 6
 790.163085938 854.872070312 l 6
 806.25 841.373046875 800.19140625 829.486328125 782.8359375 808.802734375 c 4
 733.984375 750.583984375 667.557617188 682.30859375 458.008789062 432.578125 c 6
 371.606445312 329.665039062 l 2
EndSplineSet
Refer: 34 111 N 1 0 0 1 0 0 2
EndChar

StartChar: thorn
Encoding: 254 254 252
Width: 867
VWidth: 1920
Flags: HMW
LayerCount: 2
Fore
SplineSet
137 194 m 2
 200 883 l 2
 222.3984375 1127.96386719 237 1251 225 1293 c 0
 220 1310 204 1317 185 1317 c 0
 156 1317 106 1294 76 1294 c 0
 56 1294 43 1308 43 1328 c 0
 43 1349 68 1367 118 1376 c 0
 185 1388 353 1420 384 1420 c 0
 397 1420 406 1410 406 1383 c 0
 406 1307 367 1217 329 894 c 2
 308.47265625 718.912109375 l 2
 301.540039062 659.780273438 291.930664062 610 300 610 c 0
 307 610 346 679 380 717 c 0
 438 783 532 865 623 865 c 0
 727 865 857 758 857 654 c 0
 857 370 711 -15 394 -15 c 0
 336 -15 308 16 290 53 c 0
 278 79 271 90 266 90 c 0
 259 90 259.197265625 84.9755859375 257 67 c 2
 246 -23 l 2
 230.60546875 -148.952148438 227.848632812 -218.061523438 241 -250 c 0
 248 -267 264 -274 295 -274 c 0
 310 -274 330 -268 345 -268 c 0
 366 -268 377 -280 377 -299 c 0
 377 -327 341 -344 273 -344 c 0
 234 -344 152 -343 93 -335 c 0
 -44 -317 -80 -293 -80 -257 c 0
 -80 -232 -63 -221 -44 -221 c 0
 -19 -221 4 -245 29 -245 c 0
 60 -245 67 -214 73 -189 c 0
 89.357421875 -120.842773438 116.819335938 -26.708984375 137 194 c 2
549 757 m 0
 410 757 294 500 294 305 c 0
 294 218 327 51 431 51 c 0
 584 51 704 382 704 596 c 0
 704 684 659 757 549 757 c 0
EndSplineSet
EndChar

StartChar: dcroat
Encoding: 273 273 270
Width: 945
VWidth: 1920
Flags: HMW
LayerCount: 2
Fore
SplineSet
720 1055 m 6
 624 1055 534 1051 458 1051 c 4
 431 1051 418 1054 421 1075 c 6
 429 1135 l 6
 432 1156 445 1159 472 1159 c 4
 548 1159 636 1156 732 1156 c 6
 753 1156 l 6
 869 1156 940 1159 1016 1159 c 4
 1043 1159 1056 1156 1053 1135 c 6
 1045 1075 l 6
 1042 1054 1029 1051 1002 1051 c 4
 926 1051 857 1055 741 1055 c 6
 720 1055 l 6
EndSplineSet
Refer: 36 100 N 1 0 0 1 0 0 2
EndChar

StartChar: Hbar
Encoding: 294 294 291
Width: 1570
VWidth: 1920
Flags: HMW
LayerCount: 2
Fore
SplineSet
435 1015 m 6
 339 1015 249 1011 173 1011 c 4
 146 1011 133 1014 136 1035 c 6
 144 1095 l 6
 147 1116 160 1119 187 1119 c 4
 263 1119 351 1116 447 1116 c 6
 1328 1116 l 6
 1444 1116 1515 1119 1591 1119 c 4
 1618 1119 1631 1116 1628 1095 c 6
 1620 1035 l 6
 1617 1014 1604 1011 1577 1011 c 4
 1501 1011 1432 1015 1316 1015 c 6
 435 1015 l 6
EndSplineSet
Refer: 8 72 N 1 0 0 1 0 0 2
EndChar

StartChar: hbar
Encoding: 295 295 292
Width: 875
VWidth: 1920
Flags: HMW
LayerCount: 2
Fore
SplineSet
274 1055 m 6
 178 1055 88 1051 12 1051 c 4
 -15 1051 -28 1054 -25 1075 c 6
 -17 1135 l 6
 -14 1156 -1 1159 26 1159 c 4
 102 1159 190 1156 286 1156 c 6
 307 1156 l 6
 423 1156 494 1159 570 1159 c 4
 597 1159 610 1156 607 1135 c 6
 599 1075 l 6
 596 1054 583 1051 556 1051 c 4
 480 1051 411 1055 295 1055 c 6
 274 1055 l 6
EndSplineSet
Refer: 42 104 N 1 0 0 1 0 0 2
EndChar

StartChar: uni0237
Encoding: 567 567 306
Width: 536
VWidth: 1920
Flags: HMW
AnchorPoint: "top" 291 880 basechar 0
LayerCount: 2
Fore
SplineSet
289 505 m 6
 305 671 276 736 234 736 c 4
 214 736 174 660 168 592 c 4
 163 537 155 522 125 522 c 4
 101 522 84 540 84 570 c 4
 84 666 206 845 304 845 c 4
 365 845 443 761 443 704 c 4
 443 628 433 599 415 444 c 6
 381 154 l 6
 365 21 379 -119 350 -199 c 4
 316 -291 258 -355 178 -355 c 4
 91 -355 40 -306 40 -246 c 4
 40 -203 79 -177 122 -177 c 4
 147 -177 167.608703081 -188.575674757 180 -207 c 4
 193.54296875 -227.13671875 189 -281 219 -281 c 4
 233 -281 233 -268 233 -251 c 4
 233 -160 240 4 257 180 c 6
 289 505 l 6
EndSplineSet
EndChar

StartChar: Ldot
Encoding: 319 319 315
Width: 1240
VWidth: 1920
Flags: HMW
LayerCount: 2
Fore
SplineSet
794 1063 m 4
 794 1140 857 1203 934 1203 c 4
 1011 1203 1074 1140 1074 1063 c 4
 1074 986 1011 923 934 923 c 4
 857 923 794 986 794 1063 c 4
EndSplineSet
Refer: 12 76 N 1 0 0 1 0 0 2
EndChar

StartChar: ldot
Encoding: 320 320 316
Width: 819
VWidth: 2048
Flags: HMW
LayerCount: 2
Fore
SplineSet
479 863 m 0
 479 940 542 1003 619 1003 c 0
 696 1003 759 940 759 863 c 0
 759 786 696 723 619 723 c 0
 542 723 479 786 479 863 c 0
  Spiro
    479 863 o
    498.149 933.456 o
    548.544 983.851 o
    619 1003 o
    689.456 983.851 o
    739.851 933.456 o
    759 863 o
    739.851 792.544 o
    689.456 742.149 o
    619 723 o
    548.544 742.149 o
    498.149 792.544 o
    0 0 z
  EndSpiro
EndSplineSet
Refer: 28 108 N 1 0 0 1 0 0 2
EndChar

StartChar: Lslash
Encoding: 321 321 317
Width: 1240
VWidth: 1920
Flags: HMW
LayerCount: 2
Fore
SplineSet
426 848 m 6
 341 793 264 739 196 695 c 4
 172 680 159 674 149 691 c 6
 120 741 l 6
 110 758 120 768 144 783 c 4
 212 827 293 875 378 930 c 6
 397 943 l 6
 500 1010 560 1051 628 1095 c 4
 652 1110 665 1116 675 1099 c 6
 704 1049 l 6
 714 1032 704 1022 680 1007 c 4
 612 963 548 927 445 860 c 6
 426 848 l 6
EndSplineSet
Refer: 12 76 N 1 0 0 1 0 0 2
EndChar

StartChar: lslash
Encoding: 322 322 318
Width: 569
VWidth: 1920
Flags: HMW
LayerCount: 2
Fore
SplineSet
294 848 m 6
 209 793 132 739 64 695 c 4
 40 680 27 674 17 691 c 6
 -11 741 l 6
 -21 758 -11 768 13 783 c 4
 81 827 162 875 247 930 c 6
 265 943 l 6
 368 1010 429 1051 497 1095 c 4
 521 1110 534 1116 544 1099 c 6
 572 1049 l 6
 582 1032 572 1022 548 1007 c 4
 480 963 416 927 313 860 c 6
 294 848 l 6
EndSplineSet
Refer: 28 108 N 1 0 0 1 0 0 2
EndChar

StartChar: Eng
Encoding: 330 330 326
Width: 1595
VWidth: 1920
Flags: HMW
LayerCount: 2
Fore
SplineSet
304 551 m 2
 338 823 l 2
 369.492307692 1074.93846154 367 1232 329 1297 c 0
 316.678710938 1318.07617188 302 1332 272 1332 c 0
 217 1332 194 1307 165 1307 c 0
 145 1307 127 1318 127 1338 c 0
 127 1370 170 1382 207 1390 c 0
 269 1403 411 1415 472 1415 c 0
 538 1415 550.666992188 1395.83007812 573 1359 c 2
 1183 366 l 2
 1201.328125 335.7734375 1211 320 1232 320 c 0
 1256 320 1266.34570312 407.20703125 1285 566 c 2
 1326 915 l 2
 1357.04101562 1179.22363281 1340 1335 1275 1335 c 0
 1230 1335 1201 1316 1172 1316 c 0
 1152 1316 1140 1323 1140 1343 c 0
 1140 1384 1201 1415 1397 1415 c 0
 1610 1415 1651 1387 1651 1348 c 0
 1651 1329 1636 1321 1618 1321 c 0
 1585 1321 1558 1338 1511 1338 c 0
 1451 1338 1439.89233784 1261.13187742 1408 993 c 0
 1374.78193403 716.832438335 1341.32863969 428.650375462 1309 154 c 0
 1293 21 1307 -119 1278 -199 c 0
 1244 -291 1186 -355 1106 -355 c 0
 1019 -355 968 -306 968 -246 c 0
 968 -203 1007 -177 1050 -177 c 0
 1075 -177 1095.60839844 -188.575195312 1108 -207 c 0
 1121.54296875 -227.13671875 1117 -281 1147 -281 c 0
 1161 -281 1161 -268 1161 -251 c 0
 1161 -193.533637836 1170.12988281 -118 1170.12988281 -16.6279296875 c 0
 1170.12988281 -9.95313923236 1162.16133556 5.06663557692 1158 12 c 2
 526 1085 l 2
 506.407226562 1117.64453125 496 1141 475 1141 c 0
 453 1141 421.854492188 989.015625 403 816 c 2
 369 504 l 2
 331.518554688 160.052734375 353 62 418 62 c 0
 463 62 478 76 507 76 c 0
 525 76 533 64 533 52 c 0
 533 14 470 -15 304 -15 c 0
 141 -15 31 -1 31 54 c 0
 31 70 45 79 63 79 c 0
 86 79 109 64 146 64 c 0
 206 64 253.292307692 145.338461538 304 551 c 2
EndSplineSet
EndChar

StartChar: eng
Encoding: 331 331 327
Width: 958
VWidth: 1920
Flags: HMW
LayerCount: 2
Fore
SplineSet
637 844 m 0
 696 844 807 784 848 716 c 0
 869 681 878 642 878 593 c 0
 878 509 840 317 821 154 c 0
 805 21 819 -119 790 -199 c 0
 756 -291 698 -355 618 -355 c 0
 531 -355 480 -306 480 -246 c 0
 480 -203 519 -177 562 -177 c 0
 587 -177 608 -189 620 -207 c 0
 634 -227 629 -281 659 -281 c 0
 673 -281 673 -268 673 -251 c 0
 673 -160 680 4 697 180 c 0
 722 431 722 431 722 587 c 0
 722 663 687 720 602 720 c 0
 528 720 485 588 445 472 c 0
 415 385 386 237 371 59 c 0
 369 32 373 -2 343 -2 c 0
 333 -2 295 -2 280 -2 c 0
 261 -2 243 -5 235 -5 c 0
 214 -5 198 3 198 21 c 0
 198 68 270 226 270 504 c 0
 270 602 257 729 176 729 c 0
 135 729 98 683 98 650 c 0
 98 623 105 622 105 578 c 0
 105 548 85 534 64 534 c 0
 38 534 20 551 20 577 c 0
 20 649 38 701 76 751 c 0
 121 811 225 843 267 843 c 0
 299 843 321 823 343 793 c 0
 373 754 384 637 389 604 c 0
 392 585 399 574 409 574 c 0
 423 574 433 596 435 602 c 0
 477 727 524 844 637 844 c 0
EndSplineSet
EndChar

StartChar: OE
Encoding: 338 338 334
Width: 1990
VWidth: 1920
Flags: HMW
LayerCount: 2
Fore
SplineSet
1026.87402344 1408 m 4
 1114.87402344 1408 1204.87402344 1392 1255.87402344 1392 c 4
 1341.87402344 1392 1399.87402344 1400 1494.87402344 1400 c 0
 1616.87402344 1400 1624.87402344 1396 1743.87402344 1396 c 0
 1856.87402344 1396 1900.87402344 1426 1937.87402344 1426 c 0
 1970.87402344 1426 2019.87402344 1298 2003.87402344 1168 c 0
 1999.87402344 1133 1965.87402344 1095 1947.87402344 1095 c 0
 1927.87402344 1095 1920.87402344 1134 1904.87402344 1183 c 0
 1884.87402344 1246 1851.87402344 1296 1770.87402344 1309 c 0
 1709.87402344 1319 1590.87402344 1319 1528.87402344 1319 c 0
 1393.87402344 1319 1370.87402344 1313 1356.87402344 1244 c 0
 1342.87402344 1180 1312.87402344 1021 1290.87402344 838 c 0
 1284.87402344 791 1294.87402344 773 1320.87402344 763 c 0
 1348.87402344 753 1393.87402344 750 1458.87402344 750 c 0
 1592.87402344 750 1656.87402344 794 1664.87402344 858 c 0
 1666.87402344 874 1666.87402344 885 1668.87402344 901 c 0
 1670.87402344 914 1678.87402344 926 1696.87402344 926 c 0
 1753.87402344 926 1752.87402344 840 1737.87402344 716 c 0
 1719.87402344 570 1690.87402344 495 1646.87402344 495 c 0
 1627.87402344 495 1620.87402344 518 1625.87402344 556 c 0
 1631.87402344 602 1621.87402344 672 1489.87402344 672 c 0
 1294.87402344 672 1286.87402344 668 1273.87402344 613 c 0
 1262.87402344 564 1255.87402344 521 1246.87402344 446 c 0
 1230.87402344 315 1226.87402344 235 1221.87402344 135 c 0
 1220.87402344 113 1223.87402344 109 1248.87402344 103 c 0
 1294.87402344 91 1400.87402344 80 1496.87402344 80 c 0
 1581.87402344 80 1638.87402344 81 1693.87402344 95 c 0
 1752.87402344 110 1802.87402344 150 1842.87402344 203 c 0
 1889.87402344 266 1901.87402344 314 1922.87402344 314 c 0
 1943.87402344 314 1970.87402344 277 1965.87402344 239 c 0
 1956.87402344 166 1825.87402344 -27 1779.87402344 -27 c 0
 1745.87402344 -27 1739.87402344 -3 1691.87402344 -3 c 0
 1574.87402344 -3 1463.87402344 -3 1378.87402344 -3 c 0
 1291.87402344 -3 1205.87402344 -1 1121.87402344 -1 c 4
 1044.87402344 -1 944.874023438 -13 801.874023438 -13 c 4
 354.874023438 -13 85.8740234375 238 135.874023438 648 c 0
 177.874023438 988 432.874023438 1326 785.874023438 1390 c 0
 865.874023438 1404 946.874023438 1408 1026.87402344 1408 c 4
967.874023438 1318 m 0
 870.874023438 1318 775.874023438 1318 678.874023438 1271 c 0
 463.874023438 1167 365.874023438 948 343.874023438 768 c 0
 295.874023438 378 461.874023438 66 831.874023438 66 c 0
 1005.87402344 66 964.874023438 85 977.874023438 94 c 0
 996.874023438 107 1006.87402344 150 1014.87402344 187 c 0
 1034.87402344 284 1053.87402344 396 1067.87402344 507 c 0
 1092.87402344 709 1121.87402344 994 1143.87402344 1200 c 0
 1146.87402344 1224 1145.87402344 1266 1125.87402344 1275 c 0
 1088.87402344 1292 1041.87402344 1318 967.874023438 1318 c 0
EndSplineSet
EndChar

StartChar: longs
Encoding: 383 383 335
Width: 524
VWidth: 1920
Flags: HMW
LayerCount: 2
Fore
SplineSet
201 757 m 0
 154 757 137 749 113 749 c 0
 95 749 89 753 89 781 c 0
 89 803 103 850 129 850 c 0
 154 850 162 840 209 840 c 0
 219 840 223 840 222 869 c 0
 219 953 209 999 209 1082 c 0
 209 1297 354 1420 461 1420 c 0
 519 1420 579 1381 579 1331 c 0
 579 1278 538 1252 497 1252 c 0
 434 1252 421 1315 363 1315 c 0
 335 1315 310 1240 310 1203 c 0
 310 1090 347 1031 359 861 c 0
 362 814 362 802.013671875 362 767 c 4
 362 721 356 655 354 632 c 2
 326 363 l 2
 303 139 280 -58 257 -269 c 0
 253 -306 246 -337 218 -351 c 0
 198 -361 169 -365 124 -365 c 0
 36 -365 20 -351 20 -314 c 0
 20 -295 34 -286 50 -286 c 0
 60 -286 63 -289 69 -289 c 0
 80 -289 101 -284 107 -249 c 0
 139 -44 169 100 203 496 c 2
 223 726 l 2
 225 749 225 757 201 757 c 0
EndSplineSet
EndChar

StartChar: Tbar
Encoding: 358 358 355
Width: 1333
VWidth: 1920
Flags: HMW
LayerCount: 2
Fore
SplineSet
705 675 m 6
 609 675 519 671 443 671 c 4
 416 671 403 674 406 695 c 6
 414 755 l 6
 417 776 430 779 457 779 c 4
 533 779 621 776 717 776 c 6
 738 776 l 6
 854 776 925 779 1001 779 c 4
 1028 779 1041 776 1038 755 c 6
 1030 695 l 6
 1027 674 1014 671 987 671 c 4
 911 671 842 675 726 675 c 6
 705 675 l 6
EndSplineSet
Refer: 20 84 N 1 0 0 1 0 0 2
EndChar

StartChar: tbar
Encoding: 359 359 356
Width: 618
Flags: HMW
LayerCount: 2
Fore
SplineSet
276 495 m 6
 180 495 90 491 14 491 c 4
 -13 491 -26 494 -23 515 c 6
 -15 575 l 6
 -12 596 1 599 28 599 c 4
 104 599 192 596 288 596 c 6
 309 596 l 6
 425 596 496 599 572 599 c 4
 599 599 612 596 609 575 c 6
 601 515 l 6
 598 494 585 491 558 491 c 4
 482 491 413 495 297 495 c 6
 276 495 l 6
EndSplineSet
Refer: 50 116 N 1 0 0 1 0 0 2
EndChar

StartChar: florin
Encoding: 402 402 380
Width: 526
VWidth: 1920
Flags: HMW
LayerCount: 2
Fore
SplineSet
301 154 m 2
 287 21 299 -119 270 -199 c 0
 236 -291 178 -355 98 -355 c 0
 11 -355 -40 -306 -40 -246 c 0
 -40 -203 -1 -177 42 -177 c 0
 67 -177 88 -189 100 -207 c 0
 114 -227 109 -281 139 -281 c 0
 153 -281 153 -268 153 -251 c 0
 153 -160 162 4 177 180 c 2
 223 726 l 2
 225 749 225 757 201 757 c 0
 154 757 137 749 113 749 c 0
 95 749 89 753 89 781 c 0
 89 803 103 850 129 850 c 0
 154 850 162 840 209 840 c 0
 219 840 223 840 222 869 c 0
 219 953 209 999 209 1082 c 0
 209 1297 354 1420 461 1420 c 0
 519 1420 579 1381 579 1331 c 0
 579 1278 538 1252 497 1252 c 0
 434 1252 421 1315 363 1315 c 0
 335 1315 310 1240 310 1203 c 0
 310 1090 347 1031 359 861 c 0
 361 831 369 835 384 834 c 0
 418 831 442 830 476 830 c 0
 523 830 523 841 537 841 c 0
 550 841 554 832 554 820 c 0
 554 797.142632207 548.55998269 776.026069953 538.390487936 760.000001175 c 4
 526.75934285 741.670523101 508.941493569 730 486 730 c 0
 453 730 408 742 375 742 c 0
 366 742 363 728 361 712 c 2
 301 154 l 2
EndSplineSet
EndChar

StartChar: uni0259
Encoding: 601 601 389
Width: 656
VWidth: 1920
Flags: HMW
LayerCount: 2
Fore
SplineSet
272 -25 m 0
 240 -25 211 -14 188 6 c 0
 147 42 119 95 119 174 c 0
 119 237 166 343 230 406 c 0
 300 475 369 514 458 514 c 0
 510 514 522 517 522 547 c 0
 522 610 502 690 460 735 c 0
 429 768 383 780 329 780 c 0
 242 780 161 746 125 655 c 0
 112 623 105 614 92 614 c 0
 80 614 72 617 66 620 c 0
 54 626 50 634 50 648 c 0
 50 698 170 855 380 855 c 0
 514 855 666 768 666 594 c 0
 666 513 657 424 630 339 c 0
 568 146 437 -25 272 -25 c 0
494 428 m 0
 467 447 448 448 414 448 c 0
 357 448 299 385 267 298 c 0
 255 267 241 233 241 197 c 0
 241 151 264 125 302 100 c 0
 321 87 346 76 370 76 c 0
 413 76 443 122 468 184 c 0
 492 246 511 323 511 392 c 0
 511 415 511 417 494 428 c 0
EndSplineSet
EndChar

StartChar: uni0394
Encoding: 916 916 390
Width: 1588
VWidth: 1920
Flags: HMW
LayerCount: 2
Fore
SplineSet
361 253 m 6
 321 175 311 132 308 111 c 4
 304 75 330 63 364 63 c 4
 406 63 544 79 709 79 c 4
 884 79 1033 66 1076 66 c 4
 1110 66 1125 85 1128 113 c 4
 1132 145 1125 190 1117 218 c 6
 908 976 l 6
 896 1021 866 1094 820 1094 c 4
 792 1094 771 1059 743 1004 c 6
 361 253 l 6
251 -15 m 4
 120 -15 90 1 96 49 c 4
 101 94 192 145 332 402 c 6
 595 886 l 6
 689 1060 775 1247 783 1315 c 4
 793 1396 814 1446 879 1446 c 4
 948 1446 980 1366 1032 1236 c 4
 1163 908 1247 571 1337 248 c 4
 1369 133 1419 120 1410 51 c 4
 1404 1 1341 -23 1227 -23 c 4
 1165 -23 935 2 724 2 c 4
 565 2 366 -15 251 -15 c 4
EndSplineSet
EndChar

StartChar: uni03A9
Encoding: 937 937 391
Width: 1595
VWidth: 1920
Flags: HMW
LayerCount: 2
Fore
SplineSet
959 335 m 4
 1141 394 1275 568 1304 806 c 4
 1344 1128 1202 1335 905 1335 c 4
 641 1335 456 1229 416 903 c 4
 388 677 459 451 615 353 c 4
 698 301 705 271 695 192 c 6
 683 96 l 6
 673 12 624 0 567 0 c 6
 425 0 l 6
 352 0 275 -26 198 -26 c 4
 137 -26 79 195 95 325 c 4
 100 369 136 406 173 406 c 4
 203 406 193 365 208 316 c 4
 256 158 318 95 421 95 c 6
 497 95 l 6
 570 95 590 105 596 152 c 4
 599 178 605 210 518 246 c 4
 285 344 163 555 195 812 c 4
 244 1214 576 1435 962 1435 c 4
 1341 1435 1558 1236 1516 898 c 4
 1484 640 1290 371 1033 243 c 4
 949 201 947 191 942 152 c 4
 937 114 956 95 1029 95 c 6
 1105 95 l 6
 1208 95 1286 158 1372 316 c 4
 1399 365 1399 406 1429 406 c 4
 1466 406 1492 369 1487 325 c 4
 1471 195 1359 -26 1298 -26 c 4
 1221 -26 1150 0 1077 0 c 6
 935 0 l 6
 878 0 833 12 843 96 c 6
 857 205 l 6
 870 309 880 309 959 335 c 4
EndSplineSet
EndChar

StartChar: uni1E9E
Encoding: 7838 7838 402
Width: 1467
VWidth: 1920
Flags: HMW
LayerCount: 2
Fore
SplineSet
876 221 m 4
 913 83 961 44 1035 44 c 260
 1187 44 1225 139 1234 211 c 260
 1246 308 1195 351 1080 429 c 4
 943 522 778 575 804 786 c 4
 830 999 1119 1036 1140 1205 c 4
 1149 1279 1028 1369 837 1369 c 4
 629 1369 475 1277 466 1200 c 4
 457 1124 541 1120 506 834 c 6
 478 604 l 6
 447 348 434 163 445 117 c 4
 451 92 475 84 495 84 c 4
 529 84 556 102 585 102 c 4
 609 102 618 81 616 65 c 4
 609 11 484 -15 285 -15 c 4
 105 -15 19 -1 25 48 c 4
 27 65 49 84 68 84 c 4
 96 84 113 72 150 72 c 4
 189 72 195 90 209 116 c 4
 240 174 266 307 301 591 c 6
 331 841 l 6
 354 1028 309 1093 319 1172 c 4
 338 1327 569 1439 846 1439 c 4
 1113 1439 1344 1349 1326 1199 c 4
 1304 1016 983 959 967 830 c 4
 956 743 1015 719 1159 627 c 4
 1332 516 1397 443 1377 283 c 260
 1356 110 1215 -21 1007 -21 c 260
 957 -21 913 -10 876 7 c 4
 845 21 809 40 790 60 c 4
 775 75 734 123 745 210 c 4
 750 250 771 278 786 278 c 4
 823 278 868 248 876 221 c 4
EndSplineSet
EndChar

StartChar: perthousand
Encoding: 8240 8240 405
Width: 2280
Flags: HMW
LayerCount: 2
Fore
SplineSet
2205 371 m 260
 2205 151 2034 -35 1859 -35 c 260
 1724 -35 1602 57 1602 292 c 260
 1602 514 1777 685 1941 685 c 260
 2082 685 2205 600 2205 371 c 260
1858 37 m 260
 1946 37 2060 204 2060 418 c 260
 2060 539 2023 615 1948 615 c 260
 1848 615 1747 447 1747 235 c 260
 1747 105 1778 37 1858 37 c 260
1505 371 m 260
 1505 151 1334 -35 1159 -35 c 260
 1024 -35 902 57 902 292 c 260
 902 514 1077 685 1241 685 c 260
 1382 685 1505 600 1505 371 c 260
1158 37 m 260
 1246 37 1360 204 1360 418 c 260
 1360 539 1323 615 1248 615 c 260
 1148 615 1047 447 1047 235 c 260
 1047 105 1078 37 1158 37 c 260
758 968 m 260
 758 748 587 563 412 563 c 260
 277 563 155 654 155 889 c 260
 155 1111 330 1283 494 1283 c 260
 635 1283 758 1197 758 968 c 260
412 634 m 260
 500 634 613 801 613 1015 c 260
 613 1136 576 1212 501 1212 c 260
 401 1212 300 1045 300 833 c 260
 300 703 332 634 412 634 c 260
830 566 m 6
 662 326 540 143 449 13 c 4
 435 -7 427 -15 412 -4 c 6
 367 26 l 6
 352 37 356 48 370 68 c 4
 461 198 593 375 761 615 c 6
 800 671 l 6
 968 911 1105 1117 1196 1247 c 4
 1210 1267 1219 1275 1234 1264 c 6
 1278 1234 l 6
 1293 1223 1290 1212 1276 1192 c 4
 1185 1062 1038 863 870 623 c 6
 830 566 l 6
EndSplineSet
EndChar

StartChar: uni2031
Encoding: 8241 8241 406
Width: 2980
Flags: HMW
LayerCount: 2
Fore
SplineSet
2905 371 m 260
 2905 151 2734 -35 2559 -35 c 260
 2424 -35 2302 57 2302 292 c 260
 2302 514 2477 685 2641 685 c 260
 2782 685 2905 600 2905 371 c 260
2558 37 m 260
 2646 37 2760 204 2760 418 c 260
 2760 539 2723 615 2648 615 c 260
 2548 615 2447 447 2447 235 c 260
 2447 105 2478 37 2558 37 c 260
2205 371 m 260
 2205 151 2034 -35 1859 -35 c 260
 1724 -35 1602 57 1602 292 c 260
 1602 514 1777 685 1941 685 c 260
 2082 685 2205 600 2205 371 c 260
1858 37 m 260
 1946 37 2060 204 2060 418 c 260
 2060 539 2023 615 1948 615 c 260
 1848 615 1747 447 1747 235 c 260
 1747 105 1778 37 1858 37 c 260
1505 371 m 260
 1505 151 1334 -35 1159 -35 c 260
 1024 -35 902 57 902 292 c 260
 902 514 1077 685 1241 685 c 260
 1382 685 1505 600 1505 371 c 260
1158 37 m 260
 1246 37 1360 204 1360 418 c 260
 1360 539 1323 615 1248 615 c 260
 1148 615 1047 447 1047 235 c 260
 1047 105 1078 37 1158 37 c 260
758 968 m 260
 758 748 587 563 412 563 c 260
 277 563 155 654 155 889 c 260
 155 1111 330 1283 494 1283 c 260
 635 1283 758 1197 758 968 c 260
412 634 m 260
 500 634 613 801 613 1015 c 260
 613 1136 576 1212 501 1212 c 260
 401 1212 300 1045 300 833 c 260
 300 703 332 634 412 634 c 260
830 566 m 6
 662 326 540 143 449 13 c 4
 435 -7 427 -15 412 -4 c 6
 367 26 l 6
 352 37 356 48 370 68 c 4
 461 198 593 375 761 615 c 6
 800 671 l 6
 968 911 1105 1117 1196 1247 c 4
 1210 1267 1219 1275 1234 1264 c 6
 1278 1234 l 6
 1293 1223 1290 1212 1276 1192 c 4
 1185 1062 1038 863 870 623 c 6
 830 566 l 6
EndSplineSet
EndChar

StartChar: guilsinglleft
Encoding: 8249 8249 407
Width: 700
Flags: HMW
LayerCount: 2
Fore
SplineSet
118 524 m 6
 122 564 l 6
 124 584 126 592 143 602 c 4
 375 734 483 814 620 929 c 4
 627 935 634 938 638 938 c 4
 651 938 687 886 686 875 c 4
 685 864 676 858 664 849 c 4
 543 759 456 679 310 544 c 5
 422 409 491 329 590 239 c 4
 599 230 605 224 604 213 c 4
 603 202 555 150 542 150 c 4
 538 150 532 153 526 159 c 4
 417 274 329 354 129 486 c 4
 114 496 116 504 118 524 c 6
EndSplineSet
EndChar

StartChar: guilsinglright
Encoding: 8250 8250 408
Width: 700
Flags: HMW
LayerCount: 2
Fore
SplineSet
662 564 m 6
 658 524 l 6
 656 504 654 496 637 486 c 4
 405 354 297 274 160 159 c 4
 153 153 146 150 142 150 c 4
 129 150 93 202 94 213 c 4
 95 224 104 230 116 239 c 4
 237 329 324 409 470 544 c 5
 358 679 289 759 190 849 c 4
 181 858 175 864 176 875 c 4
 177 886 225 938 238 938 c 4
 242 938 248 935 254 929 c 4
 363 814 451 734 651 602 c 4
 666 592 664 584 662 564 c 6
EndSplineSet
EndChar

StartChar: fraction
Encoding: 8260 8260 411
Width: 1133
Flags: HMW
LayerCount: 2
Fore
SplineSet
625 629 m 6
 405 362 246 158 127 14 c 4
 109 -8 98 -17 82 -5 c 6
 38 29 l 6
 22 41 28 54 46 76 c 4
 165 220 335 416 555 683 c 6
 607 746 l 6
 827 1013 1006 1242 1125 1386 c 4
 1143 1408 1154 1417 1170 1405 c 6
 1214 1371 l 6
 1230 1359 1224 1346 1206 1324 c 4
 1087 1180 897 959 677 692 c 6
 625 629 l 6
EndSplineSet
EndChar

StartChar: Euro
Encoding: 8364 8364 412
Width: 1111
VWidth: 1920
Flags: HMW
LayerCount: 2
Fore
SplineSet
30 508 m 4
 30 532 41 545 69 575 c 4
 83 590 96 598 117 598 c 4
 180 598 481 583 534 583 c 4
 626 583 645 599 700 599 c 4
 719 599 732 582 732 563 c 4
 732 539 724 528 707 497 c 4
 698 480 684 471 665 471 c 4
 637 471 588 490 525 490 c 6
 240 490 l 6
 160 490 74 480 59 480 c 4
 45 480 30 490 30 508 c 4
90 728 m 4
 90 752 101 765 129 795 c 4
 143 810 156 818 177 818 c 4
 240 818 541 803 594 803 c 4
 686 803 705 819 760 819 c 4
 779 819 792 802 792 783 c 4
 792 759 784 748 767 717 c 4
 758 700 744 691 725 691 c 4
 697 691 648 710 585 710 c 6
 300 710 l 6
 220 710 134 700 119 700 c 4
 105 700 90 710 90 728 c 4
571 -25 m 4
 314 -25 148 178 198 588 c 4
 248 995 496 1283 771 1283 c 4
 881 1283 928 1224 978 1224 c 4
 1034 1224 1027 1244 1075 1244 c 4
 1115 1244 1141 1122 1127 1006 c 4
 1113 894 1055 847 1010 847 c 4
 955 847 971 921 969 974 c 4
 963 1111 911 1207 754 1207 c 4
 579 1207 445 936 411 658 c 4
 368 308 456 76 633 76 c 4
 740 76 875 151 921 268 c 4
 941 320 955 392 1000 392 c 4
 1035 392 1067 369 1058 297 c 4
 1050 231 1003 104 959 59 c 4
 944 44 928 34 908 34 c 4
 882 34 878 51 862 51 c 4
 799 51 735 -25 571 -25 c 4
EndSplineSet
EndChar

StartChar: uni03BC
Encoding: 956 956 413
Width: 984
VWidth: 1920
Flags: HMW
LayerCount: 2
Fore
SplineSet
279 194 m 4
 279 133.966675921 346 101 401 101 c 4
 485 101 575 236 631 367 c 4
 667 452 681 565 692 760 c 4
 694 787 686 823 716 823 c 4
 726 823 750 822 765 823 c 4
 785 824 823 839 843 839 c 4
 864 839 870 831 870 813 c 4
 870 795 851 761 834 673 c 4
 806 527 763 324 763 155 c 4
 763 107 778 80 807 80 c 4
 858 80 928 116 938 211 c 4
 939 221 939 235 959 235 c 4
 985 235 1004 214 1004 188 c 4
 1004 164.525254491 977.331239349 109.755534748 923 62.7297640296 c 4
 873.180769656 19.6093100954 800.102814703 -17 703 -17 c 4
 651 -17 630 29 630 76 c 4
 630 127 642 188 642 228 c 4
 642 236 640 239 634 239 c 4
 629 239 625.739542285 231.123682754 623 225 c 4
 572 111 374.766601562 -76.7021484375 250.44140625 9.6083984375 c 5
 221.100585938 -231.073242188 251.594392239 -247.125983637 246 -293 c 4
 240 -344 208 -365 144 -365 c 4
 108 -365 108 -365 105 -293 c 4
 99.4882430201 -149.694318523 112.686595008 -6.22271022675 129.476743638 204.192541088 c 4
 145.417505657 403.963223296 203.519047551 650.566723665 208 690 c 4
 213 734 209 768 213 809 c 4
 216.517578125 845.05078125 344 846 373 846 c 4
 393 846 399 836 399 809 c 4
 399 752.734020428 279.000001383 405.808874133 279 194 c 4
EndSplineSet
EndChar

StartChar: pi
Encoding: 960 960 415
Width: 1026
Flags: HMW
LayerCount: 2
Fore
SplineSet
715 250 m 2
 702 145 742 89 813 89 c 0
 849 89 882 103 905 117 c 0
 919 125 928 133 937 133 c 0
 951 133 958 126 956 111 c 0
 948 47 826 -22 716 -22 c 0
 619 -22 554 32 551 120 c 0
 550 146 554 198 563 250 c 2
 642 680 l 2
 643 690 640 700 628 700 c 2
 422 700 l 2
 388 700 377 695 367 661 c 2
 297 428 l 2
 275 352 228 174 221 113 c 0
 216 72 229 58 226 36 c 0
 222 3 176 -8 147 -8 c 0
 74 -8 23 26 27 62 c 0
 30 86 42 106 68 151 c 0
 99 205 135 285 184 453 c 0
 226 596 237 647 241 680 c 0
 242 690 238 700 212 700 c 2
 76 700 l 2
 55 700 48 710 49 721 c 0
 50 727 58 775 71 790 c 0
 97 820 321 830 432 830 c 2
 976 830 l 2
 993 830 1000 830 999 823 c 0
 999 820 997 815 994 808 c 2
 963 724 l 2
 955 700 955 700 930 700 c 2
 790 700 l 2
 775 700 770 695 768 680 c 2
 715 250 l 2
EndSplineSet
EndChar

StartChar: partialdiff
Encoding: 8706 8706 416
Width: 759
Flags: HMW
LayerCount: 2
Fore
SplineSet
376 49 m 260
 543 49 597 349 597 514 c 260
 597 719 505 784 438 784 c 260
 389 784 338 765 306 719 c 4
 234 616 201 438 201 293 c 260
 201 224 203 162 225 124 c 4
 257 70 321 49 376 49 c 260
50 271 m 4
 50 459 116 644 232 754 c 4
 302 820 397 855 499 855 c 4
 547.968856385 855 547.968856385 855 536.277657785 887.999990808 c 4
 466.325942623 1085.44817695 313.500773356 1261.39926011 109 1339 c 4
 83 1349 72 1360 74 1374 c 4
 76 1391 97 1407 124 1407 c 4
 182 1407 237 1378 289 1353 c 4
 492.553589284 1254.28416159 748.999833332 1033.21973515 749 546 c 4
 749 265 579 -25 319 -25 c 4
 167 -25 50 97 50 271 c 4
EndSplineSet
EndChar

StartChar: product
Encoding: 8719 8719 417
Width: 1570
VWidth: 1920
Flags: HMW
LayerCount: 2
Fore
SplineSet
1238 861 m 6
 1259 1035 1275 1218 1266 1275 c 4
 1260 1309 1228 1311 1207 1315 c 4
 1173 1321 1045 1327 906 1327 c 4
 743 1327 611 1326 574 1320 c 4
 513 1310 505 1255 459 884 c 6
 399 402 l 6
 385 292 387 179 392 133 c 4
 396 98 419 87 447 87 c 4
 482 87 498 104 527 104 c 4
 547 104 560 87 558 67 c 4
 554 33 517 13 479 5 c 4
 415 -8 337 -15 246 -15 c 4
 160 -15 88 -10 42 1 c 4
 -9 13 -24 29 -21 54 c 4
 -19 71 -10 94 18 94 c 4
 41 94 68 77 105 77 c 4
 165 77 185 180 235 591 c 6
 273 901 l 6
 316 1248 313 1321 238 1321 c 4
 213 1321 193 1303 154 1303 c 4
 134 1303 126 1319 128 1339 c 4
 132 1373 165 1387 203 1395 c 4
 265 1408 498 1416 914 1416 c 4
 1196 1416 1552 1409 1607 1396 c 4
 1658 1384 1665 1362 1662 1337 c 4
 1660 1320 1647 1297 1619 1297 c 4
 1596 1297 1580 1313 1543 1313 c 4
 1483 1313 1468 1225 1418 814 c 6
 1380 504 l 6
 1337 157 1337 80 1412 80 c 4
 1437 80 1465 101 1494 101 c 4
 1514 101 1524 85 1522 65 c 4
 1518 31 1487 17 1449 9 c 4
 1385 -4 1327 -15 1236 -15 c 4
 1150 -15 1068 -10 1022 1 c 4
 971 13 951 28 954 53 c 4
 956 70 969 90 997 90 c 4
 1020 90 1034 75 1071 75 c 4
 1095 75 1112 88 1121 110 c 4
 1137 152 1168 294 1181 397 c 6
 1238 861 l 6
EndSplineSet
EndChar

StartChar: summation
Encoding: 8721 8721 421
Width: 1240
VWidth: 1920
Flags: HMW
LayerCount: 2
Fore
SplineSet
243 1305 m 4
 230 1327 208 1342 211 1365 c 4
 215 1399 244 1405 311 1405 c 4
 379 1405 448 1401 550 1401 c 4
 672 1401 845 1396 964 1396 c 4
 1077 1396 1122 1426 1159 1426 c 4
 1192 1426 1240 1298 1224 1168 c 4
 1220 1133 1186 1095 1168 1095 c 4
 1148 1095 1142 1134 1126 1183 c 4
 1106 1246 1073 1296 992 1309 c 4
 931 1319 812 1319 750 1319 c 4
 672 1319 608 1320 554 1320 c 4
 496 1320 463 1314 478 1271 c 4
 552 1057 645 864 751 684 c 4
 789 620 766 558 711 483 c 6
 228 -175 l 6
 164 -262 205 -274 335 -275 c 4
 456 -276 578 -277 674 -277 c 4
 759 -277 816 -276 871 -262 c 4
 930 -247 980 -207 1020 -154 c 4
 1067 -91 1079 -43 1100 -43 c 4
 1121 -43 1149 -80 1144 -118 c 4
 1135 -191 1003 -384 957 -384 c 4
 923 -384 917 -360 869 -360 c 4
 752 -360 641 -360 556 -360 c 4
 469 -360 383 -358 299 -358 c 4
 213 -358 181 -360 96 -360 c 4
 25 -360 -8 -340 -4 -306 c 4
 0 -277 46 -266 73 -226 c 6
 553 432 l 6
 584 475 592 525 573 576 c 4
 474 843 370 1080 243 1305 c 4
EndSplineSet
EndChar

StartChar: radical
Encoding: 8730 8730 422
Width: 1140
Flags: HMW
LayerCount: 2
Fore
SplineSet
713 38 m 4
 695 -12 660 -36 628 -36 c 4
 586 -36 532 -26 516 34 c 4
 430 362 383 484 286 761 c 4
 275 794 249 797 210 797 c 4
 160 797 123 790 108 790 c 4
 94 790 80 800 82 818 c 4
 85 842 98 855 130 885 c 4
 146 900 159 908 180 908 c 4
 243 908 374 903 427 903 c 4
 455 903 468 889 474 863 c 4
 521 668 575 484 632 296 c 4
 655 220 681 217 710 292 c 4
 862 686 959 972 1107 1396 c 4
 1124 1446 1160 1470 1192 1470 c 4
 1225 1470 1261 1456 1256 1419 c 4
 1252 1384 1184 1349 1148 1244 c 4
 1118 1159 943 687 713 38 c 4
EndSplineSet
EndChar

